<svg width="24" height="24" viewBox="0 0 24 24" fill="none" xmlns="http://www.w3.org/2000/svg">
<path fill-rule="evenodd" clip-rule="evenodd" d="M8.25841 2.39999H15.7417L19.5951 4.32668L21.732 7.17598L12.0001 22.0984L2.26807 7.17598L4.40504 4.32668L8.25841 2.39999ZM8.54169 3.59999L5.19507 5.27331L3.73204 7.22401L12.0001 19.9016L20.2681 7.22401L18.805 5.27331L15.4584 3.59999H8.54169Z" fill="#22292A"/>
<path fill-rule="evenodd" clip-rule="evenodd" d="M2.70022 7.71961L3.29989 6.68019L8.36072 9.5999H15.6394L20.7002 6.68019L21.2999 7.71961L15.9607 10.7999H8.03939L2.70022 7.71961Z" fill="#22292A"/>
<path fill-rule="evenodd" clip-rule="evenodd" d="M4.58273 5.3586L5.02001 4.24111L9.51458 5.99986H14.4882L18.9827 4.24111L19.42 5.3586L14.7146 7.19986H9.28816L4.58273 5.3586Z" fill="#22292A"/>
<path fill-rule="evenodd" clip-rule="evenodd" d="M15.1678 6.41064L16.4375 10.2197L11.9986 21.2586L7.55968 10.2197L8.82938 6.41064L9.9678 6.79012L8.8375 10.181L11.9986 18.0422L15.1597 10.181L14.0294 6.79012L15.1678 6.41064Z" fill="#22292A"/>
</svg>
