<svg width="27" height="27" viewBox="0 0 27 27" fill="none" xmlns="http://www.w3.org/2000/svg">
<path d="M25.2674 8.63708L15.8655 23.6954L21.1304 11.7237L25.2674 8.63708Z" fill="#56EBFF"/>
<path d="M26.3222 6.1674L24.3525 3.42419L19.5872 5.91293L20.9486 10.1766L26.3222 6.1674Z" fill="url(#paint0_radial_2_495)"/>
<path d="M8.32971 6.24939L6.9458 10.5875H19.6981L18.3129 6.24939H8.32971Z" fill="url(#paint1_radial_2_495)"/>
<path d="M1.37746 8.63755L10.7739 23.6869L5.51381 11.7236L1.37746 8.63755Z" fill="url(#paint2_linear_2_495)"/>
<path d="M0.322266 6.16764L2.29283 3.42322L7.05618 5.91095L5.69541 10.1765L0.322266 6.16764Z" fill="url(#paint3_linear_2_495)"/>
<path d="M7.05889 11.9569H19.5853L13.3214 26.2002L7.05889 11.9569Z" fill="url(#paint4_linear_2_495)"/>
<path d="M23.1517 2.52035L18.709 0.200073H7.93547L3.49414 2.51963L8.01421 4.8803H18.633L23.1517 2.52035Z" fill="url(#paint5_radial_2_495)"/>
<defs>
<radialGradient id="paint0_radial_2_495" cx="0" cy="0" r="1" gradientUnits="userSpaceOnUse" gradientTransform="translate(13.3222 6.20007) rotate(33.6901) scale(7.2111 4.8074)">
<stop stop-color="#51FFF5"/>
<stop offset="1" stop-color="#1DCCEE"/>
</radialGradient>
<radialGradient id="paint1_radial_2_495" cx="0" cy="0" r="1" gradientUnits="userSpaceOnUse" gradientTransform="translate(13.3222 6.20007) rotate(33.6901) scale(7.2111 4.8074)">
<stop stop-color="#51FFF5"/>
<stop offset="1" stop-color="#1DCCEE"/>
</radialGradient>
<linearGradient id="paint2_linear_2_495" x1="0.322266" y1="8.70007" x2="17.3223" y2="18.7001" gradientUnits="userSpaceOnUse">
<stop stop-color="#00A4C8"/>
<stop offset="0.570185" stop-color="#27C5E4"/>
<stop offset="1" stop-color="#6AEDFF"/>
</linearGradient>
<linearGradient id="paint3_linear_2_495" x1="0.322266" y1="8.70007" x2="17.3223" y2="18.7001" gradientUnits="userSpaceOnUse">
<stop stop-color="#00A4C8"/>
<stop offset="0.570185" stop-color="#27C5E4"/>
<stop offset="1" stop-color="#6AEDFF"/>
</linearGradient>
<linearGradient id="paint4_linear_2_495" x1="0.322266" y1="8.70007" x2="17.3223" y2="18.7001" gradientUnits="userSpaceOnUse">
<stop stop-color="#00A4C8"/>
<stop offset="0.570185" stop-color="#27C5E4"/>
<stop offset="1" stop-color="#6AEDFF"/>
</linearGradient>
<radialGradient id="paint5_radial_2_495" cx="0" cy="0" r="1" gradientUnits="userSpaceOnUse" gradientTransform="translate(13.3222 4.70007) rotate(-90) scale(6 13.5036)">
<stop stop-color="#51FFF5"/>
<stop offset="1" stop-color="#00C6E1"/>
</radialGradient>
</defs>
</svg>
