<svg width="174" height="72" viewBox="0 0 174 72" fill="none" xmlns="http://www.w3.org/2000/svg">
<path fill-rule="evenodd" clip-rule="evenodd" d="M131.184 60.6795C130.822 61.9439 130.856 62.9211 131.15 63.5587C131.429 64.1628 131.966 64.518 132.797 64.518C133.864 64.518 135.048 63.8962 136.232 62.9054C137.405 61.924 138.523 60.6281 139.45 59.386L139.459 59.3739L139.469 59.3626C139.595 59.2199 139.75 59.1035 139.931 59.0608C140.126 59.0149 140.337 59.0612 140.486 59.2208C140.762 59.5177 140.642 59.9451 140.438 60.2163L140.434 60.2216L140.433 60.2224C139.5 61.4184 138.394 62.837 137.096 63.9535C135.795 65.072 134.264 65.9214 132.476 65.9214C131.062 65.9214 129.951 65.3836 129.304 64.3934C128.667 63.4171 128.529 62.073 128.891 60.5433C129.724 56.756 132.477 51.4757 135.236 46.692C133.523 46.9106 131.863 47.0747 130.441 47.0747C129.261 47.0747 128.374 46.8591 127.823 46.4075C127.233 45.9245 127.098 45.2368 127.287 44.5149L127.292 44.4958L127.299 44.4773C127.456 44.0593 127.865 43.9284 128.155 43.9506C128.299 43.9617 128.482 44.0137 128.615 44.1561C128.686 44.2322 128.741 44.334 128.756 44.4559C128.77 44.5764 128.742 44.6881 128.695 44.7817C128.666 44.8398 128.593 45.073 128.715 45.2759C128.83 45.4675 129.226 45.8056 130.556 45.8316L130.561 45.8317C132.137 45.8824 134.025 45.6865 136.036 45.3344C137.413 42.9744 138.773 40.7776 139.877 38.9947L139.974 38.8383C141.127 36.975 141.965 35.6152 142.247 35.0022L142.261 34.9723L142.28 34.9451C142.653 34.4039 143.268 34.1553 143.786 34.2006C144.047 34.2234 144.319 34.3255 144.506 34.5481C144.703 34.7816 144.756 35.0881 144.68 35.4086L144.668 35.4625L144.64 35.5105C144.172 36.327 143.451 37.5168 142.582 38.9512C142.451 39.1675 142.317 39.3892 142.179 39.6161C141.246 41.1571 140.171 42.9386 139.062 44.8308C139.778 44.6957 140.5 44.5557 141.217 44.4164C144.304 43.8173 147.321 43.2318 149.534 43.1092L149.537 43.109C150.1 43.0823 150.978 43.0652 151.705 43.2393C152.068 43.326 152.436 43.4699 152.707 43.7217C152.997 43.9913 153.148 44.3619 153.093 44.8168L153.092 44.8254L153.091 44.834C153.005 45.35 152.575 45.6424 152.186 45.6844C151.988 45.7057 151.757 45.6678 151.573 45.515C151.381 45.3553 151.297 45.1186 151.314 44.8642C151.314 44.8222 151.314 44.7864 151.315 44.7558C151.316 44.594 151.316 44.5761 151.277 44.5385C151.249 44.5117 151.169 44.4547 150.961 44.41C150.754 44.3655 150.446 44.3388 149.994 44.3517L149.992 44.3517C148.929 44.3776 147.166 44.6517 145.037 45.0267C144.273 45.1614 143.463 45.3087 142.626 45.4609C141.207 45.7191 139.711 45.9913 138.23 46.2393C135.203 51.385 132.177 56.9782 131.185 60.6734L131.184 60.6795Z" fill="#00C5E0"/>
<path fill-rule="evenodd" clip-rule="evenodd" d="M130.262 59.9533L130.258 59.9588C130.025 60.2784 129.145 61.4855 127.917 62.6227C126.686 63.7624 125.027 64.9069 123.267 64.9069H123.257C122.195 64.879 121.371 64.6277 120.837 64.1032C120.292 63.5677 120.122 62.8215 120.21 61.977L120.21 61.9717C120.408 60.294 121.089 58.5411 121.497 57.5458C121.287 57.7274 121.049 57.9638 120.786 58.2451C120.17 58.9049 119.458 59.772 118.724 60.6666C118.668 60.7342 118.613 60.8019 118.557 60.8698C117.769 61.8282 116.963 62.8019 116.25 63.5361C115.895 63.9027 115.552 64.2207 115.238 64.4496C114.941 64.6663 114.604 64.8535 114.272 64.8535C113.892 64.8535 113.569 64.7816 113.31 64.6316C113.046 64.4783 112.874 64.2575 112.778 64.0084C112.596 63.5372 112.695 62.9936 112.839 62.5895C112.905 62.3802 113.111 61.9196 113.37 61.3674C113.64 60.7938 113.982 60.0873 114.331 59.379C115.018 57.9824 115.733 56.5676 115.961 56.1402C116.167 55.6615 116.703 55.5484 117.056 55.5484C117.369 55.5484 117.716 55.6495 117.965 55.858C118.093 55.9653 118.207 56.112 118.26 56.2992C118.314 56.4914 118.295 56.693 118.209 56.8855L118.207 56.8904C117.972 57.3965 117.625 58.1138 117.246 58.8941C116.857 59.698 116.435 60.5686 116.071 61.3436C115.871 61.7692 115.688 62.1691 115.532 62.5217C115.686 62.344 115.849 62.1496 116.021 61.9416C116.302 61.6005 116.617 61.2095 116.946 60.7997C117.353 60.2947 117.782 59.7611 118.201 59.257C118.975 58.3238 119.781 57.4075 120.526 56.7257C120.899 56.3848 121.267 56.093 121.618 55.8862C121.961 55.6842 122.325 55.5406 122.683 55.5484C122.914 55.5485 123.15 55.5584 123.36 55.6038C123.572 55.6496 123.801 55.7406 123.967 55.9374C124.139 56.1402 124.196 56.3966 124.182 56.6702C124.168 56.9379 124.085 57.2511 123.945 57.615L123.944 57.617C123.93 57.6529 123.915 57.692 123.898 57.7341C123.627 58.4216 123.044 59.9014 122.793 61.2388C122.658 61.9568 122.632 62.5737 122.757 62.9921C122.818 63.1931 122.907 63.3262 123.015 63.4107C123.121 63.4935 123.281 63.5569 123.535 63.5569C124.046 63.5569 124.615 63.3654 125.211 63.0325C125.802 62.7016 126.393 62.2458 126.939 61.7534C128.032 60.7675 128.911 59.6683 129.219 59.2336L129.22 59.2318C129.449 58.9117 129.849 58.7977 130.163 59.0124C130.306 59.1106 130.406 59.2688 130.424 59.4544C130.441 59.6375 130.377 59.8115 130.262 59.9533Z" fill="#00C5E0"/>
<path fill-rule="evenodd" clip-rule="evenodd" d="M109.783 58.1455C109.626 58.4338 108.923 59.866 108.554 61.2157C108.366 61.9034 108.281 62.5121 108.358 62.9277C108.395 63.1282 108.463 63.25 108.542 63.322C108.616 63.3895 108.739 63.4502 108.968 63.4502C109.356 63.4502 109.828 63.2708 110.349 62.9427C110.863 62.6193 111.385 62.1768 111.867 61.7096C112.832 60.7734 113.591 59.7796 113.736 59.5624L113.749 59.5433L113.764 59.5258C114.003 59.2471 114.377 59.1158 114.695 59.2834C114.853 59.3669 114.975 59.5225 114.998 59.7222C115.021 59.9174 114.944 60.095 114.83 60.2317L114.826 60.2363L114.822 60.2409C114.713 60.3629 114.567 60.545 114.389 60.766C113.941 61.3227 113.295 62.1263 112.552 62.8386C111.505 63.8423 110.14 64.8002 108.593 64.8002C107.503 64.8002 106.758 64.334 106.37 63.5617C106.194 63.2105 106.099 62.8098 106.069 62.3839C105.823 62.7058 105.526 63.0569 105.187 63.3896C104.404 64.1568 103.332 64.8831 102.054 64.8536C101.473 64.8457 100.989 64.6898 100.618 64.3905C100.248 64.0911 100.027 63.6762 99.923 63.2136C99.7183 62.3047 99.9492 61.1592 100.441 60.0652C100.937 58.961 101.722 57.8547 102.7 57.0134C103.677 56.1725 104.87 55.5779 106.175 55.5486L106.184 55.5484C107.092 55.5484 107.701 55.8293 108.056 56.273C108.094 56.3209 108.128 56.3699 108.16 56.4196C108.173 56.4017 108.187 56.3843 108.202 56.3687C108.372 56.176 108.641 56.09 108.862 56.0635C109.099 56.035 109.384 56.0616 109.632 56.1952C109.897 56.3385 110.1 56.5976 110.132 56.9666C110.161 57.3086 110.041 57.7019 109.783 58.1455ZM107.152 57.9158C107.003 58.4595 106.594 59.4331 105.922 60.4129L105.916 60.4215C105.391 61.2321 104.753 62.0483 104.131 62.6501C103.819 62.9513 103.521 63.1896 103.251 63.3475C102.975 63.5085 102.764 63.5653 102.617 63.5576L102.606 63.5571C102.474 63.5539 102.409 63.507 102.358 63.4149C102.29 63.2951 102.243 63.0826 102.254 62.7615C102.277 62.1269 102.521 61.2453 102.932 60.338C103.341 59.4353 103.898 58.5439 104.517 57.8849C105.147 57.2141 105.782 56.8451 106.344 56.8451C106.754 56.8451 106.958 57.0087 107.065 57.1907C107.186 57.3952 107.212 57.6744 107.152 57.9158Z" fill="#00C5E0"/>
<path fill-rule="evenodd" clip-rule="evenodd" d="M91.0309 60.7975C93.9477 57.9693 97.112 54.5659 99.7351 51.1665C102.636 47.407 104.832 43.7061 105.35 40.8142L105.351 40.8103C105.533 39.8485 105.476 39.2508 105.319 38.9125C105.245 38.7516 105.149 38.6519 105.043 38.5893C104.935 38.5258 104.793 38.487 104.607 38.4863C104.186 38.4984 103.666 38.6999 103.057 39.1181C102.451 39.5342 101.79 40.1417 101.096 40.9096C99.7087 42.4449 98.223 44.583 96.8152 46.9991C94.2494 51.4026 91.9755 56.6719 91.0309 60.7975ZM106.745 41.0076C106.11 44.2532 103.582 48.3857 100.487 52.354C97.4161 56.2916 93.7421 60.1228 90.6681 62.8549C90.4793 64.3427 90.5497 65.5332 90.8879 66.3415C91.0592 66.7509 91.2944 67.0512 91.5908 67.2512C91.8866 67.4507 92.2705 67.5686 92.7702 67.5686C94.4034 67.5686 96.0704 66.6362 97.4921 65.5152C98.7074 64.557 99.6925 63.5032 100.274 62.8811C100.368 62.7804 100.452 62.6911 100.524 62.6152L100.531 62.6082C100.659 62.4799 100.825 62.4384 100.953 62.435C101.083 62.4314 101.232 62.4646 101.358 62.5542C101.496 62.6523 101.606 62.8234 101.589 63.0423C101.574 63.2312 101.47 63.3885 101.349 63.5111C101.332 63.5312 101.308 63.5597 101.277 63.5958C100.954 63.9756 99.9151 65.1977 98.495 66.3685C96.9343 67.6554 94.8369 68.9461 92.6608 68.9186C91.14 68.9181 90.0118 68.3931 89.2714 67.4322C88.5446 66.4891 88.2324 65.1785 88.2118 63.679C88.1705 60.6802 89.2933 56.7302 91.0009 52.8217C92.7122 48.9047 95.0313 44.9833 97.4254 42.0344C98.6221 40.5604 99.8462 39.3186 101.032 38.442C102.21 37.5708 103.392 37.0295 104.495 37.0295C105.114 37.0295 105.86 37.1912 106.358 37.8396C106.85 38.4793 107.021 39.4924 106.745 41.0028L106.745 41.0076Z" fill="#00C5E0"/>
<path d="M85.4067 31.4939C82.5346 32.412 79.5821 33.9115 76.9525 35.7355C72.5311 38.8024 68.9084 42.8667 68.1558 46.7791C67.9626 47.7167 67.976 48.4392 68.1729 48.9627C68.3783 49.5089 68.7788 49.8195 69.2639 49.8979C69.6518 49.9789 69.992 49.8232 70.2063 49.5994C70.4051 49.3916 70.5534 49.0579 70.4524 48.727C70.3855 48.46 70.1965 48.3322 70.0693 48.2626C70.0132 48.2319 69.9741 48.2125 69.9442 48.1977C69.8943 48.1729 69.8703 48.1609 69.8369 48.1311C69.8065 48.1039 69.6329 47.9487 69.8161 47.035L69.8167 47.0321C70.1213 45.45 71.0699 43.7192 72.4893 42.0013C73.9053 40.2878 75.7708 38.6101 77.8728 37.1346C80.5128 35.2814 83.5016 33.7634 86.4123 32.8878C86.0621 32.4544 85.727 31.9897 85.4067 31.4939Z" fill="#00C5E0"/>
<path d="M92.2733 32.1021C91.818 31.5583 91.4049 31.0271 91.0337 30.5085C91.0461 30.5085 91.0585 30.5084 91.0709 30.5084C93.6278 30.5084 95.4687 31.2502 96.5182 32.6652C97.0315 33.3572 97.3371 34.1861 97.4532 35.123C97.5369 35.7979 97.5222 36.5289 97.416 37.305C97.3699 37.6416 97.3067 37.9867 97.2267 38.3394C96.263 42.8657 92.9748 46.954 88.8307 50.0484C84.74 53.1029 79.7695 55.2242 75.2501 55.8549C71.9191 61.8197 68.8571 67.6641 66.843 71.6278C66.7415 71.8546 66.5147 71.9458 66.3714 71.9777C66.201 72.0156 66.0006 72.0077 65.8142 71.9344C65.6204 71.8583 65.4367 71.7083 65.3375 71.4694C65.2408 71.2365 65.2429 70.9642 65.3249 70.67L65.3275 70.6607L65.3306 70.6515C65.3936 70.4628 65.6484 69.9052 66.0411 69.0875C66.4406 68.2555 66.9972 67.1254 67.6806 65.7691C68.9823 63.1856 70.7456 59.7787 72.7622 56.0441H72.5464C72.0225 56.0441 71.5645 55.967 71.2594 55.7047C70.9197 55.4126 70.8748 54.9938 70.937 54.5903L70.9978 54.1962L71.39 54.2744C71.613 54.3189 71.8929 54.3204 72.2251 54.3204C72.6858 54.3204 73.1897 54.2793 73.7552 54.232C77.4793 47.4492 82.6999 39.026 86.7971 33.3447C87.2528 33.8636 87.7325 34.3326 88.2362 34.7515C85.3198 38.7077 80.4008 46.5708 76.3407 53.835C80.3657 52.9105 84.7247 50.8134 88.3255 48.0014C92.1761 44.9942 95.1103 41.2092 95.8889 37.2237C95.8889 37.2237 95.8889 37.2237 95.8889 37.2237C96.0856 36.2126 96.1081 35.3637 95.9631 34.6682C95.8577 34.1627 95.6639 33.7382 95.384 33.3912C94.816 32.6868 93.8281 32.221 92.2733 32.1021Z" fill="#00C5E0"/>
<path d="M147.406 11.5487H154.875C155.074 11.5735 155.174 11.6728 155.174 11.8466V11.9956C155.174 12.1942 155.074 12.2935 154.875 12.2935H153.232C158.909 24.5337 161.847 30.9889 162.046 31.6593H162.195L171.158 12.2935H169.963C169.764 12.2935 169.664 12.1942 169.664 11.9956V11.8466C169.689 11.648 169.789 11.5487 169.963 11.5487H173.548C173.747 11.5735 173.847 11.6728 173.847 11.8466V11.9956C173.847 12.1942 173.299 12.3432 172.204 12.4425L153.83 51.7699H154.875C155.074 51.7947 155.174 51.894 155.174 52.0678V52.2168C155.174 52.4154 155.074 52.5147 154.875 52.5147H151.29C151.091 52.5147 150.991 52.4154 150.991 52.2168V52.0678C150.991 51.8692 151.589 51.7202 152.784 51.6209C152.784 51.4471 155.124 46.4319 159.805 36.5752C152.635 20.5115 149.049 12.4176 149.049 12.2935H147.406C147.207 12.2935 147.107 12.1942 147.107 11.9956V11.8466C147.132 11.648 147.232 11.5487 147.406 11.5487Z" fill="#22292A"/>
<path fill-rule="evenodd" clip-rule="evenodd" d="M154.885 11.3961L154.894 11.3973C155.014 11.4122 155.125 11.4519 155.208 11.5339C155.292 11.6186 155.327 11.7294 155.327 11.8466V11.9956C155.327 12.1184 155.296 12.2385 155.208 12.3269C155.119 12.4152 154.998 12.446 154.875 12.446H153.471C156.26 18.46 158.38 23.0621 159.832 26.252C160.567 27.866 161.13 29.119 161.523 30.0105C161.824 30.6945 162.028 31.1727 162.129 31.4376L170.919 12.446H169.963C169.84 12.446 169.719 12.4152 169.631 12.3269C169.542 12.2385 169.511 12.1184 169.511 11.9956V11.8371L169.513 11.8277C169.527 11.7086 169.567 11.5972 169.649 11.5153C169.734 11.4305 169.846 11.3961 169.963 11.3961H173.558L173.567 11.3973C173.687 11.4122 173.798 11.4519 173.881 11.5339C173.965 11.6186 174 11.7294 174 11.8466V11.9956C174 12.124 173.91 12.2106 173.826 12.2639C173.739 12.3195 173.619 12.3647 173.476 12.4034C173.205 12.4773 172.813 12.5377 172.305 12.5862L154.07 51.6173H154.885L154.894 51.6185C155.014 51.6334 155.125 51.6732 155.208 51.7551C155.292 51.8399 155.327 51.9506 155.327 52.0678V52.2168C155.327 52.3396 155.296 52.4598 155.208 52.5481C155.119 52.6365 154.998 52.6673 154.875 52.6673H151.29C151.167 52.6673 151.046 52.6365 150.958 52.5481C150.869 52.4598 150.838 52.3396 150.838 52.2168V52.0678C150.838 51.9329 150.94 51.8467 151.026 51.7964C151.12 51.7421 151.248 51.6976 151.402 51.6591C151.695 51.5861 152.119 51.5261 152.668 51.4777C152.688 51.4262 152.716 51.3565 152.753 51.2696C152.827 51.0948 152.937 50.8449 153.083 50.5202C153.376 49.8707 153.815 48.9188 154.4 47.6648C155.566 45.1674 157.311 41.4702 159.637 36.5732C156.066 28.5733 153.386 22.5551 151.598 18.5187C150.702 16.4951 150.03 14.9694 149.581 13.9418C149.357 13.428 149.189 13.0383 149.076 12.773C149.02 12.6404 148.978 12.5381 148.949 12.4667C148.946 12.4595 148.944 12.4527 148.941 12.446H147.406C147.283 12.446 147.162 12.4152 147.074 12.3269C146.985 12.2385 146.954 12.1184 146.954 11.9956V11.8371L146.956 11.8277C146.97 11.7086 147.01 11.5972 147.093 11.5153C147.177 11.4305 147.289 11.3961 147.406 11.3961H154.885ZM149.049 12.2935C149.049 12.4176 152.635 20.5115 159.805 36.5752C155.124 46.4319 152.784 51.4471 152.784 51.6209C151.589 51.7202 150.991 51.8692 150.991 52.0678V52.2168C150.991 52.4154 151.091 52.5147 151.29 52.5147H154.875C155.074 52.5147 155.174 52.4154 155.174 52.2168V52.0678C155.174 51.894 155.074 51.7947 154.875 51.7699H153.83L172.204 12.4425C173.299 12.3432 173.847 12.1942 173.847 11.9956V11.8466C173.847 11.6728 173.747 11.5735 173.548 11.5487H169.963C169.789 11.5487 169.689 11.648 169.664 11.8466V11.9956C169.664 12.1942 169.764 12.2935 169.963 12.2935H171.158L162.195 31.6593H162.046C161.847 30.9917 158.933 24.5873 153.303 12.446C153.279 12.3953 153.256 12.3444 153.232 12.2935H154.875C155.074 12.2935 155.174 12.1942 155.174 11.9956V11.8466C155.174 11.6728 155.074 11.5735 154.875 11.5487H147.406C147.232 11.5487 147.132 11.648 147.107 11.8466V11.9956C147.107 12.1942 147.207 12.2935 147.406 12.2935H149.049Z" fill="#22292A"/>
<path d="M140.832 12.0328H142.475C142.625 12.0328 142.774 12.1817 142.923 12.4797V14.5652C142.923 14.7638 142.824 14.8631 142.625 14.8631C141.181 13.7707 139.537 13.2245 137.695 13.2245C135.081 13.2245 133.238 14.8135 132.168 17.9915C131.969 18.9846 131.869 19.9777 131.869 20.9708V36.9103H133.662C133.861 36.9352 133.96 37.0345 133.96 37.2083V37.3572C133.96 37.5559 133.861 37.6552 133.662 37.6552H126.342C126.143 37.6552 126.043 37.5559 126.043 37.3572V37.2083C126.068 37.0096 126.168 36.9103 126.342 36.9103H128.134V12.9266H126.342C126.143 12.9266 126.043 12.8272 126.043 12.6286V12.4797C126.068 12.281 126.168 12.1817 126.342 12.1817H131.57C131.769 12.2065 131.869 12.3059 131.869 12.4797V16.0549C134.508 13.3735 137.496 12.0328 140.832 12.0328Z" fill="#22292A"/>
<path fill-rule="evenodd" clip-rule="evenodd" d="M143.076 12.4436V14.5652C143.076 14.688 143.046 14.8082 142.957 14.8965C142.868 14.9849 142.748 15.0157 142.625 15.0157H142.573L142.532 14.9847C141.115 13.9127 139.505 13.377 137.695 13.377C136.422 13.377 135.344 13.7629 134.453 14.5316C133.56 15.3012 132.845 16.463 132.316 18.0309C132.12 19.0112 132.022 19.9911 132.022 20.9708V36.7578H133.671L133.681 36.759C133.8 36.7738 133.912 36.8136 133.994 36.8956C134.079 36.9803 134.113 37.0911 134.113 37.2083V37.3572C134.113 37.4801 134.083 37.6002 133.994 37.6885C133.905 37.7769 133.785 37.8077 133.662 37.8077H126.342C126.219 37.8077 126.098 37.7769 126.01 37.6885C125.921 37.6002 125.89 37.4801 125.89 37.3572V37.1988L125.891 37.1893C125.906 37.0703 125.946 36.9589 126.028 36.8769C126.113 36.7922 126.224 36.7578 126.342 36.7578H127.982V13.0791H126.342C126.219 13.0791 126.098 13.0483 126.01 12.9599C125.921 12.8716 125.89 12.7514 125.89 12.6286V12.4702L125.891 12.4607C125.906 12.3417 125.946 12.2303 126.028 12.1483C126.113 12.0636 126.224 12.0292 126.342 12.0292H131.58L131.589 12.0304C131.709 12.0452 131.82 12.085 131.903 12.167C131.988 12.2517 132.022 12.3625 132.022 12.4797V15.6872C134.622 13.1541 137.56 11.8802 140.832 11.8802H142.475C142.605 11.8802 142.716 11.9455 142.808 12.0366C142.899 12.1274 142.982 12.2553 143.06 12.4114L143.076 12.4436ZM132.022 15.9013C134.623 13.3223 137.56 12.0328 140.832 12.0328H142.475C142.625 12.0328 142.774 12.1817 142.923 12.4797V14.5652C142.923 14.7638 142.824 14.8631 142.625 14.8631C141.181 13.7707 139.537 13.2245 137.695 13.2245C135.081 13.2245 133.238 14.8135 132.168 17.9915C131.969 18.9846 131.869 19.9777 131.869 20.9708V36.9103H133.662C133.861 36.9352 133.96 37.0345 133.96 37.2083V37.3572C133.96 37.5559 133.861 37.6552 133.662 37.6552H126.342C126.143 37.6552 126.043 37.5559 126.043 37.3572V37.2083C126.068 37.0096 126.168 36.9103 126.342 36.9103H128.134V12.9266H126.342C126.143 12.9266 126.043 12.8272 126.043 12.6286V12.4797C126.068 12.281 126.168 12.1817 126.342 12.1817H131.57C131.769 12.2065 131.869 12.3059 131.869 12.4797V16.0549C131.92 16.0032 131.971 15.952 132.022 15.9013Z" fill="#22292A"/>
<path d="M112.972 1.38156H118.2C118.4 1.40639 118.499 1.5057 118.499 1.6795V36.6869H120.292C120.491 36.7117 120.591 36.811 120.591 36.9848V37.1338C120.591 37.3324 120.491 37.4317 120.292 37.4317H112.972C112.773 37.4317 112.673 37.3324 112.673 37.1338V36.9848C112.698 36.7862 112.798 36.6869 112.972 36.6869H114.765V2.1264H112.972C112.773 2.1264 112.673 2.02709 112.673 1.82846V1.6795C112.698 1.48087 112.798 1.38156 112.972 1.38156Z" fill="#22292A"/>
<path fill-rule="evenodd" clip-rule="evenodd" d="M118.21 1.22902L118.219 1.2302C118.339 1.24508 118.45 1.28483 118.533 1.3668C118.618 1.45154 118.652 1.56232 118.652 1.6795V36.5343H120.301L120.311 36.5355C120.43 36.5504 120.542 36.5901 120.624 36.6721C120.709 36.7569 120.744 36.8676 120.744 36.9848V37.1338C120.744 37.2566 120.713 37.3767 120.624 37.4651C120.535 37.5534 120.415 37.5843 120.292 37.5843H112.972C112.849 37.5843 112.728 37.5534 112.64 37.4651C112.551 37.3767 112.52 37.2566 112.52 37.1338V36.9753L112.521 36.9659C112.536 36.8469 112.576 36.7355 112.658 36.6535C112.743 36.5688 112.854 36.5343 112.972 36.5343H114.612V2.27894H112.972C112.849 2.27894 112.728 2.24813 112.64 2.15978C112.551 2.07143 112.52 1.95129 112.52 1.82846V1.67L112.521 1.66058C112.536 1.54154 112.576 1.43015 112.658 1.34818C112.743 1.26345 112.854 1.22902 112.972 1.22902H118.21ZM114.765 2.1264V36.6869H112.972C112.798 36.6869 112.698 36.7862 112.673 36.9848V37.1338C112.673 37.3324 112.773 37.4317 112.972 37.4317H120.292C120.491 37.4317 120.591 37.3324 120.591 37.1338V36.9848C120.591 36.811 120.491 36.7117 120.292 36.6869H118.499V1.6795C118.499 1.5057 118.4 1.40639 118.2 1.38156H112.972C112.798 1.38156 112.698 1.48087 112.673 1.6795V1.82846C112.673 2.02709 112.773 2.1264 112.972 2.1264H114.765Z" fill="#22292A"/>
<path fill-rule="evenodd" clip-rule="evenodd" d="M107.963 22.6095C107.963 21.6609 107.863 20.9391 107.651 20.462L107.649 20.4573C106.358 17.8083 104.756 15.8117 102.837 14.4774C100.917 13.1421 98.6885 12.4761 96.1578 12.4761H95.7096C94.671 12.4761 93.3625 12.6779 91.788 13.0767L91.7739 13.0802L91.7608 13.0864C89.0049 14.373 86.9274 15.9831 85.5391 17.9214C84.1496 19.8612 83.4565 22.1212 83.4565 24.695V25.1419C83.4565 26.1777 83.6589 27.4825 84.0588 29.0526L84.0624 29.0667L84.0685 29.0798C85.3588 31.828 86.9734 33.8996 88.9171 35.2841C90.8623 36.6697 93.1286 37.3609 95.7096 37.3609H95.8512C95.8607 37.3151 95.8699 37.2694 95.8788 37.2237C96.0755 36.2126 96.0981 35.3637 95.9531 34.6682C94.9882 34.2787 93.9958 33.6985 92.9757 32.9247C90.1589 29.7742 88.6991 27.0287 88.5501 24.6834L107.963 22.7475V22.6095ZM88.244 22.4605C88.244 21.6455 88.2937 21.0121 88.3901 20.5554L88.3907 20.5524C88.8236 18.283 89.5562 16.6006 90.5755 15.4874C91.59 14.3793 92.8986 13.824 94.5145 13.824C98.6564 13.824 101.874 16.5682 104.15 22.1639C102.738 22.2141 97.4738 22.656 88.3713 23.4871L88.244 22.5986V22.4605Z" fill="#22292A"/>
<path d="M97.4432 35.123C97.5268 35.7979 97.5122 36.5289 97.4059 37.305C99.3901 37.1238 101.17 36.5012 102.742 35.4351C104.636 34.1509 106.22 32.229 107.498 29.6792L107.703 29.3095H105.009L104.975 29.4157C104.345 31.3877 103.515 32.8513 102.494 33.8206C101.477 34.7864 100.264 35.2682 98.8467 35.2682C98.3858 35.2682 97.918 35.2199 97.4432 35.123Z" fill="#22292A"/>
<path fill-rule="evenodd" clip-rule="evenodd" d="M44.7709 13.2534H43.3783C43.2551 13.2534 43.1346 13.2226 43.046 13.1343C42.9574 13.0459 42.9265 12.9258 42.9265 12.803V12.6445L42.9277 12.6351C42.9426 12.516 42.9825 12.4046 43.0647 12.3227C43.1497 12.2379 43.2607 12.2035 43.3783 12.2035H50.7076L50.717 12.2047C50.8364 12.2196 50.9481 12.2593 51.0303 12.3413C51.1153 12.426 51.1498 12.5368 51.1498 12.654V12.803C51.1498 12.9358 51.055 13.0196 50.9674 13.0672C50.8775 13.1161 50.7559 13.1507 50.6134 13.1765C50.3687 13.2209 50.027 13.2454 49.5922 13.2518C53.6408 21.9769 56.3224 27.8582 57.636 30.8939C58.138 29.4059 58.5904 28.0556 58.9935 26.8428L59.0971 26.5309L59.9619 27.9398L59.94 28.0068C58.875 31.2596 58.0572 33.7094 57.4868 35.3557C57.2017 36.1786 56.9779 36.802 56.8157 37.225C56.7348 37.4362 56.6683 37.5995 56.6168 37.7135C56.5912 37.7701 56.5678 37.8176 56.5471 37.8536C56.5369 37.8715 56.5255 37.8897 56.513 37.9059C56.5043 37.9172 56.4809 37.9471 56.4431 37.966L56.4108 37.9821H55.8904L55.8581 37.966C55.8049 37.9394 55.7584 37.8932 55.72 37.8486C55.6787 37.8006 55.634 37.7391 55.5862 37.6664C55.4904 37.5207 55.3749 37.3186 55.2402 37.0624C54.9703 36.5493 54.6172 35.8073 54.1811 34.8381C53.3091 32.9003 52.1018 30.0456 50.5594 26.2749C49.7598 24.7777 47.8292 20.4336 44.7709 13.2534ZM70.0496 37.9821L70.004 37.9312C69.9597 37.8818 69.9028 37.7908 69.8379 37.6766C69.7703 37.5575 69.6863 37.3995 69.5871 37.2052C69.3885 36.8163 69.1267 36.2771 68.8088 35.6034C68.1728 34.2557 67.3108 32.3657 66.2788 30.0538L66.2461 29.9805L69.2485 25.0892L69.3664 25.3558C70.3973 27.6865 71.3228 29.7752 71.8603 30.9734H71.9347C71.9505 30.9106 71.9737 30.8261 72.004 30.7208C72.0651 30.5082 72.1565 30.206 72.278 29.8146C72.521 29.0317 72.8853 27.8889 73.3709 26.3867C74.331 23.4162 75.7656 19.0384 77.6746 13.2534H76.3921C76.2689 13.2534 76.1485 13.2226 76.0599 13.1343C75.9713 13.0459 75.9404 12.9258 75.9404 12.803V12.6445L75.9416 12.6351C75.9565 12.516 75.9963 12.4046 76.0785 12.3227C76.1635 12.2379 76.2746 12.2035 76.3921 12.2035H80.1362L80.1457 12.2047C80.265 12.2196 80.3767 12.2593 80.4589 12.3413C80.5439 12.426 80.5784 12.5368 80.5784 12.654V12.803C80.5784 12.9258 80.5475 13.0459 80.4589 13.1343C80.3703 13.2226 80.2499 13.2534 80.1267 13.2534H78.9018C78.4842 14.8585 75.8015 23.0722 70.8607 37.8777L70.8258 37.9821H70.0496Z" fill="#22292A"/>
<path d="M29.1815 12.6287H29.6297C34.6341 12.6287 38.4184 15.2604 40.9829 20.5239C41.1821 20.9708 41.2816 21.666 41.2816 22.6095L21.8617 24.5461C21.9613 26.9792 23.4552 29.8096 26.3432 33.0372C28.4346 34.6262 30.4264 35.4207 32.3186 35.4207C35.2316 35.4207 37.323 33.4345 38.5927 29.462H40.5347L40.8335 29.611C38.294 34.6759 34.5594 37.2083 29.6297 37.2083H29.1815C24.0776 37.2083 20.2434 34.4772 17.679 29.0151C17.2806 27.4509 17.0814 26.1599 17.0814 25.1419V24.695C17.0814 19.6053 19.8201 15.7818 25.2976 13.2245C26.8661 12.8273 28.1607 12.6287 29.1815 12.6287ZM21.563 22.4605V22.6095L21.7123 23.6523C31.497 22.7585 36.8748 22.3115 37.8458 22.3115C35.5553 16.5515 32.2688 13.6714 27.9865 13.6714C24.6751 13.6714 22.5837 15.9556 21.7123 20.5239C21.6128 20.9957 21.563 21.6412 21.563 22.4605Z" fill="#22292A"/>
<path fill-rule="evenodd" clip-rule="evenodd" d="M41.1227 20.462C41.3353 20.9391 41.4346 21.6609 41.4346 22.6095V22.7475L22.0221 24.6834C22.171 27.0287 23.6308 29.7742 26.4476 32.9247C28.5182 34.4953 30.4742 35.2682 32.3186 35.2682C33.7362 35.2682 34.9494 34.7864 35.9664 33.8206C36.987 32.8513 37.8166 31.3877 38.447 29.4157L38.4809 29.3095H41.1735L40.9703 29.6792C39.6918 32.229 38.1077 34.1509 36.2139 35.4351C34.3189 36.7201 32.1223 37.3609 29.6297 37.3609H29.1815C26.6005 37.3609 24.3342 36.6697 22.389 35.2841C20.4453 33.8996 18.5182 31.9927 17.5404 29.0798C17.0451 27.6041 16.9285 26.1777 16.9285 25.1419V24.695C16.9285 22.1212 17.6215 19.8612 19.011 17.9214C20.3994 15.9831 22.4768 14.373 25.2327 13.0864L25.2458 13.0802L25.2599 13.0767C26.8345 12.6779 28.1429 12.4761 29.1815 12.4761H29.6297C32.1604 12.4761 34.3887 13.1421 36.3088 14.4774C38.2274 15.8117 39.8299 17.8083 41.1205 20.4573L41.1227 20.462ZM26.3432 33.0372C23.4552 29.8096 21.9613 26.9792 21.8617 24.5461L41.2816 22.6095C41.2816 21.666 41.1821 20.9708 40.9829 20.5239C38.4184 15.2604 34.6341 12.6287 29.6297 12.6287H29.1815C28.1607 12.6287 26.8661 12.8273 25.2976 13.2245C19.8201 15.7818 17.0814 19.6053 17.0814 24.695V25.1419C17.0814 26.1599 17.2806 27.4509 17.679 29.0151C20.2434 34.4772 24.0776 37.2083 29.1815 37.2083H29.6297C34.515 37.2083 38.2266 34.7213 40.7646 29.7472C40.7876 29.702 40.8106 29.6565 40.8335 29.611L40.5347 29.462H38.5927C37.323 33.4345 35.2316 35.4207 32.3186 35.4207C30.4264 35.4207 28.4346 34.6262 26.3432 33.0372ZM21.862 20.5554C21.7656 21.0121 21.7159 21.6455 21.7159 22.4605V22.5986L21.8432 23.4871C30.9457 22.656 36.2103 22.2141 37.6216 22.1639C35.3463 16.5682 32.1283 13.824 27.9865 13.824C26.3705 13.824 25.062 14.3793 24.0474 15.4874C23.0281 16.6006 22.2955 18.283 21.8626 20.5524L21.862 20.5554ZM37.7848 22.1595C35.4971 16.5008 32.231 13.6714 27.9865 13.6714C24.6751 13.6714 22.5837 15.9556 21.7123 20.5239C21.6128 20.9957 21.563 21.6412 21.563 22.4605V22.6095L21.7123 23.6523C31.0433 22.7999 36.3667 22.3539 37.6823 22.3144C37.7463 22.3125 37.8008 22.3115 37.8458 22.3115C37.8256 22.2606 37.8052 22.21 37.7848 22.1595Z" fill="#22292A"/>
<path d="M3.68334 0.152543H11.3019C11.5011 0.177371 11.6007 0.276682 11.6007 0.450478C11.6007 0.649101 11.5011 0.748413 11.3019 0.748413H9.35993V34.2661C9.35993 40.195 4.63764 42.7573 2.63765 43.4974C2.01237 43.8 0.396893 44.098 0.396893 44.098L0.247509 43.8C0.629932 43.8 1.39478 43.6272 2.63765 42.7573C4.62944 40.9945 5.62533 38.462 5.62533 35.1599V0.748413H3.68334C3.48416 0.748413 3.38457 0.649101 3.38457 0.450478C3.40947 0.251854 3.50906 0.152543 3.68334 0.152543Z" fill="#22292A"/>
<path fill-rule="evenodd" clip-rule="evenodd" d="M11.3114 0L11.3209 0.00117796C11.4403 0.0160575 11.552 0.0558105 11.6342 0.137783C11.7191 0.22252 11.7537 0.333304 11.7537 0.450478C11.7537 0.573303 11.7228 0.69344 11.6342 0.781793C11.5456 0.870146 11.4251 0.900956 11.3019 0.900956H9.5129V34.2661C9.5129 40.2872 4.71986 42.8877 2.69768 43.6379C2.36625 43.7966 1.79415 43.9487 1.31759 44.0597C1.07475 44.1163 0.851769 44.1633 0.689534 44.1962C0.608382 44.2126 0.542344 44.2255 0.496521 44.2344L0.443563 44.2444L0.429636 44.2471L0.426019 44.2477L0.425073 44.2479L0.396893 44.098C0.396893 44.098 2.01237 43.8 2.63765 43.4974C4.63764 42.7573 9.35993 40.195 9.35993 34.2661V0.748413H11.3019C11.5011 0.748413 11.6007 0.649101 11.6007 0.450478C11.6007 0.276682 11.5011 0.177371 11.3019 0.152543H3.68334C3.50906 0.152543 3.40947 0.251854 3.38457 0.450478C3.38457 0.649101 3.48416 0.748413 3.68334 0.748413H5.62533V35.1599C5.62533 38.462 4.62944 40.9945 2.63765 42.7573C1.55416 43.5157 0.833962 43.7443 0.413705 43.7904C0.351883 43.7972 0.296551 43.8 0.247509 43.8L0.396893 44.098L0.425073 44.2479L0.311542 44.2688L0 43.6475H0.247509C0.585753 43.6475 1.31774 43.4934 2.54262 42.6374C4.48967 40.9106 5.47236 38.4262 5.47236 35.1599V0.900956H3.68334C3.56017 0.900956 3.4397 0.870146 3.3511 0.781793C3.2625 0.69344 3.2316 0.573303 3.2316 0.450478V0.440981L3.23278 0.431557C3.2477 0.312521 3.28757 0.201135 3.36977 0.119163C3.45474 0.0344259 3.56584 0 3.68334 0H11.3114Z" fill="#22292A"/>
<path d="M72.8678 14.2148L65.6768 25.6999L69.7036 16.569L72.8678 14.2148Z" fill="#56EBFF"/>
<path d="M73.6764 12.3311L72.1699 10.2388L68.5252 12.137L69.5664 15.389L73.6764 12.3311Z" fill="url(#paint0_radial_2_502)"/>
<path d="M59.9149 12.3937L58.8564 15.7024H68.6099L67.5505 12.3937H59.9149Z" fill="url(#paint1_radial_2_502)"/>
<path d="M54.5951 14.2151L61.7819 25.6935L57.7588 16.569L54.5951 14.2151Z" fill="url(#paint2_linear_2_502)"/>
<path d="M53.7881 12.3313L55.2953 10.2381L58.9385 12.1355L57.8977 15.3889L53.7881 12.3313Z" fill="url(#paint3_linear_2_502)"/>
<path d="M58.9406 16.7469H68.5213L63.7304 27.6104L58.9406 16.7469Z" fill="url(#paint4_linear_2_502)"/>
<path d="M71.2552 9.54942L67.8572 7.77972H59.6171L56.2202 9.54888L59.6774 11.3494H67.7991L71.2552 9.54942Z" fill="url(#paint5_radial_2_502)"/>
<defs>
<radialGradient id="paint0_radial_2_502" cx="0" cy="0" r="1" gradientUnits="userSpaceOnUse" gradientTransform="translate(63.7334 12.356) rotate(33.6163) scale(5.51065 3.66982)">
<stop stop-color="#51FFF5"/>
<stop offset="1" stop-color="#1DCCEE"/>
</radialGradient>
<radialGradient id="paint1_radial_2_502" cx="0" cy="0" r="1" gradientUnits="userSpaceOnUse" gradientTransform="translate(63.7334 12.356) rotate(33.6163) scale(5.51065 3.66982)">
<stop stop-color="#51FFF5"/>
<stop offset="1" stop-color="#1DCCEE"/>
</radialGradient>
<linearGradient id="paint2_linear_2_502" x1="53.7881" y1="14.2628" x2="66.7718" y2="21.9217" gradientUnits="userSpaceOnUse">
<stop stop-color="#00A4C8"/>
<stop offset="0.570185" stop-color="#27C5E4"/>
<stop offset="1" stop-color="#6AEDFF"/>
</linearGradient>
<linearGradient id="paint3_linear_2_502" x1="53.7881" y1="14.2628" x2="66.7718" y2="21.9217" gradientUnits="userSpaceOnUse">
<stop stop-color="#00A4C8"/>
<stop offset="0.570185" stop-color="#27C5E4"/>
<stop offset="1" stop-color="#6AEDFF"/>
</linearGradient>
<linearGradient id="paint4_linear_2_502" x1="53.7881" y1="14.2628" x2="66.7718" y2="21.9217" gradientUnits="userSpaceOnUse">
<stop stop-color="#00A4C8"/>
<stop offset="0.570185" stop-color="#27C5E4"/>
<stop offset="1" stop-color="#6AEDFF"/>
</linearGradient>
<radialGradient id="paint5_radial_2_502" cx="0" cy="0" r="1" gradientUnits="userSpaceOnUse" gradientTransform="translate(63.7371 11.2119) rotate(-90) scale(4.57628 10.3281)">
<stop stop-color="#51FFF5"/>
<stop offset="1" stop-color="#00C6E1"/>
</radialGradient>
</defs>
</svg>
