<svg width="128" height="24" viewBox="0 0 128 24" fill="none" xmlns="http://www.w3.org/2000/svg">
<g clip-path="url(#clip0_474_2484)">
<path fill-rule="evenodd" clip-rule="evenodd" d="M128 0H0V24H128V0ZM14.4596 9.18806L21 9.61806L15.9819 13.8729L17.6262 20.3272L11.9964 16.7686L6.36663 20.3272L8.01096 13.8729L3 9.61806L9.53326 9.18806L11.9964 3L14.4596 9.18806ZM47 9.61806L40.4596 9.18806L37.9964 3L35.5333 9.18806L29 9.61806L34.011 13.8729L32.3666 20.3272L37.9964 16.7686L43.6262 20.3272L41.9819 13.8729L47 9.61806ZM66.4596 9.18806L73 9.61806L67.9819 13.8729L69.6262 20.3272L63.9964 16.7686L58.3666 20.3272L60.011 13.8729L55 9.61806L61.5333 9.18806L63.9964 3L66.4596 9.18806ZM99 9.61806L92.4596 9.18806L89.9964 3L87.5333 9.18806L81 9.61806L86.011 13.8729L84.3666 20.3272L89.9964 16.7686L95.6262 20.3272L93.9819 13.8729L99 9.61806ZM118.46 9.18806L125 9.61806L119.982 13.8729L121.626 20.3272L115.996 16.7686L110.367 20.3272L112.011 13.8729L107 9.61806L113.533 9.18806L115.996 3L118.46 9.18806Z" fill="white"/>
<path d="M13.995 9.37298L14.1118 9.66628L14.4268 9.68699L19.7341 10.0359L15.6585 13.4915L15.4202 13.6936L15.4974 13.9963L16.8316 19.2334L12.2636 16.346L11.9964 16.1771L11.7293 16.346L7.16126 19.2334L8.49548 13.9963L8.57256 13.6938L8.33459 13.4917L4.26461 10.0359L9.5661 9.68698L9.88107 9.66625L9.99781 9.37298L11.9964 4.35198L13.995 9.37298Z" stroke="#00C5E0"/>
<path d="M39.995 9.37298L40.1118 9.66628L40.4268 9.68699L45.7341 10.0359L41.6585 13.4915L41.4202 13.6936L41.4974 13.9963L42.8316 19.2334L38.2636 16.346L37.9964 16.1771L37.7293 16.346L33.1613 19.2334L34.4955 13.9963L34.5726 13.6938L34.3346 13.4917L30.2646 10.0359L35.5661 9.68698L35.8811 9.66625L35.9978 9.37298L37.9964 4.35198L39.995 9.37298Z" stroke="#00C5E0"/>
<path d="M65.995 9.37298L66.1118 9.66628L66.4268 9.68699L71.7341 10.0359L67.6585 13.4915L67.4202 13.6936L67.4974 13.9963L68.8316 19.2334L64.2636 16.346L63.9964 16.1771L63.7293 16.346L59.1613 19.2334L60.4955 13.9963L60.5726 13.6938L60.3346 13.4917L56.2646 10.0359L61.5661 9.68698L61.8811 9.66625L61.9978 9.37298L63.9964 4.35198L65.995 9.37298Z" stroke="#00C5E0"/>
<path d="M91.995 9.37298L92.1118 9.66628L92.4268 9.68699L97.7341 10.0359L93.6585 13.4915L93.4202 13.6936L93.4974 13.9963L94.8316 19.2334L90.2636 16.346L89.9964 16.1771L89.7293 16.346L85.1613 19.2334L86.4955 13.9963L86.5726 13.6938L86.3346 13.4917L82.2646 10.0359L87.5661 9.68698L87.8811 9.66625L87.9978 9.37298L89.9964 4.35198L91.995 9.37298Z" stroke="#00C5E0"/>
<path d="M117.995 9.37298L118.112 9.66628L118.427 9.68699L123.734 10.0359L119.659 13.4915L119.42 13.6936L119.497 13.9963L120.832 19.2334L116.264 16.346L115.996 16.1771L115.729 16.346L111.161 19.2334L112.495 13.9963L112.573 13.6938L112.335 13.4917L108.265 10.0359L113.566 9.68698L113.881 9.66625L113.998 9.37298L115.996 4.35198L117.995 9.37298Z" stroke="#00C5E0"/>
</g>
<defs>
<clipPath id="clip0_474_2484">
<rect width="128" height="24" fill="white"/>
</clipPath>
</defs>
</svg>
