<svg width="24" height="24" viewBox="0 0 24 24" fill="none" xmlns="http://www.w3.org/2000/svg">
<path d="M19.9154 13.3717C19.373 16.6969 16.8925 19.2397 13.5939 19.8621C11.7802 20.2088 10.0643 19.9332 8.57947 19.2397C8.33053 19.1153 7.93931 19.0708 7.67258 19.1241C7.12135 19.2575 6.17893 19.4887 5.38764 19.6665C4.62302 19.8532 4.15179 19.382 4.34739 18.6263L4.88975 16.3502C4.95199 16.0835 4.88975 15.6834 4.77417 15.4344C4.09846 14.0208 3.83173 12.376 4.10735 10.6511C4.6408 7.3437 7.32586 4.65864 10.6422 4.1074C16.119 3.2272 20.7867 7.88604 19.8887 13.3628L19.9154 13.3717Z" stroke="#00C5E0" stroke-width="1.5" stroke-linecap="round" stroke-linejoin="round"/>
</svg>
