<svg width="24" height="24" viewBox="0 0 24 24" fill="none" xmlns="http://www.w3.org/2000/svg">
<path d="M9.30413 13.418C9.22153 13.418 7.40426 13.418 6.57822 13.418C6.13767 13.418 6 13.2528 6 12.8398C6 11.7384 6 10.6095 6 9.50813C6 9.06758 6.16521 8.92991 6.57822 8.92991H9.30413C9.30413 8.84731 9.30413 7.25031 9.30413 6.50688C9.30413 5.40551 9.49687 4.3592 10.0476 3.39549C10.6258 2.40425 11.4518 1.74343 12.4981 1.35795C13.1865 1.11014 13.8748 1 14.6183 1H17.3166C17.7021 1 17.8673 1.16521 17.8673 1.55069V4.68961C17.8673 5.07509 17.7021 5.2403 17.3166 5.2403C16.5732 5.2403 15.8298 5.2403 15.0864 5.26783C14.3429 5.26783 13.9574 5.62578 13.9574 6.39675C13.9299 7.22278 13.9574 8.02128 13.9574 8.87484H17.1514C17.592 8.87484 17.7572 9.04005 17.7572 9.4806V12.8123C17.7572 13.2528 17.6195 13.3905 17.1514 13.3905C16.1602 13.3905 14.04 13.3905 13.9574 13.3905V22.3667C13.9574 22.8348 13.8198 23 13.3242 23C12.1677 23 11.0388 23 9.88235 23C9.46934 23 9.30413 22.8348 9.30413 22.4218C9.30413 19.5307 9.30413 13.5006 9.30413 13.418Z" fill="black"/>
</svg>
