<svg width="24" height="24" viewBox="0 0 24 24" fill="none" xmlns="http://www.w3.org/2000/svg">
<path d="M21.3184 6.5085C20.0609 6.5085 18.9006 6.09192 17.9689 5.38916C16.9004 4.58354 16.1326 3.40179 15.8615 2.03973C15.7944 1.70319 15.7582 1.3559 15.7548 1H12.1626V10.8155L12.1583 16.1918C12.1583 17.6292 11.2223 18.848 9.92481 19.2766C9.54825 19.401 9.14157 19.4599 8.7181 19.4367C8.17758 19.407 7.67106 19.2439 7.23081 18.9805C6.29393 18.4202 5.65873 17.4037 5.64152 16.2409C5.61441 14.4235 7.08363 12.9418 8.89971 12.9418C9.25819 12.9418 9.60247 13.0004 9.92481 13.1066V10.4238V9.45942C9.58483 9.40907 9.23883 9.38282 8.88895 9.38282C6.90116 9.38282 5.04204 10.2091 3.71311 11.6977C2.70867 12.8226 2.10618 14.2578 2.01322 15.7628C1.89143 17.7398 2.61486 19.6192 4.0178 21.0058C4.22394 21.2093 4.44041 21.3982 4.66677 21.5725C5.8696 22.4982 7.34012 23 8.88895 23C9.23883 23 9.58483 22.9742 9.92481 22.9238C11.3716 22.7095 12.7066 22.0472 13.7601 21.0058C15.0546 19.7263 15.7698 18.0277 15.7776 16.2198L15.7591 8.19117C16.3766 8.66757 17.0519 9.06178 17.7766 9.36775C18.9037 9.84329 20.0987 10.0843 21.3287 10.0839V7.4755V6.50764C21.3296 6.5085 21.3192 6.5085 21.3184 6.5085Z" fill="black"/>
</svg>
