<svg width="24" height="24" viewBox="0 0 24 24" fill="none" xmlns="http://www.w3.org/2000/svg">
<path d="M13.0757 0C6.49656 0.00100001 2.99951 4.21606 2.99951 8.81213C2.99951 10.9432 4.19053 13.6022 6.09756 14.4452C6.64156 14.6902 6.56956 14.3912 7.03757 12.6012C7.07457 12.4522 7.05557 12.3232 6.93557 12.1842C4.20953 9.03113 6.40356 2.54904 12.6866 2.54904C21.7798 2.54904 20.0808 15.1312 14.2687 15.1312C12.7706 15.1312 11.6546 13.9552 12.0076 12.5002C12.4356 10.7672 13.2737 8.90413 13.2737 7.65511C13.2737 4.50706 8.58359 4.97407 8.58359 9.14513C8.58359 10.4341 9.0396 11.3042 9.0396 11.3042C9.0396 11.3042 7.53058 17.4002 7.25057 18.5393C6.77657 20.4673 7.31457 23.5883 7.36157 23.8573C7.39057 24.0053 7.55658 24.0523 7.64958 23.9303C7.79858 23.7353 9.62261 21.1333 10.1336 19.2523C10.3196 18.5673 11.0826 15.7872 11.0826 15.7872C11.5856 16.6952 13.0357 17.4552 14.5807 17.4552C19.1767 17.4552 22.4988 13.4152 22.4988 8.40212C22.4828 3.59605 18.3697 0 13.0757 0V0Z" fill="black"/>
</svg>
