<svg width="24" height="24" viewBox="0 0 24 24" fill="none" xmlns="http://www.w3.org/2000/svg">
<path d="M22.9441 7.46931C22.8925 6.30014 22.7035 5.49635 22.4326 4.79985C22.1532 4.06053 21.7234 3.39862 21.1602 2.84838C20.6099 2.28956 19.9437 1.85534 19.2129 1.5803C18.5124 1.30946 17.7128 1.12039 16.5436 1.06884C15.3657 1.01293 14.9918 1 12.0043 1C9.01679 1 8.64285 1.01293 7.46931 1.06448C6.30014 1.11603 5.49635 1.30526 4.80002 1.57594C4.06053 1.85534 3.39862 2.2852 2.84838 2.84838C2.28956 3.39862 1.85551 4.0649 1.5803 4.79565C1.30946 5.49635 1.12039 6.29578 1.06884 7.46495C1.01293 8.64285 1 9.01679 1 12.0043C1 14.9918 1.01293 15.3657 1.06448 16.5392C1.11603 17.7084 1.30526 18.5122 1.57611 19.2087C1.85551 19.948 2.28956 20.6099 2.84838 21.1602C3.39862 21.719 4.0649 22.1532 4.79565 22.4283C5.49635 22.6991 6.29578 22.8882 7.46512 22.9397C8.63849 22.9914 9.01259 23.0042 12.0001 23.0042C14.9876 23.0042 15.3615 22.9914 16.5351 22.9397C17.7042 22.8882 18.508 22.6991 19.2043 22.4283C20.6832 21.8565 21.8523 20.6873 22.4241 19.2087C22.6947 18.508 22.884 17.7084 22.9355 16.5392C22.9871 15.3657 23 14.9918 23 12.0043C23 9.01679 22.9956 8.64285 22.9441 7.46931ZM20.9626 16.4533C20.9152 17.5279 20.7347 18.1082 20.5842 18.4951C20.2145 19.4537 19.4537 20.2145 18.4951 20.5842C18.1082 20.7347 17.5237 20.9152 16.4533 20.9624C15.2927 21.0141 14.9446 21.0269 12.0086 21.0269C9.07271 21.0269 8.72026 21.0141 7.56385 20.9624C6.48921 20.9152 5.90891 20.7347 5.52204 20.5842C5.045 20.4079 4.61078 20.1285 4.25833 19.7632C3.89296 19.4063 3.61355 18.9765 3.43724 18.4995C3.28679 18.1126 3.10629 17.5279 3.05911 16.4576C3.00739 15.297 2.99463 14.9488 2.99463 12.0128C2.99463 9.0769 3.00739 8.72446 3.05911 7.56821C3.10629 6.49358 3.28679 5.91327 3.43724 5.5264C3.61355 5.0492 3.89296 4.61515 4.2627 4.26253C4.61934 3.89715 5.0492 3.61775 5.5264 3.44161C5.91327 3.29116 6.49794 3.11065 7.56821 3.0633C8.72882 3.01175 9.07707 2.99882 12.0128 2.99882C14.9532 2.99882 15.3012 3.01175 16.4576 3.0633C17.5323 3.11065 18.1126 3.29116 18.4995 3.44161C18.9765 3.61775 19.4107 3.89715 19.7632 4.26253C20.1285 4.61934 20.4079 5.0492 20.5842 5.5264C20.7347 5.91327 20.9152 6.49777 20.9626 7.56821C21.0141 8.72882 21.027 9.0769 21.027 12.0128C21.027 14.9488 21.0141 15.2927 20.9626 16.4533Z" fill="black"/>
<path d="M12.0042 6.35205C8.88351 6.35205 6.35156 8.88383 6.35156 12.0046C6.35156 15.1255 8.88351 17.6572 12.0042 17.6572C15.125 17.6572 17.6567 15.1255 17.6567 12.0046C17.6567 8.88383 15.125 6.35205 12.0042 6.35205ZM12.0042 15.6713C9.97964 15.6713 8.33746 14.0293 8.33746 12.0046C8.33746 9.97996 9.97964 8.33795 12.0042 8.33795C14.0288 8.33795 15.6708 9.97996 15.6708 12.0046C15.6708 14.0293 14.0288 15.6713 12.0042 15.6713Z" fill="black"/>
<path d="M19.2 6.12821C19.2 6.85695 18.6091 7.44783 17.8802 7.44783C17.1514 7.44783 16.5605 6.85695 16.5605 6.12821C16.5605 5.39931 17.1514 4.80859 17.8802 4.80859C18.6091 4.80859 19.2 5.39931 19.2 6.12821Z" fill="black"/>
</svg>
