<svg width="95" height="124" viewBox="0 0 95 124" fill="none" xmlns="http://www.w3.org/2000/svg">
<path d="M68.4247 39.709L68.5544 40.1929L68.8631 39.7984C70.0591 38.2699 71.7403 37.1027 73.7549 36.5629C78.6929 35.2398 83.787 38.1808 85.1101 43.1188L93.1275 73.0399C98.7989 94.2059 86.1931 116.04 65.0271 121.711C56.1903 124.079 46.738 123.313 38.4119 119.555C37.5793 119.179 37.2088 118.2 37.5846 117.367C37.9608 116.534 38.9404 116.164 39.7732 116.539C47.4054 119.985 56.0696 120.686 64.1708 118.516C83.575 113.316 95.131 93.3005 89.9316 73.8962L87.4002 64.449L87.2706 63.9651L86.9619 64.3597C85.7659 65.8881 84.0846 67.0553 82.07 67.5952C79.1441 68.3792 76.1634 67.6659 73.944 65.9261L73.682 65.7208L73.5578 66.0296C72.5056 68.646 70.2809 70.754 67.355 71.538C64.4291 72.322 61.4482 71.6088 59.2288 69.869L58.9668 69.6637L58.8426 69.9725C57.7905 72.5889 55.5656 74.697 52.6397 75.481C48.3154 76.6397 43.8708 74.5278 41.9447 70.6679L41.8536 70.4852L41.6563 70.5381L30.4348 73.5449L30.1933 73.6096L30.258 73.8511L31.4852 78.4312C32.1116 80.7688 34.0673 82.4838 36.4667 82.7997L48.9153 84.4727L48.916 84.4728C58.773 85.7705 66.8083 92.8173 69.3829 102.426C69.6194 103.308 69.0959 104.215 68.2132 104.452C67.3305 104.688 66.4235 104.165 66.1871 103.282C63.9603 94.9717 57.0091 88.8755 48.479 87.7525L36.0304 86.0795L36.0298 86.0794C32.3035 85.5889 29.2635 82.9232 28.2894 79.2875L26.5693 72.868C26.3328 71.9855 26.8563 71.0784 27.739 70.8419L42.4543 66.899C45.6302 66.048 47.5217 62.7722 46.6707 59.5959C45.8196 56.4197 42.5436 54.5285 39.3676 55.3795L24.6524 59.3225C17.4194 61.2606 13.1117 68.7214 15.0498 75.9546L19.5513 92.7546C21.722 100.856 26.6619 108.009 33.4618 112.895C34.2036 113.428 34.3726 114.462 33.8394 115.204L33.8394 115.204C33.6077 115.527 33.2814 115.741 32.9252 115.836C32.4618 115.96 31.9497 115.883 31.5304 115.582C24.1126 110.251 18.7233 102.448 16.3555 93.6109L11.8539 76.8109C9.60811 68.4294 14.1086 59.8028 22.011 56.7156L22.2194 56.6342L22.1615 56.418L20.2284 49.2034L23.4312 48.3731L25.3293 55.457L25.394 55.6985L25.6355 55.6338L36.6719 52.6766L36.9134 52.6119L36.8487 52.3704L24.9541 7.97928C24.103 4.80304 20.8271 2.91187 17.6511 3.76287C14.4752 4.61388 12.5837 7.88964 13.4347 11.0659L21.7362 42.0473L18.4397 42.5281L10.2389 11.9222C8.91576 6.98421 11.8568 1.89015 16.7948 0.567016C21.7328 -0.756119 26.8269 2.18494 28.15 7.12295L36.0372 36.5584L36.1669 37.0423L36.4756 36.6478C37.6716 35.1193 39.3528 33.9521 41.3674 33.4123C45.2089 32.3829 49.1452 33.935 51.327 37.0014L51.5384 37.2985L51.7394 36.9941C52.9451 35.1677 54.794 33.7576 57.0684 33.1481C62.0063 31.825 67.1002 34.766 68.4247 39.709ZM45.2704 69.3198L45.0345 69.4455L45.1757 69.6725C46.5264 71.8438 49.1874 72.9807 51.7834 72.2851C54.9594 71.4341 56.8508 68.1584 55.9998 64.9821L49.5268 40.8245C48.6757 37.6483 45.3997 35.7571 42.2238 36.6081C39.0478 37.4591 37.1563 40.7349 38.0074 43.9111L40.0942 51.6992L40.147 51.8964L40.3508 51.884C44.6566 51.6221 48.7078 54.4153 49.8665 58.7396C51.0031 62.9814 48.9912 67.3371 45.2704 69.3198ZM59.1956 64.1258C60.0467 67.302 63.3227 69.1932 66.4986 68.3422C69.6746 67.4912 71.566 64.2154 70.715 61.0392L65.2277 40.5604C64.3766 37.3842 61.1007 35.493 57.9248 36.344C54.7488 37.195 52.8573 40.4708 53.7084 43.647L59.1956 64.1258ZM73.9107 60.1829C74.7617 63.3591 78.0377 65.2503 81.2137 64.3993C84.3897 63.5483 86.2811 60.2725 85.4301 57.0963L81.9143 43.9752C81.0632 40.7989 77.7872 38.9078 74.6113 39.7588C71.4353 40.6098 69.5438 43.8855 70.3949 47.0618L73.9107 60.1829Z" fill="#22292A" stroke="#FAFAFA" stroke-width="0.5"/>
<path d="M33.7197 22.7431C37.3811 22.5741 40.6364 22.8897 43.1533 23.6371C46.0252 24.4898 47.8535 25.8766 48.3319 27.662C48.492 28.2595 49.1089 28.6141 49.7086 28.4534C50.3083 28.2927 50.6654 27.6774 50.5053 27.0796C49.823 24.5336 47.5187 22.7024 44.2312 21.618C41.2737 20.6424 37.4745 20.253 33.2016 20.4978L33.7197 22.7431Z" fill="#00C5E0"/>
<path d="M12.3267 25.9924C8.41981 27.9079 5.24148 30.1486 3.09189 32.4839C0.658165 35.1279 -0.498282 37.9437 0.202299 40.5583C0.89527 43.1445 3.26186 44.9913 6.63352 46.0675C10.0119 47.1459 14.4589 47.4734 19.443 46.9815L19.4441 46.9814L21.3314 46.8114L21.3436 46.8104L21.3558 46.8083L24.3167 46.2906L24.3106 46.268C25.3543 46.0667 26.4132 45.8324 27.4832 45.5643L25.73 48.5858C25.4193 49.1217 25.6022 49.8096 26.1402 50.1169C26.4081 50.2709 26.7151 50.302 26.9941 50.2272C27.2689 50.1536 27.5218 49.9777 27.6787 49.7043L31.3454 43.3837L25.0096 39.7447C24.4729 39.4381 23.7846 39.622 23.4731 40.1559C23.1623 40.6917 23.3457 41.3806 23.8837 41.688L26.8755 43.4055C25.8008 43.6726 24.7338 43.9036 23.6804 44.0995L20.8175 44.5476L18.3403 44.8059C14.104 45.1308 10.3335 44.8313 7.50537 43.9831C4.66106 43.13 2.85133 41.7499 2.37597 39.9759C1.88324 38.137 2.8434 35.9478 5.03604 33.7067C6.91609 31.7853 9.65641 29.8763 12.9881 28.1972L12.3267 25.9924Z" fill="#00C5E0"/>
</svg>
