<svg width="94" height="123" viewBox="0 0 94 123" fill="none" xmlns="http://www.w3.org/2000/svg">
<path fill-rule="evenodd" clip-rule="evenodd" d="M39.9262 0H56.0738L64.3888 4.108L69 10.1831L48 42L27 10.1831L31.6112 4.108L39.9262 0ZM40.5374 2.55859L33.316 6.12635L30.159 10.2856L48 37.3162L65.841 10.2856L62.684 6.12635L55.4626 2.55859H40.5374Z" fill="#22292A"/>
<path fill-rule="evenodd" clip-rule="evenodd" d="M27.9325 11.3423L29.2265 9.12605L40.1469 15.3513H55.8531L66.7735 9.12605L68.0675 11.3423L56.5465 17.9099H39.4535L27.9325 11.3423Z" fill="#22292A"/>
<path fill-rule="evenodd" clip-rule="evenodd" d="M31.9947 6.30822L32.9382 3.92555L42.6368 7.67547H53.3689L63.0674 3.92555L64.011 6.30822L53.8575 10.2341H42.1482L31.9947 6.30822Z" fill="#22292A"/>
<path fill-rule="evenodd" clip-rule="evenodd" d="M54.8355 8.55133L57.5753 16.6729L47.9968 40.2095L38.4184 16.6729L41.1582 8.55133L43.6147 9.36043L41.1757 16.5904L47.9968 33.3515L54.8179 16.5904L52.3789 9.36043L54.8355 8.55133Z" fill="#22292A"/>
<path d="M34.7589 33.7252C16.4143 39.0277 3 55.9473 3 76C3 100.301 22.6995 120 47 120C71.3005 120 91 100.301 91 76C91 56.2125 77.9381 39.4757 59.9663 33.9416L61.6701 31.3347C80.4435 37.4971 94 55.1654 94 76C94 101.957 72.9574 123 47 123C21.0426 123 0 101.957 0 76C0 54.9074 13.8943 37.06 33.0296 31.1111L34.7589 33.7252Z" fill="#22292A"/>
<path d="M19.7601 81.9129L19.7601 81.9129C20.2218 81.5149 20.2218 80.8556 19.7601 80.4576L15.7658 77.0148H78.2342L74.2399 80.4576C73.7781 80.8556 73.7781 81.5149 74.2399 81.9129C74.6841 82.2957 75.3937 82.2957 75.8379 81.9129L81.8536 76.7276C82.3155 76.3297 82.3155 75.6703 81.8536 75.2724L75.8379 70.0872C75.8379 70.0872 75.8379 70.0872 75.8379 70.0872C75.3937 69.7043 74.6841 69.7043 74.2399 70.0872C73.7781 70.4851 73.7781 71.1444 74.2399 71.5424L78.2341 74.9852H15.7658L19.7601 71.5424L19.7602 71.5424C20.2218 71.1444 20.2219 70.4852 19.7601 70.0872C19.3159 69.7043 18.6063 69.7043 18.1621 70.0872L12.1463 75.2724L12.2769 75.4239L12.1463 75.2724C11.6846 75.6703 11.6846 76.3297 12.1463 76.7276L18.1621 81.9129C18.6063 82.2957 19.3159 82.2957 19.7601 81.9129Z" fill="#00C5E0" stroke="#00C5E0" stroke-width="0.4"/>
</svg>
