<svg width="16" height="16" viewBox="0 0 16 16" fill="none" xmlns="http://www.w3.org/2000/svg">
<g clip-path="url(#clip0_58_49)">
<path d="M13.9199 9.01988C13.5132 11.5132 11.6532 13.4199 9.1799 13.8865C7.8199 14.1465 6.53324 13.9399 5.41991 13.4199C5.23324 13.3266 4.9399 13.2932 4.7399 13.3332C4.32656 13.4332 3.61991 13.6065 3.02658 13.7399C2.45325 13.8799 2.0999 13.5266 2.24657 12.9599L2.65325 11.2532C2.69991 11.0532 2.65324 10.7532 2.56658 10.5666C2.05991 9.50656 1.85991 8.27322 2.06658 6.97989C2.46658 4.49989 4.47991 2.48654 6.96658 2.07321C11.0732 1.41321 14.5732 4.90654 13.8999 9.01321L13.9199 9.01988Z" stroke="#22292A" stroke-width="1.5" stroke-linecap="round" stroke-linejoin="round"/>
<path d="M6.49992 5.66016C6.32659 5.66016 6.15991 5.7335 6.01324 5.88017C5.88658 6.00017 5.79992 6.12683 5.74658 6.2735C5.69325 6.4135 5.65991 6.56683 5.65991 6.72683C5.65991 6.97349 5.71325 7.22682 5.82658 7.49349C5.93991 7.76016 6.09325 8.02683 6.28658 8.2935C6.47991 8.56016 6.69992 8.81349 6.93992 9.06016C7.18659 9.30016 7.43992 9.52017 7.70658 9.7135C7.97325 9.90683 8.24658 10.0602 8.51324 10.1802C8.77991 10.3002 9.03993 10.3535 9.27993 10.3535C9.44659 10.3535 9.59324 10.3202 9.73991 10.2668C9.87991 10.2068 10.0066 10.1202 10.1266 9.99349C10.1933 9.92016 10.2466 9.84017 10.2866 9.7535C10.3266 9.66683 10.3466 9.58016 10.3466 9.50016C10.3466 9.4335 10.3332 9.3735 10.3066 9.32017C10.2799 9.26017 10.2399 9.2135 10.1799 9.1735L9.40658 8.62016C9.34658 8.58016 9.29324 8.54683 9.23991 8.52683C9.18658 8.50683 9.13991 8.49349 9.09991 8.49349C9.03991 8.49349 8.98658 8.50683 8.93325 8.54016C8.87991 8.56683 8.81991 8.6135 8.76658 8.6735L8.58659 8.84682C8.58659 8.84682 8.53325 8.88682 8.49325 8.88682C8.47325 8.88682 8.45325 8.88683 8.43325 8.88017C8.41991 8.8735 8.39992 8.86683 8.39325 8.86017C8.31325 8.82017 8.21326 8.74683 8.09326 8.64683C7.9666 8.54016 7.84658 8.42684 7.71991 8.30017C7.59991 8.1735 7.48659 8.05351 7.37992 7.92684C7.27992 7.80684 7.20658 7.70683 7.15991 7.62683C7.15991 7.6135 7.14658 7.60016 7.13991 7.58016C7.13991 7.56016 7.13326 7.54684 7.13326 7.52683C7.13326 7.48684 7.14659 7.46016 7.17326 7.43349L7.35325 7.24683C7.40658 7.19349 7.45326 7.13349 7.48659 7.08016C7.51993 7.02683 7.53324 6.96683 7.53324 6.91349C7.53324 6.86683 7.51992 6.82017 7.49992 6.7735C7.47992 6.72017 7.44658 6.66683 7.40658 6.60683L6.85992 5.84017C6.81992 5.78017 6.76658 5.74016 6.69991 5.70683C6.63991 5.68016 6.57324 5.66683 6.51324 5.66683L6.49992 5.66016Z" fill="#22292A"/>
</g>
<defs>
<clipPath id="clip0_58_49">
<rect width="16" height="16" fill="white"/>
</clipPath>
</defs>
</svg>
