<svg width="24" height="24" viewBox="0 0 24 24" fill="none" xmlns="http://www.w3.org/2000/svg">
<g clip-path="url(#clip0_148_1231)">
<path d="M20.9397 17.7C20.9397 18.02 20.8697 18.36 20.7097 18.68C20.5497 19 20.3597 19.31 20.0997 19.6C19.6597 20.09 19.1697 20.44 18.6197 20.66C18.0797 20.89 17.4897 21 16.8597 21C15.9397 21 14.9597 20.78 13.9197 20.34C12.8797 19.9 11.8497 19.31 10.8197 18.56C9.7797 17.8 8.79968 16.97 7.85968 16.04C6.92968 15.1 6.0897 14.12 5.3497 13.1C4.6097 12.07 4.01968 11.05 3.57968 10.03C3.14968 9 2.92969 8.02 2.92969 7.09C2.92969 6.48 3.03969 5.89001 3.24969 5.35001C3.46969 4.80001 3.8097 4.30001 4.2897 3.85001C4.8697 3.28001 5.4997 3 6.1597 3C6.4097 3 6.65971 3.05 6.88971 3.16C7.11971 3.27 7.32969 3.43 7.48969 3.66L9.57968 6.60001C9.73968 6.83001 9.8597 7.03001 9.9397 7.23001C10.0197 7.42001 10.0697 7.61 10.0697 7.78C10.0697 8 10.0097 8.21001 9.8797 8.42001C9.7597 8.63001 9.5897 8.84 9.3797 9.06L8.6897 9.76999C8.5897 9.86999 8.54968 9.99 8.54968 10.13C8.54968 10.2 8.54968 10.26 8.57968 10.34C8.60968 10.41 8.62969 10.47 8.64969 10.52C8.80969 10.82 9.08969 11.2 9.48969 11.67C9.89969 12.14 10.3297 12.61 10.7997 13.09C11.2897 13.57 11.7597 14.01 12.2297 14.41C12.6997 14.81 13.0897 15.08 13.3897 15.24C13.4397 15.26 13.4897 15.29 13.5497 15.31C13.6197 15.34 13.6897 15.35 13.7797 15.35C13.9297 15.35 14.0497 15.3 14.1497 15.2L14.8397 14.53C15.0697 14.3 15.2797 14.13 15.4897 14.03C15.6997 13.9 15.8997 13.84 16.1297 13.84C16.2997 13.84 16.4797 13.88 16.6797 13.96C16.8797 14.04 17.0897 14.16 17.3097 14.31L20.2897 16.42C20.5197 16.58 20.6897 16.77 20.7897 17C20.8797 17.23 20.9297 17.45 20.9297 17.7H20.9397Z" stroke="#00C5E0" stroke-width="1.5" stroke-miterlimit="10"/>
</g>
<defs>
<clipPath id="clip0_148_1231">
<rect width="24" height="24" fill="white"/>
</clipPath>
</defs>
</svg>
