<svg width="24" height="24" viewBox="0 0 24 24" fill="none" xmlns="http://www.w3.org/2000/svg">
<g clip-path="url(#clip0_148_1240)">
<path d="M9.98047 3H13.9705" stroke="#00C5E0" stroke-width="1.5" stroke-linecap="round" stroke-linejoin="round"/>
<path d="M6.34031 7.38004C9.45031 4.26004 14.5003 4.26004 17.6203 7.38004C20.7303 10.5 20.7303 15.55 17.6203 18.66C14.5103 21.78 9.46031 21.78 6.34031 18.66C3.23031 15.54 3.23031 10.49 6.34031 7.38004Z" stroke="#00C5E0" stroke-width="1.5" stroke-linecap="round" stroke-linejoin="round"/>
<path d="M11.9805 8.40002V12.52C11.7005 12.52 11.4805 12.74 11.4805 13.02C11.4805 13.3 11.7005 13.52 11.9805 13.52C12.2605 13.52 12.4805 13.3 12.4805 13.02C12.4805 12.74 12.2605 12.52 11.9805 12.52" stroke="#00C5E0" stroke-width="1.5" stroke-linecap="round" stroke-linejoin="round"/>
<path d="M18.4794 6.51001L17.6094 7.38" stroke="#00C5E0" stroke-width="1.5" stroke-linecap="round" stroke-linejoin="round"/>
<path d="M18.0117 4.98999L20.0017 6.98001" stroke="#00C5E0" stroke-width="1.5" stroke-linecap="round" stroke-linejoin="round"/>
</g>
<defs>
<clipPath id="clip0_148_1240">
<rect width="24" height="24" fill="white"/>
</clipPath>
</defs>
</svg>
