<svg width="32" height="32" viewBox="0 0 32 32" fill="none" xmlns="http://www.w3.org/2000/svg">
<mask id="mask0_111_3507" style="mask-type:alpha" maskUnits="userSpaceOnUse" x="0" y="0" width="32" height="32">
<rect width="32" height="32" fill="#D9D9D9"/>
</mask>
<g mask="url(#mask0_111_3507)">
<path d="M18.4648 28.7487L19.9479 29.1765L18.9212 28.0927L18.636 28.5205L18.4648 28.7487Z" fill="#E1EBF0"/>
<path d="M16.6395 31.3726L16.3828 31.7148L16.611 31.8859L16.6395 31.3726Z" fill="#C6CED0"/>
<path d="M19.9463 29.1765L18.4632 28.7487L17.7502 29.7754L17.2368 30.5169L16.6379 31.3725L16.6094 31.8859L19.9463 29.1765Z" fill="#C2CBD4"/>
<path d="M16.3813 31.7148L16.1816 32L16.6094 31.8859L16.3813 31.7148Z" fill="#304350"/>
<path d="M20.1174 31.0303L20.0889 30.631L16.6094 31.8859L20.1174 31.0303Z" fill="#7A8694"/>
<path d="M19.8614 27.0375L19.7188 26.9804L19.8043 27.9501L19.8614 27.0375Z" fill="#C6CED0"/>
<path d="M21.0881 27.6649L19.8617 27.0374L19.8047 27.9501L19.8902 28.6346L21.0881 27.6649Z" fill="#C2CBD4"/>
<path d="M21.0865 27.6649L19.8887 28.6346V28.6631L21.7425 28.0071L21.0865 27.6649Z" fill="#EFF7F9"/>
<path d="M19.8892 28.7487L19.9463 29.1765L16.6094 31.8859L20.0889 30.631L20.1174 31.0303L22.5987 29.4902L19.8892 28.7487Z" fill="#EFF7F9"/>
<path d="M23.255 28.7487L22.9413 28.6061L21.7435 28.0071L19.8896 28.6631V28.6346L19.8041 27.9501L19.7185 26.9804L19.6615 27.0375L19.1481 27.7505L18.9199 28.0927L19.9467 29.1765L19.8896 28.7487L22.5991 29.4902L23.5117 28.9483L23.5402 28.8913L23.255 28.7487Z" fill="#7A8694"/>
<path d="M23.5117 28.9483L23.5688 28.9198L23.5402 28.8913L23.5117 28.9483Z" fill="white"/>
<path d="M23.2551 23.2442L23.4262 23.0446L23.2266 22.8449L23.2551 23.2442Z" fill="#EFF7F9"/>
<path d="M23.2559 23.2442L23.3129 24.4421L23.3414 24.5847L24.4537 24.0713L23.427 23.0446L23.2559 23.2442Z" fill="#C6CED0"/>
<path d="M23.4258 26.1533L23.4543 27.066L24.5096 26.467L23.4258 26.1533Z" fill="#F0F7FB"/>
<path d="M24.5377 24.1854L24.4521 24.0713L23.3398 24.5847L23.3969 25.5544V25.697L23.4254 26.1533L24.5092 26.467L24.9655 24.6132L24.5377 24.1854Z" fill="#9DABB9"/>
<path d="M23.4544 27.066L23.4259 26.1533L23.3974 25.697L22.8555 25.5544L23.0551 28.2638L23.5114 28.0071V27.9216L24.5097 26.467L23.4544 27.066Z" fill="#444950"/>
<path d="M25.1087 24.7558L24.9661 24.6132L24.5098 26.4671L24.9376 26.8093L25.7647 25.4688V25.3833L25.1087 24.7558Z" fill="#525A66"/>
<path d="M25.7656 25.4688L25.7941 25.4403L25.7656 25.3832V25.4688Z" fill="#EFF7F9"/>
<path d="M24.5099 26.467L23.5117 27.9216V28.0071L23.5688 28.9198L24.4529 27.5508L24.5099 26.467Z" fill="#475875"/>
<path d="M24.5102 26.467L24.4531 27.5508L24.938 26.8093L24.5102 26.467Z" fill="#9DABB9"/>
<path d="M23.2266 22.8449L23.4262 23.0446L24.4529 24.0713L24.5385 24.1854L26.1071 23.3012L23.7685 22.6453L23.2266 22.8449Z" fill="#F0F7FB"/>
<path d="M26.2223 21.7041L26.1653 21.7326L23.7695 22.6453L26.1082 23.3012L26.1938 22.959L26.3934 21.647L26.2223 21.7041Z" fill="#9DABB9"/>
<path d="M24.5391 24.1854L24.9669 24.6132L25.1095 24.7558L26.1077 23.3013L24.5391 24.1854Z" fill="#444950"/>
<path d="M26.1359 23.3298L26.193 22.959L26.1074 23.3012L26.1359 23.3298Z" fill="#525A66"/>
<path d="M26.1076 23.3013L25.1094 24.7558L25.7653 25.3833L25.7939 25.4403L26.0791 23.6435L26.1076 23.3013Z" fill="#475875"/>
<path d="M26.1066 23.3013L26.0781 23.6435L26.1352 23.3298L26.1066 23.3013Z" fill="#9DABB9"/>
<path d="M23.3133 16.1141L23.2563 16L23.1707 16.1426L20.832 15.1158L21.9158 18.2531L21.7732 18.5098L24.1404 17.6542V17.6827L24.8819 16.8556L23.3133 16.1141ZM23.7126 16.8556L23.1137 16.4848L22.7714 16.77L22.9711 16.4563L22.9996 16.3993L23.0852 16.2281V16.5133L23.3418 16.2281L23.7126 16.8556Z" fill="#EFF7F9"/>
<path d="M25.1946 16.2567L24.8809 16.8271L26.1358 16.4564L26.1072 16.3993L25.1946 16.2567Z" fill="#E1EBF0"/>
<path d="M24.8802 16.8271L24.1387 17.6257L24.3383 17.9964L24.652 18.5383L26.1921 17.8538V17.5686L24.8802 16.8271Z" fill="#C6CED0"/>
<path d="M24.8809 16.8271L26.1928 17.5686L26.1358 16.4563L24.8809 16.8271Z" fill="#D1DADF"/>
<path d="M25.7356 20.4777L25.7926 20.4492L25.707 20.4207L25.7356 20.4777Z" fill="#F0F7FB"/>
<path d="M24.6523 18.5383L25.7076 20.4207L25.7932 20.4492L26.221 18.6239L26.1925 17.8538L24.6523 18.5383Z" fill="#9DABB9"/>
<path d="M25.7363 20.4777V20.5063L25.7934 20.4492L25.7363 20.4777Z" fill="#444950"/>
<path d="M25.793 20.4492L26.3349 20.9055L26.2208 18.6239L25.793 20.4492Z" fill="#525A66"/>
<path d="M25.7363 20.5063H25.7649V20.5633L25.7934 20.4492L25.7363 20.5063Z" fill="#475875"/>
<path d="M25.7941 20.4492L25.7656 20.5633L26.1934 21.3048L26.3931 21.6471L26.336 20.9055L25.7941 20.4492Z" fill="#9DABB9"/>
<path d="M20.6309 14.9733V15.1444L20.8305 15.1159L20.6309 14.9733Z" fill="#E5EDF0"/>
<path d="M20.6309 15.1444L20.6879 15.3725V15.5151L20.9161 16.8556L20.8305 15.1158L20.6309 15.1444Z" fill="#F0F7FB"/>
<path d="M20.832 15.1159L23.1422 16.1426L23.2278 16L22.144 15.2585L21.3169 14.6881L21.2313 14.631L20.832 15.1159Z" fill="white"/>
<path d="M20.9176 16.8556L21.2598 19.0232L21.2884 19.2798L21.7732 18.4813L21.9158 18.2246L20.832 15.1158L20.9176 16.8556Z" fill="#304350"/>
<path d="M19.7468 9.92516L18.5775 10.1818L17.8359 10.353L18.2637 10.9234L20.3172 10.1818V9.95368L20.1461 9.8396L19.7468 9.92516Z" fill="#EFF7F9"/>
<path d="M18.2637 10.9234L18.9482 11.9216L19.1193 12.1783L19.2619 12.3494L20.3171 10.467V10.1818L18.2637 10.9234Z" fill="#7A8694"/>
<path d="M21.6582 10.3244L22.029 10.467L22.5709 10.6952L22.1716 7.52942L21.6582 10.3244Z" fill="#75746B"/>
<path d="M22.1989 7.50091L22.3415 7.32978L21.543 6.70233L21.7141 8.07132L22.1704 7.52943L22.5697 10.6952L23.625 11.0945L24.0243 10.1533L22.8549 8.01427L22.1989 7.50091Z" fill="#B6C1CE"/>
<path d="M23.625 11.0945L24.4806 11.4367L24.7943 11.5508L24.0243 10.1533L23.625 11.0945Z" fill="#75746B"/>
<path d="M19.5192 3.67916L19.7758 3.50804L19.4336 3.02319L19.5192 3.67916Z" fill="#E1E6E5"/>
<path d="M19.5195 3.67912L19.5766 4.13545L20.3751 4.36361L19.7762 3.508L19.5195 3.67912Z" fill="#444950"/>
<path d="M19.7469 5.41889L20.0321 7.70053L20.1177 8.27094V8.41354L21.5437 6.70231L19.6328 4.5918L19.7469 5.41889Z" fill="#EFF7F9"/>
<path d="M19.5762 4.1355L19.6332 4.59183L21.5441 6.70234L21.7152 6.24602L20.3747 4.36366L19.5762 4.1355Z" fill="white"/>
<path d="M20.1173 8.41356L20.1744 8.89841L20.317 9.81107L20.1459 9.83959L20.317 9.95367V10.1818V10.467L19.2617 12.3494L20.4025 13.9751L20.4881 14.1177L20.4596 13.5758L20.8874 11.2086L20.374 11.836L20.3455 10.6096L20.8874 11.2086L21.2867 10.1818L21.6574 10.3244L22.1708 7.52943L21.7145 8.07132L21.1726 8.75581L21.5434 6.70233L20.1173 8.41356Z" fill="white"/>
<path d="M21.543 6.7023L22.3415 7.32975L22.1989 7.50087L22.8549 8.01424L22.4271 7.21567L21.7141 6.24597L21.543 6.7023Z" fill="#98A4B1"/>
<path d="M21.1738 8.75581L21.7157 8.07132L21.5446 6.70233L21.1738 8.75581Z" fill="#75746B"/>
<path d="M16.1816 1.3975L16.5809 0.370766L16.1816 0V0.0855615V1.3975Z" fill="#C6CED0"/>
<path d="M16.1816 1.39753V1.56865L18.6629 2.31018L16.5809 0.370789L16.1816 1.39753Z" fill="#7A8694"/>
<path d="M16.1816 3.96438V4.02142L18.6059 3.50805L19.433 3.0232L18.7485 2.39575L16.1816 3.96438Z" fill="#474A52"/>
<path d="M16.2391 4.877L16.1821 4.70588V4.27807V4.07843L15.9824 4.79144L16.1821 4.90552L16.2391 4.877Z" fill="white"/>
<path d="M16.1816 4.70588L16.2387 4.87701L16.4098 4.79144L16.5809 4.67736L16.1816 4.27808V4.70588Z" fill="#E1EBF0"/>
<path d="M16.1816 4.27805L16.5809 4.67734L17.0658 4.39213L18.4918 3.56504L18.6059 3.508L16.1816 4.02136V4.07841V4.27805Z" fill="#7A8694"/>
<path d="M24.7094 12.4064L24.6238 12.0356L24.5098 12.3494L24.7094 12.4064Z" fill="#444950"/>
<path d="M24.623 12.0356L24.7086 12.4064L24.9938 12.2923L24.7942 11.5508L24.623 12.0356Z" fill="#EFF7F9"/>
<path d="M24.709 12.4064L25.0798 12.6061L24.9942 12.2924L24.709 12.4064Z" fill="#808890"/>
<path d="M23.9114 14.0606L23.7402 14.574L24.054 14.2032L23.9114 14.0606Z" fill="#EFF7F9"/>
<path d="M23.9672 13.918L23.9102 14.0606L24.0528 14.2032L24.7087 12.4064L24.5091 12.3494L24.4235 12.6346L23.9672 13.918Z" fill="white"/>
<path d="M23.7399 14.574L23.2266 16L23.3121 16.1141L24.8808 16.8271L24.4529 16.1711L24.2818 16.1426L23.7114 16.057L24.0537 14.2032L23.7399 14.574Z" fill="white"/>
<path d="M24.7087 12.4064L24.0527 14.2032L25.9351 15.7148L25.5643 14.3743L24.7087 12.4064Z" fill="#98A4B1"/>
<path d="M24.709 12.4064L25.5646 14.3743L25.0798 12.6061L24.709 12.4064Z" fill="#E1EBF0"/>
<path d="M23.7109 16.057L24.2813 16.1426L24.0532 14.2032L23.7109 16.057Z" fill="#75746B"/>
<path d="M24.0527 14.2032L24.2809 16.1426L24.452 16.1711L24.8798 16.8271L25.1936 16.2567L26.1062 16.3993V16.3707L25.9351 15.7148L24.0527 14.2032Z" fill="#B6C1CE"/>
<path d="M13.7294 11.4938L13.0449 12.492L14.7847 13.0339L13.7294 11.4938Z" fill="#7A8694"/>
<path d="M17.6948 10.2959L17.0674 10.0962L16.1832 9.81104L15.3276 10.0962L14.5576 10.3529L13.7305 11.4937L14.7857 13.0339L17.6948 10.2959Z" fill="#EFF7F9"/>
<path d="M14.7837 13.0339L13.044 12.492L12.5306 13.205L12.5021 13.2621L12.445 13.3191L11.9031 14.1177V14.1462L11.7891 14.8592L14.7837 13.0339Z" fill="#98A4B1"/>
<path d="M18.9491 11.9216L18.2647 10.9233L17.8368 10.3529L17.6942 10.2959L14.7852 13.0339L18.9491 11.9216Z" fill="#CBD5DC"/>
<path d="M16.4383 14.1747L14.7841 13.0339L11.7895 14.8592L11.7324 15.23L16.4383 14.1747Z" fill="#474A52"/>
<path d="M19.1203 12.1783L18.9491 11.9216L14.7852 13.0339L16.4393 14.1747L19.1203 12.1783Z" fill="#E1E6E5"/>
<path d="M19.1204 12.1783L16.4395 14.1747L20.689 15.3726L20.632 15.1444V14.9733L20.5749 14.7451L20.4038 13.9751L19.263 12.3494L19.1204 12.1783Z" fill="#444950"/>
<path d="M20.5735 14.7451L20.6305 14.9733L20.8302 15.1159L21.2294 14.631L20.4879 14.1176L20.4023 13.975L20.5735 14.7451Z" fill="#EFF7F9"/>
<path d="M11.7032 20.6203L12.4447 20.3351L11.418 19.9644L11.7032 20.6203Z" fill="#474A52"/>
<path d="M11.7031 20.6203L11.8172 20.82L12.4447 20.3351L11.7031 20.6203Z" fill="#DEE6E8"/>
<path d="M16.7521 21.5615L11.5899 16.1141L11.5613 16.3422L11.4473 17.0838L12.4455 20.3351L16.7521 21.5615Z" fill="#E1EBF0"/>
<path d="M16.7521 21.5615L16.4383 14.1747L11.7324 15.2299L11.6184 16.0285L11.5898 16.1141L16.7521 21.5615Z" fill="#7A8694"/>
<path d="M19.8334 17.8823L16.4395 14.1747L16.7532 21.5615L19.8334 17.8823Z" fill="#EFF7F9"/>
<path d="M19.8334 17.8823L20.689 15.5151V15.3725L16.4395 14.1747L19.8334 17.8823Z" fill="white"/>
<path d="M14.1562 23.672L15.1545 24.2139L18.8907 22.8449L16.7516 21.5615L14.1562 23.672Z" fill="#EFF7F9"/>
<path d="M18.891 22.8449L19.8322 17.8823L16.752 21.5615L18.891 22.8449Z" fill="white"/>
<path d="M19.832 17.8823L21.2581 19.0232L20.9158 16.8556L20.6876 15.5151L19.832 17.8823Z" fill="#98A4B1"/>
<path d="M18.8906 22.8449L19.1758 23.1871L19.6036 22.959L19.9744 22.1319L20.1455 21.7611L20.2596 21.5044L19.8318 17.8823L18.8906 22.8449Z" fill="#75746B"/>
<path d="M21.2581 19.0231L19.832 17.8823L20.2598 21.5044L21.144 19.5936L21.2866 19.2798L21.2581 19.0231Z" fill="#B6C1CE"/>
<path d="M16.6659 24.4991L18.4912 23.5579L18.8905 22.8449L15.1543 24.2139L15.7247 24.4991L16.181 24.7273L16.6659 24.4991Z" fill="#7A8694"/>
<path d="M18.8915 22.8449L18.4922 23.5579L19.0341 23.2727L18.8915 22.8449Z" fill="white"/>
<path d="M18.8906 22.8449L19.0332 23.2727L19.1758 23.1872L18.8906 22.8449Z" fill="#E3D6C0"/>
<path d="M16.8383 7.01604L16.8098 6.93048L16.7812 6.98752L16.8383 7.01604Z" fill="white"/>
<path d="M16.6665 24.4991L16.1816 24.7272L16.6094 24.9839L16.638 25.0125L16.6665 24.4991Z" fill="#C6CED0"/>
<path d="M19.6029 22.959L19.175 23.1871L19.0324 23.2727L18.4906 23.5579L16.6652 24.4991L16.6367 25.0125L16.979 25.2406L19.774 22.959H19.6029Z" fill="#C2CBD4"/>
<path d="M21.6581 22.902L21.1162 22.9305L20.2891 22.959H20.1465L21.5155 23.7576L21.6581 22.902Z" fill="white"/>
<path d="M22.5138 22.8734L21.6582 22.9019L21.5156 23.7576L22.8561 25.5543L22.5138 22.8734Z" fill="#75746B"/>
<path d="M22.5137 22.8734L22.8559 25.5544L23.3122 24.4421L23.2552 23.2442L23.2267 22.8449L22.5137 22.8734Z" fill="#B6C1CE"/>
<path d="M23.3118 24.4421L22.8555 25.5544H23.3974L23.3403 24.5847L23.3118 24.4421Z" fill="#75746B"/>
<path d="M17.1523 25.3547L18.1506 25.9822L19.9474 26.467L21.516 23.7576L17.1523 25.3547Z" fill="#7A8694"/>
<path d="M19.4043 26.7808L19.6325 26.9234L19.9462 26.467L19.4043 26.7808Z" fill="#DEE6E8"/>
<path d="M21.5152 23.7576L19.9465 26.467L19.6328 26.9233L19.7184 26.9804L19.861 27.0374L21.0874 27.6649L21.7433 28.0071L22.9412 28.6061L23.0553 28.2638L21.5152 23.7576Z" fill="white"/>
<path d="M22.8561 25.5544L21.5156 23.7576L23.0557 28.2638L22.8561 25.5544Z" fill="#E3D6C0"/>
<path d="M22.8555 25.5544L23.3974 25.697V25.5544H22.8555Z" fill="white"/>
<path d="M23.2551 28.7486L23.0555 28.2638L22.9414 28.606L23.2551 28.7486Z" fill="#F6FBFB"/>
<path d="M23.511 28.0071L23.0547 28.2638L23.2543 28.7487L23.5395 28.8913L23.5681 28.9198L23.511 28.0071Z" fill="#C6CED0"/>
<path d="M20.1465 21.7611L22.0574 20.6773L21.544 19.7076L21.1447 19.5936L20.2606 21.5044L20.1465 21.7611Z" fill="#444950"/>
<path d="M21.1445 19.5936L21.5438 19.7077L21.5153 19.6791L21.2871 19.2798L21.1445 19.5936Z" fill="white"/>
<path d="M20.288 22.959L19.9743 22.1319L19.6035 22.959H19.7746H20.1454H20.288Z" fill="#F6FBFB"/>
<path d="M20.1457 21.7611L19.9746 22.1319L20.2883 22.959L21.1154 22.9305L22.3133 21.1622L22.0851 20.7059L22.0566 20.6774L20.1457 21.7611Z" fill="#C6CED0"/>
<path d="M21.1172 22.9305L21.6591 22.902L22.5147 22.8735L23.2277 22.8449L22.3436 21.2193L22.315 21.1622L21.1172 22.9305Z" fill="#EFF7F9"/>
<path d="M22.9973 16.3993L22.9688 16.4563L23.1114 16.4849L22.9973 16.3993Z" fill="#E1EBF0"/>
<path d="M23.1121 16.2281L22.998 16.3993L23.1121 16.4848V16.2281Z" fill="#7A8694"/>
<path d="M22.9692 16.4563L22.7695 16.77L23.1118 16.4848L22.9692 16.4563Z" fill="#C2CBD4"/>
<path d="M23.368 16.1996L23.1113 16.4849L23.7103 16.8556L23.368 16.1996Z" fill="white"/>
<path d="M22.0575 20.6774L22.086 20.7059L23.1128 20.1355L21.5156 19.6791L21.5441 19.7077L22.0575 20.6774Z" fill="#EFF7F9"/>
<path d="M21.772 18.4813L21.2871 19.2799L21.5153 19.6791L23.1124 20.1355L24.3388 17.9964L24.1392 17.6257L21.772 18.4813Z" fill="#7A8694"/>
<path d="M22.0859 20.7059L22.3141 21.1622L22.3426 21.2193L23.1127 20.1355L22.0859 20.7059Z" fill="#DEE6E8"/>
<path d="M23.1119 20.1355L22.3418 21.2193L23.2259 22.8449L23.7678 22.6453L26.1635 21.7326L25.7643 20.5063H25.7357V20.4777L25.7072 20.4207L24.652 18.5383L24.3382 17.9965L23.1119 20.1355Z" fill="white"/>
<path d="M25.7656 20.5062L26.1649 21.7326L26.222 21.7041L26.1934 21.3048L25.7656 20.5633V20.5062Z" fill="#E3D6C0"/>
<path d="M26.1934 21.3048L26.2219 21.7041L26.393 21.6471L26.1934 21.3048Z" fill="#444950"/>
<path d="M20.3457 10.6096L20.3742 11.836L20.8876 11.2085L20.3457 10.6096Z" fill="#EFF7F9"/>
<path d="M22.0295 10.467L21.6587 10.3244L21.288 10.1818L20.8887 11.2086L23.1418 13.0054L22.0295 10.467Z" fill="#98A4B1"/>
<path d="M22.0293 10.467L23.1416 13.0054L24.4821 11.4367L23.6264 11.0945L22.5712 10.6952L22.0293 10.467Z" fill="#E1EBF0"/>
<path d="M21.229 14.631L21.3146 14.6881L20.8868 11.2086L20.459 13.5758L20.4875 14.1176L21.229 14.631Z" fill="#75746B"/>
<path d="M20.8887 11.2086L21.3165 14.6881L22.1436 15.2585L23.1418 13.0053L20.8887 11.2086Z" fill="#B6C1CE"/>
<path d="M24.4811 11.4367L23.1406 13.0053L24.424 12.6346L24.5096 12.3494L24.6237 12.0356L24.7948 11.5508L24.4811 11.4367Z" fill="#E5EDF0"/>
<path d="M22.1426 15.2585L23.2264 16L23.7397 14.574L23.9108 14.0606L23.9679 13.918L23.1408 13.0054L22.1426 15.2585Z" fill="#75746B"/>
<path d="M23.9677 13.918L24.424 12.6346L23.1406 13.0053L23.9677 13.918Z" fill="#F0F7FB"/>
<path d="M17.0664 4.39216L18.8062 4.87701L18.4924 3.56506L17.0664 4.39216Z" fill="#444950"/>
<path d="M18.6063 3.50804L18.4922 3.56508L18.8059 4.87703L19.633 4.59182L19.576 4.13549L19.5189 3.67916L19.4334 3.02319L18.6063 3.50804Z" fill="#EFF7F9"/>
<path d="M19.7478 5.41889L19.6337 4.5918L18.8066 4.877L19.7478 5.41889Z" fill="#808890"/>
<path d="M17.0661 4.39215L16.5813 4.67736L16.4102 4.79144L18.1499 6.70231L18.8059 4.877L17.0661 4.39215Z" fill="white"/>
<path d="M17.1234 7.92871L17.2375 8.29948L17.5227 9.2977L17.0664 10.0963L17.6939 10.2959L17.8365 10.353L17.6083 9.55438L18.1502 6.70233L17.1234 7.92871Z" fill="white"/>
<path d="M18.1484 6.70233L20.1164 8.27095L20.0308 7.70054L18.8044 4.87701L18.1484 6.70233Z" fill="#98A4B1"/>
<path d="M20.033 7.70054L19.7478 5.4189L18.8066 4.87701L20.033 7.70054Z" fill="#E1EBF0"/>
<path d="M17.6074 9.55438L17.8356 10.353L18.5771 10.1818L18.1493 6.70233L17.6074 9.55438Z" fill="#75746B"/>
<path d="M18.5762 10.1818L19.7456 9.92515L20.1734 8.89841L20.1164 8.41356V8.27096L18.1484 6.70233L18.5762 10.1818Z" fill="#B6C1CE"/>
<path d="M19.7461 9.92511L20.1454 9.83955L20.3165 9.81103L20.1739 8.89838L19.7461 9.92511Z" fill="#75746B"/>
<path d="M13.9284 28.7487L13.6432 28.3494L13.6147 28.3209V28.2924L13.5861 28.2638L13.4721 28.0927L12.4453 29.1765L13.9284 28.7487Z" fill="#E1EBF0"/>
<path d="M15.7824 31.8859L16.0106 31.7148L15.7539 31.3726L15.7824 31.8859Z" fill="#C6CED0"/>
<path d="M15.1548 30.4884L16.7804 29.1765L13.6432 28.2924V28.3494L13.9284 28.7487L12.4453 29.1765L15.7822 31.8859L15.7537 31.3726L15.5826 31.1159L15.1548 30.4884Z" fill="#C2CBD4"/>
<path d="M15.7812 31.8859L16.1805 32L16.0094 31.7148L15.7812 31.8859Z" fill="#304350"/>
<path d="M12.3031 30.631L12.2461 31.0303L15.7826 31.8859L12.3031 30.631Z" fill="#7A8694"/>
<path d="M12.5039 27.0375L12.5609 27.9501L12.675 26.9804L12.5039 27.0375Z" fill="#C6CED0"/>
<path d="M12.5025 27.0374L11.3047 27.6649L12.5025 28.6346L12.5596 27.9501L12.5025 27.0374Z" fill="#C2CBD4"/>
<path d="M11.3056 27.6649L10.6211 28.0071L12.5034 28.6631V28.6346L11.3056 27.6649Z" fill="#EFF7F9"/>
<path d="M12.3028 30.631L15.7823 31.8859L12.4454 29.1765L12.5024 28.7487L9.79297 29.4902L12.2457 31.0303L12.3028 30.631Z" fill="#EFF7F9"/>
<path d="M12.5022 28.7487L12.4451 29.1765L13.4719 28.0927L12.6733 26.9804L12.5592 27.9501L12.5022 28.6346V28.6631L10.6198 28.0071L9.45049 28.6061L9.13677 28.7487L8.85156 28.8913V28.9483L9.79274 29.4902L12.5022 28.7487Z" fill="#7A8694"/>
<path d="M8.82422 28.9198L8.85274 28.9483V28.8913L8.82422 28.9198Z" fill="white"/>
<path d="M9.13597 23.2442V22.8449L8.96484 23.0446L9.13597 23.2442Z" fill="#EFF7F9"/>
<path d="M9.05175 24.4421L9.13731 23.2442L8.96619 23.0446L7.93945 24.0713L9.05175 24.5847V24.4421Z" fill="#C6CED0"/>
<path d="M8.90955 27.066L8.96659 26.1533L7.88281 26.467L8.90955 27.066Z" fill="#F0F7FB"/>
<path d="M8.96589 26.1533L8.99441 25.697V25.5544L9.05145 24.5847L7.93915 24.0713L7.82507 24.1854L7.42578 24.6132L7.88211 26.467L8.96589 26.1533Z" fill="#9DABB9"/>
<path d="M7.88108 26.4671L7.42475 24.6132L7.28215 24.7558L6.62618 25.3833L6.59766 25.4688L7.45327 26.8093L7.88108 26.4671Z" fill="#525A66"/>
<path d="M6.59766 25.4403V25.4688L6.62618 25.3832L6.59766 25.4403Z" fill="#EFF7F9"/>
<path d="M8.88103 28.0071V27.9216L7.88281 26.467L7.93985 27.5508L8.82399 28.9198L8.88103 28.0071Z" fill="#475875"/>
<path d="M7.88093 26.467L7.45312 26.8093L7.93797 27.5508L7.88093 26.467Z" fill="#9DABB9"/>
<path d="M7.82526 24.1854L7.93935 24.0713L8.96608 23.0446L9.13721 22.8449L8.62384 22.6453L6.28516 23.3012L7.82526 24.1854Z" fill="#F0F7FB"/>
<path d="M8.62389 22.6453L6.19964 21.7326L6.17112 21.7041L6 21.647L6.19964 22.959L6.28521 23.3012L8.62389 22.6453Z" fill="#9DABB9"/>
<path d="M7.82526 24.1854L6.28516 23.3013L7.28337 24.7558L7.42598 24.6132L7.82526 24.1854Z" fill="#444950"/>
<path d="M6.28478 23.3012L6.19922 22.959L6.25626 23.3298L6.28478 23.3012Z" fill="#525A66"/>
<path d="M7.28337 24.7558L6.28516 23.3013L6.31368 23.6435L6.59888 25.4403L6.6274 25.3833L7.28337 24.7558Z" fill="#475875"/>
<path d="M6.28438 23.3013L6.25586 23.3298L6.3129 23.6435L6.28438 23.3013Z" fill="#9DABB9"/>
<path d="M7.93802 16.1711L7.16797 16.2567L7.48169 16.8271L7.93802 16.1711Z" fill="#B6C1CE"/>
<path d="M7.48224 16.8271L7.16852 16.2567L6.25586 16.3993V16.4564L7.48224 16.8271Z" fill="#E1EBF0"/>
<path d="M7.73933 18.5383L8.02453 17.9964L8.22417 17.6257L7.48264 16.8271L6.19922 17.5686V17.8538L7.73933 18.5383Z" fill="#C6CED0"/>
<path d="M7.48264 16.8271L6.25626 16.4563L6.19922 17.5686L7.48264 16.8271Z" fill="#D1DADF"/>
<path d="M6.6547 20.4777L6.68322 20.4207L6.59766 20.4492L6.6547 20.4777Z" fill="#F0F7FB"/>
<path d="M6.59891 20.4492L6.68447 20.4207L7.73973 18.5383L6.19962 17.8538L6.14258 18.6239L6.59891 20.4492Z" fill="#9DABB9"/>
<path d="M6.6547 20.5063V20.4777L6.59766 20.4492L6.6547 20.5063Z" fill="#444950"/>
<path d="M6.59971 20.4492L6.14338 18.6239L6.0293 20.9055L6.59971 20.4492Z" fill="#525A66"/>
<path d="M6.6547 20.5063L6.59766 20.4492V20.5633L6.62618 20.5063H6.6547Z" fill="#475875"/>
<path d="M6.19964 21.3048L6.59893 20.5633V20.4492L6.02852 20.9055L6 21.6471L6.19964 21.3048Z" fill="#9DABB9"/>
<path d="M11.875 14.1177L11.9035 14.1462V14.1177H11.875Z" fill="#B6C1CE"/>
<path d="M9.16524 16.0285H9.53601H11.618L11.7321 15.23L11.7891 14.8592L11.9032 14.1462L11.8747 14.1177L11.7606 14.2032L10.8194 14.8592L9.87825 15.4867L9.13672 16L9.16524 16.0285Z" fill="#75746B"/>
<path d="M11.2768 18.0535L11.448 17.0838L11.562 16.3422L9.67969 16.8841L9.90785 17.2549L11.2768 18.0535Z" fill="#444950"/>
<path d="M11.5617 16.3422L11.5903 16.1141L11.6188 16.0285H9.53678H9.16602L9.2801 16.2281L9.36566 16.3993L9.4227 16.4563L9.59382 16.77L9.67938 16.8841L11.5617 16.3422Z" fill="white"/>
<path d="M11.2772 18.0535L9.9082 17.2549L10.6212 18.4813L11.1061 19.2798L11.2772 18.0535Z" fill="#C6CED0"/>
<path d="M13.1595 10.0392L12.9883 10.0107L12.7887 9.95367L12.7031 10.6382L13.1595 10.0392Z" fill="#75746B"/>
<path d="M12.7024 10.6382L12.788 9.95367L12.6454 9.92514L12.4457 9.89662L12.3887 9.8681L12.7024 10.6382Z" fill="#B6C1CE"/>
<path d="M12.7028 10.6381L12.3891 9.86808L12.161 9.83956L12.0754 9.81104L12.0469 10.6381H12.7028Z" fill="#75746B"/>
<path d="M13.7291 11.4938L14.5562 10.353L13.615 10.1533L12.5312 13.205L13.0446 12.492L13.7291 11.4938Z" fill="white"/>
<path d="M13.6162 10.1533L13.1599 10.0392L12.7035 10.6382L12.5039 13.2621L12.5324 13.205L13.6162 10.1533Z" fill="#E3D6C0"/>
<path d="M12.7025 10.6381L12.0465 10.8378L11.9609 13.0338L12.4458 13.3191L12.5028 13.262L12.7025 10.6381Z" fill="#444950"/>
<path d="M12.7028 10.6381H12.0469V10.8378L12.7028 10.6381Z" fill="white"/>
<path d="M11.9594 13.0339L11.9309 13.2906L11.9023 13.9465V14.1177L12.4442 13.3191L11.9594 13.0339Z" fill="#C6CED0"/>
<path d="M12.0745 9.81106L12.1601 9.83958L12.1031 9.7255V9.69698H11.989L10.2207 7.52942L10.7341 10.3244L11.333 10.0963L11.5326 10.0107L12.0745 9.81106Z" fill="white"/>
<path d="M10.1911 7.5009L10.02 7.30126L9.96296 7.2157L9.53516 8.01427L10.1911 7.5009Z" fill="#98A4B1"/>
<path d="M10.733 10.3244L10.2196 7.52942L11.9879 9.69698H12.102L12.2446 8.6132L11.1608 6.10339L10.02 7.30125L10.1911 7.5009V7.52942L9.82031 10.6952L10.733 10.3244Z" fill="#75746B"/>
<path d="M8.76647 11.0945L9.82173 10.6952L10.1925 7.52944V7.50092L9.53653 8.01428L8.36719 10.1533L8.76647 11.0945Z" fill="#B6C1CE"/>
<path d="M7.76878 11.4653L8.767 11.0945L8.36771 10.1533L7.59766 11.5508L7.76878 11.4653Z" fill="#75746B"/>
<path d="M12.9582 3.08023V3.02319L12.9297 3.08023L12.9582 3.13728V3.08023Z" fill="white"/>
<path d="M11.1621 6.10337L12.7307 4.81995V4.79143V4.73439L12.8733 3.67913L12.9589 3.13724L12.9304 3.0802L11.7325 4.73439L11.1621 6.10337Z" fill="#98A4B1"/>
<path d="M11.1618 6.10336L11.7322 4.73438L10.9336 5.84667L11.1618 6.10336Z" fill="#E1EBF0"/>
<path d="M12.2459 8.61317L12.6452 5.56148L12.7307 4.81995L11.1621 6.10337L12.2459 8.61317Z" fill="#B6C1CE"/>
<path d="M11.1614 6.10336L10.9332 5.84668L10.8477 5.98928L11.1614 6.10336Z" fill="#E5EDF0"/>
<path d="M11.1627 6.1034L10.849 5.98932L9.96484 7.2157L10.0219 7.30126L11.1627 6.1034Z" fill="#F0F7FB"/>
<path d="M16.1805 0L16.0664 0.114082L16.1805 0.0855615V0Z" fill="#7A8694"/>
<path d="M16.1827 2.19609V2.39573V3.02318V3.96436L18.7495 2.39573L18.6639 2.31017L16.1827 1.56864V1.39751V0.0855713L16.0686 0.114092L14.7852 1.31195L16.1827 2.19609Z" fill="#98A4B1"/>
<path d="M16.1824 2.39573V2.19609L14.7849 1.31195L14.1289 1.9394L16.1824 2.39573Z" fill="#474A52"/>
<path d="M15.9822 4.79146L16.1818 4.07845V4.02141V3.96437V3.02319L15.041 4.22105L15.9822 4.79146Z" fill="#E1EBF0"/>
<path d="M14.0713 3.65062L13.8716 3.93583L14.328 3.82174L15.041 4.22103L16.1818 3.02317V2.39572L14.1283 1.93939L12.959 3.02317L14.0713 3.65062Z" fill="#7A8694"/>
<path d="M7.85396 12.2923L7.59728 11.5508L7.51172 11.8645L7.85396 12.2923Z" fill="#E1EBF0"/>
<path d="M7.88329 12.4064L7.85477 12.2923L7.51252 11.8645L7.39844 12.2638L7.88329 12.4064Z" fill="#E5EDF0"/>
<path d="M6.45666 16.0285H7.79712H8.8809L9.13758 16L8.56717 14.3458L8.13936 13.1195L7.9112 12.492L7.08411 13.4047L6.37109 16.0285H6.45666Z" fill="#75746B"/>
<path d="M7.91108 12.492L7.88256 12.4064L7.39771 12.2638L7.08398 13.4046L7.91108 12.492Z" fill="#F0F7FB"/>
<path d="M7.16852 16.2567L7.93857 16.1711L7.48224 16.8271L9.07939 16.1141L9.13643 16L8.87975 16.0285H7.79597H6.4555H6.36994L6.25586 16.3993L7.16852 16.2567Z" fill="white"/>
<path d="M16.1817 6.81637L16.7807 6.9875L16.1817 6.36005L15.6113 6.9875L16.1817 6.81637Z" fill="#E1EBF0"/>
<path d="M16.1817 7.44386L16.7807 6.98753L16.1817 6.81641L15.6113 6.98753L16.1817 7.44386Z" fill="#C2CBD4"/>
<path d="M15.582 6.93051L15.6106 6.98755V6.7879L15.582 6.93051Z" fill="#EFF7F9"/>
<path d="M15.1543 8.29946L16.181 8.69875L17.2363 8.29946L17.1222 7.9287L18.1489 6.70232L16.4092 4.79144L16.2381 4.877L16.181 4.90553L16.7514 6.78788L16.78 6.98752L16.8085 6.93048L16.837 7.01604L16.78 6.98752L16.181 7.44385L15.6106 6.98752L15.5536 7.01604L15.1543 8.29946Z" fill="#EFF7F9"/>
<path d="M15.5547 7.01604L15.6117 6.98752L15.5832 6.93048L15.5547 7.01604Z" fill="white"/>
<path d="M15.3255 10.0962L16.1811 9.81103L17.0652 10.0962L17.5215 9.29766L17.2363 8.29944L16.1811 8.69873L15.1543 8.29944L14.8691 9.29766L15.3255 10.0962Z" fill="#7A8694"/>
<path d="M14.5547 10.3529L15.3247 10.0962L14.8684 9.29767L14.8114 9.46879L14.5547 10.3529Z" fill="white"/>
<path d="M15.7246 24.4991L15.7531 25.0125L16.1809 24.7272L15.7246 24.4991Z" fill="#C6CED0"/>
<path d="M15.7248 24.4991L15.1544 24.2139L14.1562 23.672L16.7515 21.5615L12.4449 20.3351L12.3594 22.0179L12.4164 22.1319L12.7872 22.959H12.5875L15.4111 25.2407L15.7533 25.0125L15.7248 24.4991Z" fill="#C2CBD4"/>
<path d="M13.9284 26.1818L14.2421 25.9822L12.4453 26.467L12.9872 26.7808L13.1583 26.6667L13.9284 26.1818Z" fill="#EFF7F9"/>
<path d="M15.2406 25.3547L15.4117 25.2406L12.5882 22.959H12.2459L10.877 23.7576L15.2406 25.3547Z" fill="#EFF7F9"/>
<path d="M12.246 22.959H12.1034L11.2763 22.9305L10.7344 22.902L10.877 23.7576L12.246 22.959Z" fill="white"/>
<path d="M10.733 22.9019L9.8774 22.8734L9.53516 25.5543L10.8756 23.7576L10.733 22.9019Z" fill="#75746B"/>
<path d="M9.87788 22.8734L9.13634 22.8449V23.2442L9.05078 24.4421L9.53563 25.5544L9.87788 22.8734Z" fill="#B6C1CE"/>
<path d="M9.05313 24.4421V24.5847L8.99609 25.5544H9.53798L9.05313 24.4421Z" fill="#75746B"/>
<path d="M12.4453 26.467L12.759 26.9234L12.9872 26.7808L12.4453 26.467Z" fill="#DEE6E8"/>
<path d="M10.8772 23.7576L9.53676 25.5544L9.30859 28.2638L10.8772 23.7576Z" fill="#E3D6C0"/>
<path d="M9.537 25.5544L8.99511 25.697L8.96659 26.1533L8.90955 27.066L7.88281 26.467L8.88103 27.9216V28.0071L9.30884 28.2638L9.537 25.5544Z" fill="#444950"/>
<path d="M8.99609 25.5544V25.697L9.53798 25.5544H8.99609Z" fill="white"/>
<path d="M9.13672 28.7486L9.45044 28.606L9.30784 28.2638L9.13672 28.7486Z" fill="#F6FBFB"/>
<path d="M9.13794 28.7487L9.30907 28.2638L8.88126 28.0071L8.82422 28.9198L8.85274 28.8913L9.13794 28.7487Z" fill="#C6CED0"/>
<path d="M12.2468 21.7611L11.819 20.8199L11.7049 20.6203L11.4197 19.9643L11.2486 19.5936L10.8493 19.7076L10.3359 20.6773L12.2468 21.7611Z" fill="#444950"/>
<path d="M11.2469 19.5936L11.4181 19.9644L12.4448 20.3351L11.4466 17.0838L11.2755 18.0535L11.1043 19.2799L10.8762 19.6792L10.8477 19.7077L11.2469 19.5936Z" fill="white"/>
<path d="M12.788 22.959L12.4172 22.1319L12.1035 22.959H12.2461H12.5884H12.788Z" fill="#F6FBFB"/>
<path d="M12.4168 22.1319L12.3598 22.0179L12.4453 20.3351L11.8179 20.82L12.2457 21.7612L10.3348 20.6774L10.3063 20.7059L10.0781 21.1622L11.276 22.9305L12.1031 22.959L12.4168 22.1319Z" fill="#C6CED0"/>
<path d="M9.87825 22.8735L10.7339 22.902L11.2758 22.9305L10.0779 21.1622L10.0494 21.2193L9.13672 22.8449L9.87825 22.8735Z" fill="#EFF7F9"/>
<path d="M9.42385 16.4563L9.36681 16.3993L9.28125 16.4849L9.42385 16.4563Z" fill="#E1EBF0"/>
<path d="M9.36681 16.3993L9.28125 16.2281V16.4848L9.36681 16.3993Z" fill="#7A8694"/>
<path d="M9.42385 16.4563L9.28125 16.4848L9.59498 16.77L9.42385 16.4563Z" fill="#C2CBD4"/>
<path d="M10.6216 18.4813L9.90862 17.2549L9.68045 16.8841L9.59489 16.7701L9.28117 16.4848L8.68224 16.8556L9.02448 16.1996L9.28117 16.4848V16.2282L9.16708 16.0285L9.13856 16L9.08152 16.1141L7.48438 16.8271L8.22591 17.6257H8.25443L10.6216 18.4813Z" fill="#EFF7F9"/>
<path d="M9.02193 16.1996L8.67969 16.8556L9.27862 16.4849L9.02193 16.1996Z" fill="white"/>
<path d="M10.308 20.7059L10.3365 20.6774L10.8499 19.7077L10.8784 19.6791L9.28125 20.1355L10.308 20.7059Z" fill="#EFF7F9"/>
<path d="M9.28029 20.1355L10.8774 19.6791L11.1056 19.2799L10.6208 18.4813L8.25355 17.6257H8.22503L8.02539 17.9964L9.28029 20.1355Z" fill="#7A8694"/>
<path d="M10.308 20.7059L9.28125 20.1355L10.0513 21.2193L10.0798 21.1622L10.308 20.7059Z" fill="#DEE6E8"/>
<path d="M6.6282 20.5062L6.59968 20.5633L6.2004 21.3048L6.17188 21.7041L6.2004 21.7326L6.6282 20.5062Z" fill="#E3D6C0"/>
<path d="M9.13683 22.8449L10.0495 21.2193L9.27943 20.1355L8.02453 17.9965L7.73933 18.5383L6.68407 20.4207L6.65555 20.4777V20.5063H6.62703L6.19922 21.7326L8.62346 22.6453L9.13683 22.8449Z" fill="white"/>
<path d="M6.17112 21.7041L6.19964 21.3048L6 21.6471L6.17112 21.7041Z" fill="#444950"/>
<path d="M11.9024 13.9465L11.931 13.2905L11.332 13.9465H11.9024Z" fill="#75746B"/>
<path d="M11.931 13.2905L11.9595 13.0339L12.045 10.8378V10.6381L12.0736 9.81104L11.5317 10.0107L11.332 13.9465L11.931 13.2905Z" fill="#F0F7FB"/>
<path d="M11.3327 13.9465L11.5323 10.0107L11.3327 10.0962L9.99219 13.9465H11.3327Z" fill="#304350"/>
<path d="M11.3346 10.0963L10.7357 10.3244L9.82301 10.6952L8.76775 11.0945L7.76953 11.4652L9.99413 13.9465L11.3346 10.0963Z" fill="#EFF7F9"/>
<path d="M7.85434 12.2924L7.88286 12.4064L7.91138 12.492L8.13955 13.1195L9.99338 13.9466L7.76878 11.4653L7.59766 11.5508L7.85434 12.2924Z" fill="#C6CED0"/>
<path d="M11.9024 14.1177V13.9465H11.332L11.7598 14.2032L11.8739 14.1177H11.9024Z" fill="white"/>
<path d="M11.3337 13.9465L10.8203 14.8592L11.7615 14.2032L11.3337 13.9465Z" fill="#E7F0F4"/>
<path d="M9.87891 15.4866L10.8201 14.8592L11.3335 13.9465H9.99299L9.87891 15.4866Z" fill="#D1DADF"/>
<path d="M9.87835 15.4866L9.99243 13.9465L8.56641 14.3458L9.13682 16L9.87835 15.4866Z" fill="#F0F7FB"/>
<path d="M9.9925 13.9465L8.13867 13.1194L8.56648 14.3458L9.9925 13.9465Z" fill="#9DABB9"/>
<path d="M13.8716 3.93585L14.0713 3.65064L12.959 3.02319V3.08023L13.8716 3.93585Z" fill="#EFF7F9"/>
<path d="M16.0672 5.30484L16.1813 4.90556L15.9816 4.79147L15.0404 4.22106L14.3274 3.82178L13.8711 3.93586L16.0672 5.30484Z" fill="#98A4B1"/>
<path d="M13.8713 3.93582L12.9586 3.0802V3.13724L12.873 3.67913L13.8713 3.93582Z" fill="#CBD5DC"/>
<path d="M16.0103 5.50448L16.0674 5.30484L13.8713 3.93585L12.7305 4.73443V4.79147L16.0103 5.50448Z" fill="#474A52"/>
<path d="M13.8713 3.93582L12.8731 3.67914L12.7305 4.7344L13.8713 3.93582Z" fill="#E1E6E5"/>
<path d="M12.7871 9.95368L12.9868 10.0107L14.8121 9.46883L14.8691 9.29771L15.1543 8.29949L15.5536 7.01607L15.5821 6.93051L15.6107 6.7879L12.6445 9.92516L12.7871 9.95368Z" fill="#E1EBF0"/>
<path d="M12.645 5.5615L12.4453 9.89661L12.645 9.92513L15.6111 6.78788V6.98752L16.1815 6.36007L16.7804 6.98752L16.7519 6.78788L16.1815 4.90553L16.0674 5.30481L16.0104 5.50446L12.7305 4.79144V4.81996L12.645 5.5615Z" fill="#7A8694"/>
<path d="M13.1594 10.0392L13.6157 10.1533L14.5569 10.3529L14.8136 9.46881L12.9883 10.0107L13.1594 10.0392Z" fill="#C2CBD4"/>
<path d="M12.1606 9.8396L12.3887 9.86812L12.4458 9.89664L12.6454 5.56152L12.2461 8.61322L12.1035 9.697V9.72552L12.1606 9.8396Z" fill="#EFF7F9"/>
<path d="M13.5859 28.2638L13.6145 28.2923H13.643L13.5859 28.2638Z" fill="#474A52"/>
<path d="M13.6437 28.2923L13.1589 26.6667L12.9877 26.7807L12.7596 26.9233L12.4458 26.467L10.8772 23.7576L9.30859 28.2638L9.4512 28.6061L10.6205 28.0071L11.305 27.6649L12.5029 27.0374L12.674 26.9804L13.4726 28.0927L13.5867 28.2638L13.6437 28.2923Z" fill="white"/>
<path d="M13.6152 28.2924V28.3209L13.6438 28.2924H13.6152Z" fill="#DEE6E8"/>
<path d="M13.9283 26.1818L13.1582 26.6667L13.6431 28.2923L16.7803 29.1765L13.9283 26.1818Z" fill="#E1EBF0"/>
<path d="M16.6096 24.9839L16.1818 24.7273L15.754 25.0125L15.4117 25.2406L15.2406 25.3547L10.877 23.7576L12.4456 26.467L14.2424 25.9822L13.9286 26.1818L16.7807 29.1765L16.6096 24.9839Z" fill="#7A8694"/>
<path d="M13.6152 28.3209L13.6438 28.3494V28.2924L13.6152 28.3209Z" fill="#C6CED0"/>
<path d="M19.0051 26.524L19.0621 26.5526L19.4044 26.7807L19.9463 26.467L18.1495 25.9822L17.1513 25.3547L21.5149 23.7576L20.1459 22.959H19.7752L16.9801 25.2406L16.6379 25.0125L16.6094 24.9839L16.7805 29.1765L19.0051 26.524Z" fill="#EFF7F9"/>
<path d="M17.7497 29.7754L16.78 29.1765L15.1543 30.4884L15.5821 31.1158L17.2363 30.5169L17.7497 29.7754Z" fill="#EFF7F9"/>
<path d="M18.6351 28.5205L19.0058 26.524L16.7812 29.1765L17.7509 29.7754L18.464 28.7486L18.6351 28.5205Z" fill="white"/>
<path d="M19.4047 26.7808L19.0625 26.5526L19.6614 27.0375L19.7185 26.9804L19.6329 26.9234L19.4047 26.7808Z" fill="#98A4B1"/>
<path d="M19.0055 26.524L18.6348 28.5205L18.92 28.0927L19.1481 27.7504L19.0055 26.524Z" fill="#75746B"/>
<path d="M19.0609 26.5526L19.0039 26.524L19.1465 27.7504L19.6599 27.0374L19.0609 26.5526Z" fill="#B6C1CE"/>
<path d="M16.6373 31.3725L17.2362 30.5169L15.582 31.1158L15.7532 31.3725L16.0098 31.7148L16.181 32L16.3806 31.7148L16.6373 31.3725Z" fill="#7A8694"/>
<g style="mix-blend-mode:lighten">
<path d="M21.2873 19.2798L19.6046 22.959L16.1821 24.7273L12.7882 22.959L11.1055 19.2798L11.904 14.1176L14.5564 10.3529L16.1821 9.81104L17.8363 10.3529L20.4887 14.1176L21.2873 19.2798Z" fill="url(#paint0_linear_111_3507)"/>
</g>
</g>
<defs>
<linearGradient id="paint0_linear_111_3507" x1="19.2483" y1="12.3715" x2="13.1265" y2="23.1681" gradientUnits="userSpaceOnUse">
<stop stop-color="white"/>
<stop offset="1"/>
</linearGradient>
</defs>
</svg>
