<svg width="32" height="32" viewBox="0 0 32 32" fill="none" xmlns="http://www.w3.org/2000/svg">
<mask id="mask0_111_3248" style="mask-type:alpha" maskUnits="userSpaceOnUse" x="0" y="0" width="32" height="32">
<rect width="32" height="32" fill="#D9D9D9"/>
</mask>
<g mask="url(#mask0_111_3248)">
<path d="M26.1504 20.1102L27.9631 19.4399V15.312L26.1504 20.1102Z" fill="#808890"/>
<path d="M26.1504 20.1103L27.9631 21.6274V19.4399L26.1504 20.1103Z" fill="#475875"/>
<path d="M26.1504 20.1102L27.093 25.0143L27.9631 24.7673V21.6273L26.1504 20.1102Z" fill="white"/>
<path d="M27.0918 25.0143L27.9619 25.7552V24.7673L27.0918 25.0143Z" fill="#A3B1BC"/>
<path d="M27.0922 25.0143L26.7297 27.4487L25.352 26.8842L24.627 27.731L27.1285 28.8247C27.346 28.613 27.5998 28.3661 27.8535 28.1191L27.636 27.8016L27.9986 27.9427V25.7552L27.0922 25.0143Z" fill="white"/>
<path d="M27.7819 4.0926L25.2441 5.25687V5.46856V5.71553V7.90296L27.9632 4.05731V4.02203L27.7819 4.0926Z" fill="#182631"/>
<path d="M25.2456 7.90296V9.20836L24.2305 10.6549L25.2456 10.5843V10.5138L27.9646 10.3726V4.05731L25.2456 7.90296Z" fill="#7A8694"/>
<path d="M25.2456 10.5138V10.5844L24.2305 10.6549L25.2456 11.8898V13.054L26.1157 14.1478L27.9646 11.6428V10.3727L25.2456 10.5138Z" fill="#EFF7F9"/>
<path d="M26.1152 14.1477L27.9642 15.1709V11.6428L26.1152 14.1477Z" fill="white"/>
<path d="M26.1142 14.1478L25.2441 15.7707V17.0055L27.9632 15.2415V15.1709L26.1142 14.1478Z" fill="#98A4B1"/>
<path d="M25.2463 17.0055V17.5347V17.6053L25.1738 17.6759L25.2463 17.7464V18.0287V18.946L26.1527 20.1103L27.9654 15.312V15.2415L25.2463 17.0055Z" fill="#E1EBF0"/>
<path d="M25.2455 14.5006L23.3603 14.8534L23.3241 14.9592L23.0703 14.9945V15.2415L23.1428 15.8413V15.9824L23.2153 16.4058L25.173 17.6759L25.2455 17.5348V17.0055V15.7707L26.1156 14.1478L25.2455 14.3242V14.5006Z" fill="#B6C1CE"/>
<path d="M25.2441 22.4035L26.1505 20.1103L25.2441 18.946V22.4035Z" fill="#E5EDF0"/>
<path d="M25.2441 22.4035V22.6505L27.0931 25.0143L26.1505 20.1102L25.2441 22.4035Z" fill="#EFF7F9"/>
<path d="M25.2438 22.6505V23.0386V25.5083L25.0625 26.0375L25.2438 26.8843H25.28L27.0927 25.0144L25.2438 22.6505Z" fill="white"/>
<path d="M25.2812 26.8842L25.3175 26.9195L26.7314 27.4487L27.0939 25.0143L25.2812 26.8842Z" fill="#B6C1CE"/>
<path d="M24.448 27.6604L24.2305 27.8368L24.593 27.731L24.448 27.6604Z" fill="#E5EDF0"/>
<path d="M25.2811 26.8842H25.2448L24.8098 27.2723L24.7735 27.3429L24.4473 27.6604L24.5923 27.731L25.3174 26.9195L25.2811 26.8842Z" fill="#EFF7F9"/>
<path d="M23.3594 30.8357L23.8669 32C23.9757 31.8941 24.0845 31.7883 24.1932 31.6824L23.3594 30.8357Z" fill="#75746B"/>
<path d="M24.5922 27.731L24.2297 27.8368L24.0122 28.0485L22.9608 29.0716L22.852 29.1775L22.707 29.2128V29.2833L23.2508 30.5534L23.3596 30.8004V30.8357L24.1572 31.6824C24.3747 31.4708 24.556 31.2944 24.7372 31.1179L24.5922 27.731Z" fill="#F0F7FB"/>
<path d="M27.6016 27.8369L27.8191 28.1544C27.8553 28.1191 27.9278 28.0485 27.9641 28.0133L27.6016 27.8369Z" fill="#B6C1CE"/>
<path d="M24.5918 27.731L24.7731 31.0827C25.0268 30.8357 25.2806 30.5887 25.5344 30.3418L24.5918 27.731Z" fill="#304350"/>
<path d="M24.5918 27.731L25.5344 30.3418C26.0419 29.8478 26.5495 29.3539 27.0933 28.8247L24.5918 27.731Z" fill="#EFF7F9"/>
<path d="M10.598 0.423374L10.1629 0H8.45898L10.598 0.423374Z" fill="#7A8694"/>
<path d="M10.5991 0.423374L11.2879 0H10.1641L10.5991 0.423374Z" fill="#EFF7F9"/>
<path d="M8.60606 1.16428L8.64232 1.19956L10.6 0.423374L8.46105 0H8.13477L8.60606 1.16428Z" fill="#98A4B1"/>
<path d="M10.5996 0.423374L12.9561 0H11.2884L10.5996 0.423374Z" fill="#CBD5DC"/>
<path d="M11.8672 0.987899L10.5983 0.423401L8.64062 1.19959L8.71313 1.41127L11.8672 0.987899Z" fill="#474A52"/>
<path d="M10.5996 0.423374L11.8685 0.987872L13.935 0H12.9561L10.5996 0.423374Z" fill="#E1E6E5"/>
<path d="M17.7763 0.952591L17.4863 0H15.166L17.7763 0.952591Z" fill="#F3F6F1"/>
<path d="M17.7764 0.952591L18.0301 0H17.4863L17.7764 0.952591Z" fill="#E7F0F4"/>
<path d="M11.8672 0.987872L15.1663 1.58765L14.55 0H13.9337L11.8672 0.987872Z" fill="#444950"/>
<path d="M15.1671 1.58765L17.7774 0.952591L15.1671 0H14.5508L15.1671 1.58765Z" fill="#EFF7F9"/>
<path d="M17.7754 0.952591L20.3494 0H18.0292L17.7754 0.952591Z" fill="#A3B1BC"/>
<path d="M18.1751 2.68135H18.4289L17.7763 0.952576L15.166 1.58764L18.1751 2.68135Z" fill="#808890"/>
<path d="M17.7754 0.952591L18.428 2.68137H18.573L20.857 0H20.3494L17.7754 0.952591Z" fill="#475875"/>
<path d="M18.5742 2.68137H19.0818L21.7646 2.18743L21.1482 0H20.8582L18.5742 2.68137Z" fill="white"/>
<path d="M21.7648 2.18743L23.6137 0H21.1484L21.7648 2.18743Z" fill="#A3B1BC"/>
<path d="M21.7656 2.18743L22.8532 2.32856L22.7082 2.68137L22.8895 2.85777L22.672 3.10474L22.5995 3.77508L23.6508 3.59868L24.1946 4.09261L23.6508 4.51599L25.0285 4.90408L24.8834 4.79824L25.5723 4.97464L25.246 5.11577V5.25689L27.7838 4.09261L26.1523 4.72767L24.1946 2.89305L23.4696 3.42227L23.1433 3.06946L24.1946 2.89305L23.5421 0.705623L23.6871 0.423374L23.7233 0.352811L23.8683 0H23.6146L21.7656 2.18743Z" fill="white"/>
<path d="M10.163 2.68135L10.8881 3.17529L12.0845 3.5281L12.012 2.68135H11.9757L11.867 0.987854L8.71289 1.41123L9.2567 2.68135H10.163Z" fill="#7A8694"/>
<path d="M11.9757 2.68135H12.0119L12.0844 3.5281L10.888 3.17529L10.1992 2.9636L10.3442 5.22159L12.4107 3.63394L12.5195 3.66922L13.8246 2.68135H14.2596L11.8669 0.987854L11.9757 2.68135Z" fill="#EFF7F9"/>
<path d="M14.2592 2.68135H13.8241L12.519 3.66922L12.4102 3.63394L10.3438 5.22159L10.5975 5.32744L10.9601 5.25687L12.1927 5.15103L12.6277 3.7045L12.7728 3.73978L13.8966 4.09259L14.3317 2.68135H14.5492L15.1655 1.58763L11.8664 0.987854L14.2592 2.68135Z" fill="white"/>
<path d="M14.5508 2.68136H15.4209L16.8348 3.38699L16.3272 2.68136H15.9284L15.1671 1.58765L14.5508 2.68136Z" fill="#98A4B1"/>
<path d="M15.9273 2.68136H16.3261L16.8337 3.38699L17.7763 2.68136H18.1751L15.166 1.58765L15.9273 2.68136Z" fill="#E1EBF0"/>
<path d="M19.8434 2.68138L20.1334 2.78722L20.2784 2.68138H21.1122L21.7648 2.18744L19.082 2.68138H19.8434Z" fill="#EFF7F9"/>
<path d="M21.1117 2.68138H20.2778L20.1328 2.78722L21.2567 3.10475L22.6343 2.71666H22.7068V2.68138H22.308L21.7642 2.18744L21.1117 2.68138Z" fill="white"/>
<path d="M22.3094 2.68138H22.7082L22.8532 2.32856L21.7656 2.18744L22.3094 2.68138Z" fill="#B6C1CE"/>
<path d="M24.0489 0.176406C23.9764 0.105843 23.9402 0.0705623 23.8677 0L23.7227 0.352811L24.0489 0.176406Z" fill="#4A4D53"/>
<path d="M23.6836 0.42336L24.1911 0.317516C24.1549 0.282235 24.0824 0.211673 24.0461 0.176392L23.7198 0.352797L23.6836 0.42336Z" fill="#E1EBF0"/>
<path d="M23.5391 0.7056L24.1554 2.85775L25.3518 1.4465C24.9892 1.09369 24.5904 0.7056 24.1554 0.282227L23.6478 0.38807L23.5391 0.7056Z" fill="#A3B1BC"/>
<path d="M24.1934 2.89306L27.2749 3.31643C26.5861 2.64609 26.006 2.08159 25.3897 1.48181L24.1934 2.89306Z" fill="white"/>
<path d="M23.1426 3.06947L23.4689 3.42228L24.1939 2.89307L23.1426 3.06947Z" fill="#EFF7F9"/>
<path d="M24.1934 2.89307L26.1873 4.76297L27.8187 4.09263L27.9638 4.02206L28 3.98678C27.7462 3.73981 27.5287 3.52813 27.3112 3.31644L24.1934 2.89307Z" fill="#B6C1CE"/>
<path d="M25.1738 5.71554H25.2463V5.46857L25.1738 5.71554Z" fill="white"/>
<path d="M25.1367 5.64496L25.172 5.71552L25.1367 5.60968V5.64496Z" fill="#DEE6E8"/>
<path d="M25.1731 5.71558L24.2305 10.6549L25.2456 9.20841V7.90301V5.71558H25.1731Z" fill="#E1EBF0"/>
<path d="M25.1713 5.71553H25.0988V5.78609L22.416 5.53912L22.5248 7.2679L24.2287 10.3726L24.1925 10.5843L24.2287 10.6549L25.1713 5.71553Z" fill="#C2CBD4"/>
<path d="M24.1911 10.5844L24.2274 10.3727L22.5234 7.26794L22.6685 9.34953L22.741 10.3727L23.4298 13.1952L23.9011 11.9956L24.1186 10.9372L24.2274 10.6549L24.1911 10.5844Z" fill="#EFF7F9"/>
<path d="M23.9029 11.9956L23.4316 13.1952L23.6492 13.2304H23.6854L25.2443 13.6538V13.9008L26.1144 14.1477L25.2443 13.054V11.8897L24.2292 10.6549L24.1205 10.9372L23.9029 11.9956Z" fill="white"/>
<path d="M25.1738 17.6759L25.2463 17.6053V17.5347L25.1738 17.6759Z" fill="#98A4B1"/>
<path d="M25.2458 13.6538L23.6869 13.2304H23.6506L23.4331 13.1951L22.998 13.6891L23.0706 14.9945L23.3243 14.9592L23.3606 14.8533L25.2458 14.5005V14.3241L26.1159 14.1477L25.2458 13.9008V13.6538Z" fill="#75746B"/>
<path d="M25.2463 18.0287V17.7464L25.1738 17.6758L25.2463 18.0287Z" fill="#E5EDF0"/>
<path d="M23.2137 16.4057L23.1412 15.9824L23.105 16.2646L22.9237 18.9107L22.6699 22.5799L24.0476 20.71L23.83 19.5458L25.1714 17.6759L23.2137 16.4057Z" fill="#75746B"/>
<path d="M23.8321 19.5457L24.0496 20.71L22.6719 22.5799L22.9257 18.9107L20.6055 19.9338L22.6357 23.3208V23.0739L24.4846 22.9327L24.4484 22.6858L25.246 22.6505V22.4035V18.946V18.0287L25.1734 17.6758L23.8321 19.5457Z" fill="#F0F7FB"/>
<path d="M24.5567 23.3914L24.6655 23.9912L22.5265 25.0849L22.4902 25.4377L23.3966 26.6725L24.6292 26.8137L24.9555 26.8489L25.2455 26.8842L25.0643 26.0375L25.2455 25.5083V23.0386L24.5567 23.3914Z" fill="#EFF7F9"/>
<path d="M24.6275 26.8137L23.3949 26.6726L22.706 26.602L22.416 26.5667L22.4523 26.9195L22.4885 27.3429L22.561 27.8721L24.7 27.2723L24.6275 26.8137Z" fill="white"/>
<path d="M24.9532 26.8489L24.627 26.8137L24.6995 27.2723L24.9532 26.8489Z" fill="#A3B1BC"/>
<path d="M24.9549 26.8489L24.7012 27.2723H24.8099L25.245 26.8842L24.9549 26.8489Z" fill="white"/>
<path d="M22.6699 28.8953L22.7062 29.2128L22.8512 29.1775L22.96 29.0717L22.6699 28.8953Z" fill="#E5EDF0"/>
<path d="M24.6995 27.2723L22.5605 27.8721L22.6693 28.8953L22.9593 29.0717L24.0107 28.0485L24.6995 27.2723Z" fill="#EFF7F9"/>
<path d="M24.4487 27.6604L24.775 27.3429L24.7025 27.2723L24.0137 28.0485L24.2312 27.8368L24.4487 27.6604Z" fill="white"/>
<path d="M24.7737 27.3429L24.8099 27.2723H24.7012L24.7737 27.3429Z" fill="#B6C1CE"/>
<path d="M10.2004 2.96365L10.8892 3.17533L10.1642 2.6814H9.25781L10.2004 2.96365Z" fill="#E1EBF0"/>
<path d="M14.1865 4.1632L14.8753 4.37489L14.5491 2.6814H14.3315L13.8965 4.09264L14.1865 4.1632Z" fill="#75746B"/>
<path d="M14.8771 4.37489H14.9133L15.2396 4.48073L15.4209 4.5513L15.9284 4.69242L16.8348 3.38702L15.4209 2.6814H14.5508L14.8771 4.37489Z" fill="#B6C1CE"/>
<path d="M17.7746 2.6814L16.832 3.38702L20.1311 2.78724L19.8411 2.6814H19.0798H18.5722H18.4272H18.1734H17.7746Z" fill="#E5EDF0"/>
<path d="M15.9277 4.69237L16.0002 4.72765L17.1604 4.83349L18.5018 5.0099H20.2419L18.6468 3.91618L17.9217 4.12787L16.8341 3.38696L15.9277 4.69237Z" fill="#75746B"/>
<path d="M17.9196 4.12792L18.6447 3.91623L20.2399 5.00994L20.1311 3.45757H20.1674L20.1311 2.78723L16.832 3.38701L17.9196 4.12792Z" fill="#F0F7FB"/>
<path d="M20.1691 3.45757H20.1328L20.2416 5.00994H21.6555L20.7129 3.28117L20.4228 3.35173L20.1328 2.78723L20.1691 3.45757Z" fill="#304350"/>
<path d="M22.7068 2.71667H22.6343L21.2567 3.10477L20.1328 2.78724L20.4228 3.35174L20.7129 3.28117L21.6555 5.00995L22.5256 4.37489L22.5618 4.09264L23.6494 4.51601L24.1932 4.09264L23.6494 3.5987L22.5981 3.77511L22.6706 3.10477L22.7068 2.71667Z" fill="#EFF7F9"/>
<path d="M22.4901 4.76297V4.72769L22.5263 4.37488L21.6562 5.00994L22.4901 4.76297Z" fill="#C6CED0"/>
<path d="M19.8433 5.15107L20.2421 5.00995H18.502L19.8433 5.15107Z" fill="white"/>
<path d="M19.8438 5.15107L20.4238 5.22164L20.2425 5.00995L19.8438 5.15107Z" fill="#E7F0F4"/>
<path d="M20.2402 5.00995L20.4215 5.22164L21.2916 5.2922L21.6904 5.36276L21.6541 5.00995H20.2402Z" fill="#D1DADF"/>
<path d="M22.4538 5.15103L22.4901 4.76294L21.6562 5.00991L22.4538 5.15103Z" fill="#9DABB9"/>
<path d="M10.0547 5.36274L9.58337 5.4333L9.51086 6.24477V6.52702L9.47461 6.87983V6.98567L12.3024 8.32636L10.961 5.2569L10.5985 5.32746L10.0547 5.36274Z" fill="#7A8694"/>
<path d="M12.3023 8.32633L14.6951 4.86877L13.0274 5.04518L12.1936 5.15102L10.9609 5.25687L12.3023 8.32633Z" fill="#EFF7F9"/>
<path d="M12.3014 8.32634L9.47362 6.98566L9.32861 8.92612L9.29236 9.42006L9.18359 11.29L12.3014 8.32634Z" fill="#98A4B1"/>
<path d="M17.4488 6.17419L17.1588 4.8335L15.9987 4.72766L15.3098 4.79822L14.9111 4.8335L14.6935 4.86879L12.3008 8.32634L17.4488 6.17419Z" fill="#CBD5DC"/>
<path d="M17.4502 6.17418L18.5015 5.0099L17.1602 4.8335L17.4502 6.17418Z" fill="#E5EDF0"/>
<path d="M14.0064 10.1257L12.3025 8.32635L9.18469 11.29L9.14844 11.8192L14.0064 10.1257Z" fill="#474A52"/>
<path d="M17.4488 6.17419L12.3008 8.32634L14.0047 10.1257L17.4488 6.17419Z" fill="#E1E6E5"/>
<path d="M17.4512 6.17423L21.8741 10.0904L21.2941 5.2922L20.424 5.22164L19.8439 5.15107L18.5025 5.00995L17.4512 6.17423Z" fill="#F3F6F1"/>
<path d="M21.2949 5.29218L21.875 10.0904L22.4188 5.53914V5.4333L21.6937 5.36274L21.2949 5.29218Z" fill="#E7F0F4"/>
<path d="M18.4288 12.1014L17.45 6.17419L14.0059 10.1257L18.4288 12.1014Z" fill="#444950"/>
<path d="M17.4512 6.17419L18.43 12.1014L21.8741 10.0904L17.4512 6.17419Z" fill="#EFF7F9"/>
<path d="M21.875 10.0904L22.6726 9.34949L22.5276 7.2679L22.4188 5.53912L21.875 10.0904Z" fill="#A3B1BC"/>
<path d="M18.4277 12.1014L22.8144 15.9823L21.8718 10.0904L18.4277 12.1014Z" fill="#808890"/>
<path d="M21.875 10.0904L22.8176 15.9823L23.0714 15.2414V14.9945L22.9989 13.6891L22.9626 13.4421L22.9264 12.7365L22.7451 10.3726L22.6726 9.34949L21.875 10.0904Z" fill="#475875"/>
<path d="M22.8145 15.9824L23.1407 15.8412L23.0682 15.2415L22.8145 15.9824Z" fill="white"/>
<path d="M9.07617 19.4752L9.14868 20.3925L9.91001 19.9339L9.07617 19.4752Z" fill="#474A52"/>
<path d="M9.14844 20.3925L9.18469 20.7806L9.90977 19.9338L9.14844 20.3925Z" fill="#DEE6E8"/>
<path d="M9.90854 19.9338L14.3315 21.9096L9.03845 13.2304L8.92969 14.9592L9.90854 19.9338Z" fill="#E1EBF0"/>
<path d="M14.3321 21.9096L14.0058 10.1257L9.14782 11.8192L9.03906 13.2304L14.3321 21.9096Z" fill="#7A8694"/>
<path d="M10.5263 26.6725L14.333 21.9096L9.91003 19.9338L9.65625 26.5667L10.2726 26.6373L10.5263 26.6725Z" fill="#C2CBD4"/>
<path d="M17.45 16.0529L14.0059 10.1257L14.3321 21.9096L17.45 16.0529Z" fill="#EFF7F9"/>
<path d="M17.45 16.0529L18.4288 12.1014L14.0059 10.1257L17.45 16.0529Z" fill="white"/>
<path d="M10.5273 26.6726L11.4337 26.7784L16.5092 23.9206L14.334 21.9096L10.5273 26.6726Z" fill="#EFF7F9"/>
<path d="M16.5073 23.9206L17.4499 16.0529L14.332 21.9096L16.5073 23.9206Z" fill="white"/>
<path d="M18.43 12.1014L17.4512 16.0529L20.6053 19.9339L18.43 12.1014Z" fill="#98A4B1"/>
<path d="M22.8144 15.9824L18.4277 12.1014L20.603 19.9339L22.8144 15.9824Z" fill="#E1EBF0"/>
<path d="M16.5078 23.9206L18.0305 27.0254H18.3568L17.4504 16.0529L16.5078 23.9206Z" fill="#75746B"/>
<path d="M17.4509 16.0529L18.3573 27.0254H18.031L17.2334 27.1312H17.0884L16.9434 27.3782L17.8134 27.8015L18.0672 27.9074L19.2273 28.2602L18.9736 26.9548L18.6473 26.9901L20.605 19.9338L17.4509 16.0529Z" fill="#B6C1CE"/>
<path d="M20.6055 19.9338L22.9257 18.9107L23.107 16.2646L22.817 15.9824L20.6055 19.9338Z" fill="#E5EDF0"/>
<path d="M22.8145 15.9824L23.1045 16.2646L23.1407 15.9824V15.8412L22.8145 15.9824Z" fill="#EFF7F9"/>
<path d="M18.6465 26.9901L18.9728 26.9548L19.2265 28.2602L19.3716 28.2955L19.7704 26.8489L21.4018 26.6725L21.9456 26.602L22.4169 26.5667L22.4531 25.7199L22.4894 25.4377L22.5256 25.0849L22.6344 23.3208L20.6042 19.9338L18.6465 26.9901Z" fill="#75746B"/>
<path d="M16.5072 23.9206L11.4316 26.7784H11.5404L12.1205 26.8489L13.4619 26.9901L15.3108 27.2017L16.5072 23.9206Z" fill="#7A8694"/>
<path d="M16.5069 23.9206L15.3105 27.2017L15.9994 27.2723L16.6882 27.2017L17.087 27.1312H17.232L16.5069 23.9206Z" fill="white"/>
<path d="M16.5078 23.9206L17.2329 27.1312L18.0305 27.0253L16.5078 23.9206Z" fill="#E3D6C0"/>
<path d="M22.7062 2.71668L22.6699 3.10477L22.8874 2.8578L22.7062 2.6814V2.71668Z" fill="#475875"/>
<path d="M22.5627 4.09259L22.5265 4.37484L22.4902 4.72765L23.6504 4.51596L22.5627 4.09259Z" fill="#E5EDF0"/>
<path d="M22.4901 4.72768V4.76296L22.4538 5.15105L21.6562 5.00993L21.6925 5.36274L22.4176 5.4333L23.7227 5.29218L23.6502 4.51599L22.4901 4.72768Z" fill="#F0F7FB"/>
<path d="M23.7209 5.29218L24.0472 5.2569L23.6484 4.51599L23.7209 5.29218Z" fill="#304350"/>
<path d="M24.0472 5.2569L25.0261 5.15105L25.1711 5.11577H25.2436L25.5699 4.97465L24.8811 4.79824L25.0261 4.90408L23.6484 4.51599L24.0472 5.2569Z" fill="#EFF7F9"/>
<path d="M9.54712 5.08048L10.3447 5.22161L9.47461 4.62183L9.54712 5.08048Z" fill="#E1EBF0"/>
<path d="M9.43908 4.12792L9.47534 4.62186L10.3454 5.22164L10.2004 2.96365L9.25781 2.6814V2.75196L9.29407 3.06949L9.43908 4.12792Z" fill="#7A8694"/>
<path d="M9.54688 5.08051L9.58313 5.43332L10.0544 5.36275L10.3445 5.22163L9.54688 5.08051Z" fill="#C2CBD4"/>
<path d="M10.0527 5.36274L10.5965 5.32746L10.3428 5.22162L10.0527 5.36274Z" fill="#EFF7F9"/>
<path d="M14.9126 4.37483H14.8763L14.1875 4.16315L15.0576 4.6218L14.9126 4.37483Z" fill="#98A4B1"/>
<path d="M15.2384 4.48072L14.9121 4.37488L15.0571 4.62185L15.2384 4.48072Z" fill="#E1EBF0"/>
<path d="M13.0272 5.04521L12.7734 3.73981L12.6284 3.70453L12.1934 5.15106L13.0272 5.04521Z" fill="#75746B"/>
<path d="M13.0253 5.04521L14.6929 4.8688L14.9105 4.83352L15.0555 4.62184L14.1854 4.16318L13.8954 4.09262L12.7715 3.73981L13.0253 5.04521Z" fill="#B6C1CE"/>
<path d="M15.4211 4.55128L15.2399 4.48071L15.0586 4.62184L15.4211 4.55128Z" fill="#E5EDF0"/>
<path d="M15.3109 4.79823L15.0571 4.62183L14.9121 4.83351L15.3109 4.79823Z" fill="#75746B"/>
<path d="M15.3124 4.79824L16.0012 4.72768L15.9287 4.69239L15.4211 4.55127L15.0586 4.62183L15.3124 4.79824Z" fill="#F0F7FB"/>
<path d="M22.5234 25.0849L24.6624 23.9912L24.5536 23.3914L25.2425 23.0386V22.6505L24.4449 22.6858L24.4811 22.9328L22.6322 23.0739V23.3209L22.5234 25.0849Z" fill="#304350"/>
<path d="M22.7069 26.602L23.3957 26.6725L22.4894 25.4377L22.4531 25.7199L22.7069 26.602Z" fill="#C6CED0"/>
<path d="M22.706 26.602L22.4523 25.72L22.416 26.5667L22.706 26.602Z" fill="#9DABB9"/>
<path d="M25.173 5.11578L25.2092 5.25691L25.173 5.4686L25.1367 5.60972L25.173 5.71556L25.2455 5.4686V5.25691V5.11578H25.173Z" fill="#474A52"/>
<path d="M25.1724 5.4686L25.2086 5.25691L25.1724 5.11578L25.0273 5.15106L25.1724 5.4686Z" fill="#DEE6E8"/>
<path d="M22.416 5.53915L25.0988 5.78612V5.71556H25.1713L25.135 5.645V5.60972L25.1713 5.46859L25.0263 5.15106L24.0474 5.25691L23.7212 5.29219L22.416 5.43331V5.53915Z" fill="#C6CED0"/>
<path d="M22.9235 12.7365L23.431 13.1952L22.7422 10.3727L22.9235 12.7365Z" fill="#7A8694"/>
<path d="M22.9238 12.7365L22.9601 13.4421L23.4314 13.1952L22.9238 12.7365Z" fill="white"/>
<path d="M22.959 13.4421L22.9952 13.6891L23.4303 13.1951L22.959 13.4421Z" fill="#E3D6C0"/>
<path d="M5.84894 11.8545L4 12.5601V16.6527L5.84894 11.8545Z" fill="#808890"/>
<path d="M5.84894 11.8545L4 10.3727V12.5601L5.84894 11.8545Z" fill="#475875"/>
<path d="M5.84894 11.8545L4.90634 6.95038L4 7.19735V10.3726L5.84894 11.8545Z" fill="white"/>
<path d="M4.90634 6.95038L4 6.20947V7.19734L4.90634 6.95038Z" fill="#A3B1BC"/>
<path d="M4.90634 6.95038L5.26888 4.51598L6.64653 5.08047L7.3716 4.23373L4.87009 3.17529C4.65257 3.38698 4.39879 3.63395 4.14502 3.88092L4.36254 4.16317L4 4.02204V6.24475L4.90634 6.95038Z" fill="white"/>
<path d="M4.18127 27.9074L6.75529 26.7078V26.5314V26.2845V24.097L4 27.9427V27.978L4.03625 27.9427L4.18127 27.9074Z" fill="#182631"/>
<path d="M6.75529 24.097V22.7563L7.77039 21.3451L6.75529 21.4157V21.4509L4 21.6273V27.9427L6.75529 24.097Z" fill="#7A8694"/>
<path d="M6.75529 21.4509V21.4156L7.77039 21.3451L6.75529 20.0749V18.9107L5.8852 17.817L4 20.3572V21.6273L6.75529 21.4509Z" fill="#EFF7F9"/>
<path d="M5.8852 17.817L4 16.7938V20.3572L5.8852 17.817Z" fill="white"/>
<path d="M5.8852 17.817L6.75529 16.1941V14.9592L4 16.7586V16.7938L5.8852 17.817Z" fill="#98A4B1"/>
<path d="M6.75529 14.9592V14.43V14.3595L6.82779 14.3242L6.75529 14.2536V13.9714V13.0188L5.84894 11.8545L4 16.6527V16.7586L6.75529 14.9592Z" fill="#E1EBF0"/>
<path d="M6.75681 18.0639V18.3462L8.31572 18.7696V18.7343L8.53324 18.8048L9.00454 18.2756L8.89578 16.9702L8.64201 17.0408L8.60575 17.1466L6.75681 17.4994V17.6758L5.88672 17.817L6.75681 18.0639Z" fill="#75746B"/>
<path d="M6.75681 17.6759V17.4995L8.60575 17.1466L8.64201 17.0408L8.89578 16.9702L8.85953 15.9824L8.75077 15.5943L6.82932 14.3242L6.75681 14.43V14.9592V16.1941L5.88672 17.817L6.75681 17.6759Z" fill="#B6C1CE"/>
<path d="M6.75595 9.5965L5.84961 11.8545L6.75595 13.0188V9.5965Z" fill="#E5EDF0"/>
<path d="M6.75519 9.59646V9.3495V9.31421L4.90625 6.95038L5.84885 11.8545L6.75519 9.59646Z" fill="#EFF7F9"/>
<path d="M6.75519 9.31424V8.96143V6.49175L6.90021 5.92725L6.75519 5.11578H6.71894L4.90625 6.9504L6.75519 9.31424Z" fill="white"/>
<path d="M6.71894 5.11577L6.64643 5.08049L5.26879 4.51599L4.90625 6.95039L6.71894 5.11577Z" fill="#B6C1CE"/>
<path d="M7.55236 4.33956L7.73363 4.12787L7.37109 4.23371L7.55236 4.33956Z" fill="#E5EDF0"/>
<path d="M6.75329 5.11579L7.18834 4.69242L7.22459 4.65714L7.55088 4.33961L7.36961 4.23376L6.64453 5.08051L6.71704 5.11579H6.75329Z" fill="#EFF7F9"/>
<path d="M8.60227 1.16428L8.13097 0C8.02221 0.105843 7.91345 0.211687 7.80469 0.31753L8.60227 1.16428Z" fill="#75746B"/>
<path d="M7.37158 4.23372L7.73412 4.12787L7.95164 3.91618L9.003 2.89303L9.11176 2.78719L9.25677 2.75191V2.68134L8.71297 1.41122L8.60421 1.16426V1.12897L7.80662 0.282227C7.5891 0.493913 7.40783 0.7056 7.22656 0.882006L7.37158 4.23372Z" fill="#F0F7FB"/>
<path d="M4.36254 4.16317L4.14502 3.84564C4.10876 3.88092 4.03625 3.95149 4 3.98677L4.36254 4.16317Z" fill="#B6C1CE"/>
<path d="M7.37119 4.23373L7.22617 0.882019C6.93614 1.12899 6.68237 1.37596 6.46484 1.62292L7.37119 4.23373Z" fill="#304350"/>
<path d="M7.3726 4.23373L6.46626 1.62292C5.92245 2.11686 5.45115 2.6108 4.87109 3.1753L7.3726 4.23373Z" fill="#EFF7F9"/>
<path d="M21.4004 31.5766L21.8354 32H23.5031L21.4004 31.5766Z" fill="#7A8694"/>
<path d="M21.4017 31.5766L20.7129 32H21.8368L21.4017 31.5766Z" fill="#EFF7F9"/>
<path d="M23.3581 30.8357V30.8004L21.4004 31.5766L23.5031 32H23.8656L23.3581 30.8357Z" fill="#98A4B1"/>
<path d="M21.4006 31.5766L19.0078 32H20.7117L21.4006 31.5766Z" fill="#CBD5DC"/>
<path d="M20.0957 31.0121L21.4008 31.5766L23.3585 30.8004L23.2498 30.5535L20.0957 31.0121Z" fill="#474A52"/>
<path d="M21.4018 31.5766L20.0966 31.0121L18.0664 32H19.009L21.4018 31.5766Z" fill="#E1E6E5"/>
<path d="M14.2227 31.0474L14.5127 32H16.8329L14.2227 31.0474Z" fill="#F3F6F1"/>
<path d="M14.2236 31.0474L13.9336 32H14.5137L14.2236 31.0474Z" fill="#E7F0F4"/>
<path d="M20.0979 31.0121L16.7988 30.4124L17.4151 32H18.0677L20.0979 31.0121Z" fill="#444950"/>
<path d="M16.7967 30.4124L14.2227 31.0474L16.8329 32H17.413L16.7967 30.4124Z" fill="#EFF7F9"/>
<path d="M14.2236 31.0474L11.6133 32H13.9335L14.2236 31.0474Z" fill="#A3B1BC"/>
<path d="M13.8241 29.3186H13.5703L14.2229 31.0474L16.7969 30.4123L13.8241 29.3186Z" fill="#808890"/>
<path d="M14.2241 31.0474L13.5716 29.3186H13.4266L11.1426 32H11.6139L14.2241 31.0474Z" fill="#475875"/>
<path d="M13.4258 29.3186H12.9183L10.1992 29.8125L10.8518 32H11.1418L13.4258 29.3186Z" fill="white"/>
<path d="M10.2005 29.8126L8.35156 32H10.8531L10.2005 29.8126Z" fill="#A3B1BC"/>
<path d="M10.1978 29.8126L9.1102 29.6362L9.25522 29.3186L9.07395 29.1422L9.29147 28.8953L9.40023 28.1896L8.31262 28.4013L7.76881 27.8721L8.31262 27.484L6.97123 27.0959L7.07999 27.2018L6.39117 26.9901L6.75371 26.8842V26.7078L4.17969 27.9074L5.81111 27.237L7.80507 29.1069L8.49389 28.5777L8.85642 28.8953L7.80507 29.1069L8.42138 31.2591L8.27636 31.5766V31.6472L8.13135 32H8.34887L10.1978 29.8126Z" fill="white"/>
<path d="M22.7076 29.3186H21.8012L21.0761 28.8247L19.916 28.4719L19.9523 29.3186H19.9885L20.0973 31.0121L23.2514 30.5535L22.7438 29.3186H22.7076Z" fill="#7A8694"/>
<path d="M19.9871 29.3186H19.9509L19.9146 28.4719L21.0747 28.8247L21.7998 29.0364L21.6548 26.7784L19.5883 28.366L19.4433 28.3308L18.1744 29.3186H17.7031L20.0959 31.0121L19.9871 29.3186Z" fill="#EFF7F9"/>
<path d="M17.7052 29.3186H18.1765L19.4454 28.3308L19.5904 28.366L21.6568 26.7784L21.4031 26.6725L19.7716 26.849L19.3728 28.2955L19.2278 28.2602L18.0677 27.9074L17.6689 29.3186H17.4514L16.7988 30.4123L20.0979 31.0121L17.7052 29.3186Z" fill="white"/>
<path d="M17.45 29.3187H17.4138H16.5437L15.166 28.613L15.6373 29.3187H16.0724L16.7974 30.4124L17.45 29.3187Z" fill="#98A4B1"/>
<path d="M16.0739 29.3187H15.6389L15.1676 28.613L14.1887 29.3187H13.8262L16.799 30.4124L16.0739 29.3187Z" fill="#E1EBF0"/>
<path d="M12.1569 29.3186L11.8669 29.2128L11.7219 29.3186H10.888L10.1992 29.8125L12.9183 29.3186H12.1569Z" fill="#EFF7F9"/>
<path d="M10.8892 29.3186H11.7231L11.8681 29.2128L10.708 28.86L9.36657 29.2834L9.25781 29.2481V29.3186H9.69286L10.2004 29.8126L10.8892 29.3186Z" fill="white"/>
<path d="M9.69139 29.3186H9.25634L9.11133 29.6361L10.1989 29.8125L9.69139 29.3186Z" fill="#B6C1CE"/>
<path d="M7.91602 31.7883C7.98852 31.8589 8.02478 31.8942 8.09728 31.9647L8.2423 31.6119L7.91602 31.7883Z" fill="#4A4D53"/>
<path d="M8.27708 31.5766L7.76953 31.6824C7.80579 31.7177 7.87829 31.7883 7.91455 31.8236L8.24083 31.6824L8.27708 31.5766Z" fill="#E1EBF0"/>
<path d="M8.42402 31.2591L7.8077 29.0717L6.61133 30.4829C6.97387 30.8357 7.37266 31.2238 7.8077 31.6472L8.31526 31.5413L8.42402 31.2591Z" fill="#A3B1BC"/>
<path d="M6.61176 30.5182L7.80813 29.107L4.72656 28.6836C5.37913 29.3187 5.95919 29.8832 6.61176 30.5182Z" fill="white"/>
<path d="M8.85605 28.8953L8.49351 28.5778L7.80469 29.107L8.85605 28.8953Z" fill="#EFF7F9"/>
<path d="M7.80665 29.107L5.81269 27.2371L4.18127 27.9074L4.03625 27.978H4C4.25378 28.2249 4.4713 28.4366 4.68882 28.6483L7.80665 29.107Z" fill="#B6C1CE"/>
<path d="M4.03623 27.9427C4.00095 27.978 4.00095 27.978 4.03623 27.9427V27.9427Z" fill="#E1EBF0"/>
<path d="M6.82837 26.2491L6.75586 26.2844V26.5314L6.82837 26.2491Z" fill="white"/>
<path d="M6.86341 26.3197L6.82812 26.2491V26.355L6.86341 26.3197Z" fill="#DEE6E8"/>
<path d="M6.82837 26.2492L7.77097 21.3451L6.75586 22.7563V24.097V26.2845L6.82837 26.2492Z" fill="#E1EBF0"/>
<path d="M6.82812 26.2492H6.86438V26.1786L9.54716 26.4256L9.4384 24.6968L7.77072 21.5921L7.80698 21.4157L7.77072 21.3451L6.82812 26.2492Z" fill="#C2CBD4"/>
<path d="M7.80579 21.4157L7.76953 21.5921L9.43721 24.6968L9.21968 21.5921L8.53086 18.8049L8.05956 20.0044L7.87829 21.0629L7.76953 21.3451L7.80579 21.4157Z" fill="#EFF7F9"/>
<path d="M7.88068 21.0628L8.06195 20.0044L8.53324 18.8048L8.31572 18.7343V18.7695L6.75681 18.3462V18.0639L5.88672 17.817L6.75681 18.9107V20.0749L7.77192 21.3451L7.88068 21.0628Z" fill="white"/>
<path d="M6.82837 14.3242L6.75586 14.3594V14.43L6.82837 14.3242Z" fill="#98A4B1"/>
<path d="M6.75586 13.9713V14.2536L6.82837 14.3241L6.75586 13.9713Z" fill="#E5EDF0"/>
<path d="M8.74958 15.5942L8.85834 15.9823L8.93084 14.9592L9.03961 13.2304L9.14837 11.8192L9.18462 11.2899L9.29338 9.42004L7.95199 11.2899L8.16951 12.4542L6.82812 14.3241L8.74958 15.5942Z" fill="#75746B"/>
<path d="M8.16976 12.4543L7.95223 11.29L9.29362 9.42008L9.32988 8.92615L7.51719 9.03199L7.55344 9.27896L6.75586 9.34952V9.59649V13.0188V13.9714L6.82837 14.3242L8.16976 12.4543Z" fill="#F0F7FB"/>
<path d="M7.40843 8.60862L7.29967 8.00884L9.47489 6.87984L9.51115 6.52703L8.6048 5.32747L7.37217 5.18635L7.04589 5.15106L6.75586 5.11578L6.90087 5.92725L6.75586 6.49175V8.96143L7.40843 8.60862Z" fill="#EFF7F9"/>
<path d="M7.37243 5.1863L8.60506 5.32743L9.25763 5.39799L9.58391 5.43327L9.54766 5.08046L9.47515 4.6218L9.4389 4.12787L7.26367 4.72765L7.37243 5.1863Z" fill="white"/>
<path d="M7.04688 5.15104L7.37316 5.18632L7.2644 4.72766L7.04688 5.15104Z" fill="#A3B1BC"/>
<path d="M7.04589 5.15104L7.26341 4.72766L7.1909 4.69238L6.75586 5.11576L7.04589 5.15104Z" fill="white"/>
<path d="M9.29394 3.06948L9.25768 2.75195L9.14892 2.78723L9.00391 2.89308L9.29394 3.06948Z" fill="#E5EDF0"/>
<path d="M7.26367 4.72769L9.4389 4.12791L9.29388 3.06947L9.00385 2.89307L7.95249 3.91622L7.26367 4.72769Z" fill="#EFF7F9"/>
<path d="M7.55285 4.33957L7.22656 4.6571L7.26282 4.72766L7.95164 3.9162L7.73412 4.12789L7.55285 4.33957Z" fill="white"/>
<path d="M7.22766 4.6571L7.19141 4.69239L7.26391 4.72767L7.22766 4.6571Z" fill="#B6C1CE"/>
<path d="M21.8012 29.0364L21.0762 28.8247L21.8012 29.3186H22.7076H22.7438L21.8012 29.0364Z" fill="#E1EBF0"/>
<path d="M17.813 27.8015L17.0879 27.5898L17.4142 29.3186H17.4504H17.668L18.0667 27.9074L17.813 27.8015Z" fill="#75746B"/>
<path d="M17.0875 27.5899L16.7612 27.484L16.5437 27.4487L16.0361 27.2723L15.166 28.613L16.5437 29.3186H17.4138L17.0875 27.5899Z" fill="#B6C1CE"/>
<path d="M14.1874 29.3187L15.1663 28.613L11.8672 29.2128L12.1572 29.3187H12.9185H13.4261H13.5711H13.8249H14.1874Z" fill="#E5EDF0"/>
<path d="M16.0377 27.2723H16.0015L15.3126 27.2017L13.4637 26.9901H11.7598L13.3187 28.0838L14.08 27.8368L15.1676 28.613L16.0377 27.2723Z" fill="#75746B"/>
<path d="M14.08 27.8368L13.3187 28.0838L11.7598 26.9901L11.8685 28.5071L11.796 28.5424L11.8685 29.2128L15.1676 28.613L14.08 27.8368Z" fill="#F0F7FB"/>
<path d="M11.7939 28.5424L11.8664 28.5071L11.7576 26.9901H10.3438L11.2501 28.7188L11.5401 28.613L11.8664 29.2128L11.7939 28.5424Z" fill="#304350"/>
<path d="M9.25594 29.248L9.3647 29.2833L10.7061 28.86L11.8662 29.2128L11.5399 28.613L11.2499 28.7188L10.3435 26.9901L9.43721 27.6251V27.8721L8.31334 27.484L7.76953 27.8721L8.31334 28.4013L9.40095 28.1896L9.29219 28.8952L9.25594 29.248Z" fill="#EFF7F9"/>
<path d="M9.51196 27.237L9.47571 27.2723L9.43945 27.6251L10.3458 26.9901L9.51196 27.237Z" fill="#C6CED0"/>
<path d="M12.1223 26.8489L11.7598 26.9901H13.4637L12.1223 26.8489Z" fill="white"/>
<path d="M12.123 26.8489L11.543 26.7784L11.7605 26.9901L12.123 26.8489Z" fill="#E7F0F4"/>
<path d="M11.7579 26.9901L11.5404 26.7784H11.4316L10.5253 26.6725L10.2715 26.6373L10.344 26.9901H11.7579Z" fill="#D1DADF"/>
<path d="M9.54797 26.8489L9.51172 27.237L10.3456 26.9901L9.54797 26.8489Z" fill="#9DABB9"/>
<path d="M9.25744 29.2481L9.29369 28.8953L9.07617 29.1422L9.25744 29.3186V29.2481Z" fill="#475875"/>
<path d="M9.43832 27.8721V27.6252L9.47457 27.2723L8.31445 27.484L9.43832 27.8721Z" fill="#E5EDF0"/>
<path d="M9.47567 27.2723L9.51193 27.2371L9.54818 26.849L10.3458 26.9901L10.2733 26.6373L9.65694 26.5667H9.58443L8.2793 26.7078L8.31555 27.484L9.47567 27.2723Z" fill="#F0F7FB"/>
<path d="M8.27855 26.7078L7.91602 26.7431L8.31481 27.484L8.27855 26.7078Z" fill="#304350"/>
<path d="M7.91524 26.7431L6.97264 26.8489H6.79137L6.75512 26.8842L6.39258 26.9901L7.0814 27.2018L6.97264 27.0959L8.31403 27.484L7.91524 26.7431Z" fill="#EFF7F9"/>
<path d="M22.4538 26.9195L21.6562 26.7784L22.4901 27.3429L22.4538 26.9195Z" fill="#E1EBF0"/>
<path d="M22.5626 27.8721L22.4901 27.3429L21.6562 26.7784L21.8013 29.0364L22.7439 29.3186L22.7076 29.2128L22.6714 28.8953L22.5626 27.8721Z" fill="#7A8694"/>
<path d="M22.4538 26.9195L22.4176 26.5667L21.9463 26.602L21.6562 26.7784L22.4538 26.9195Z" fill="#C2CBD4"/>
<path d="M21.9442 26.602L21.4004 26.6726L21.6542 26.7784L21.9442 26.602Z" fill="#EFF7F9"/>
<path d="M17.0884 27.5899L17.8134 27.8015L16.9434 27.3782L17.0884 27.5899Z" fill="#98A4B1"/>
<path d="M16.7617 27.484L17.088 27.5899L16.943 27.3782L16.7617 27.484Z" fill="#E1EBF0"/>
<path d="M16.543 27.4487L16.7605 27.484L16.9418 27.3782L16.543 27.4487Z" fill="#E5EDF0"/>
<path d="M16.6875 27.2018L16.9413 27.3782L17.0863 27.1312L16.6875 27.2018Z" fill="#75746B"/>
<path d="M16.6888 27.2018L16 27.2723H16.0363L16.5438 27.4488L16.9426 27.3782L16.6888 27.2018Z" fill="#F0F7FB"/>
<path d="M9.47489 6.98566V6.87982L7.29967 8.00882L7.40843 8.6086L6.75586 8.96141V9.31422V9.3495L7.55344 9.27894L7.51719 9.03197L9.32988 8.92613L9.47489 6.98566Z" fill="#304350"/>
<path d="M9.50986 6.24476L9.25608 5.39802L8.60352 5.32745L9.50986 6.52701V6.24476Z" fill="#C6CED0"/>
<path d="M9.51159 6.24476L9.5841 5.43329L9.25781 5.39801L9.51159 6.24476Z" fill="#9DABB9"/>
<path d="M6.79211 26.8489L6.75586 26.7431L6.82837 26.5314V26.355V26.2491L6.75586 26.5314V26.7078V26.8842L6.79211 26.8489Z" fill="#474A52"/>
<path d="M6.97338 26.849L6.82837 26.5314L6.75586 26.7431L6.79211 26.849H6.97338Z" fill="#DEE6E8"/>
<path d="M6.97314 26.8489L7.91574 26.7431L8.27828 26.7078L9.58341 26.5667H9.65592L9.9097 19.9338L9.18462 20.7806L9.22087 21.5921L9.4384 24.6968L9.54716 26.4256L6.86438 26.1786V26.2492H6.82812L6.86438 26.3197L6.82812 26.355V26.5314L6.97314 26.8489Z" fill="#C6CED0"/>
<path d="M9.18382 20.7806L9.14756 20.3925L9.07506 19.4752V19.2635L8.53125 18.8049L9.22007 21.5921L9.18382 20.7806Z" fill="#7A8694"/>
<path d="M9.07506 19.2635V19.4752L9.90889 19.9339L8.93004 14.9592L8.85753 15.9824L8.89379 16.9703L9.00255 18.2757V18.5579L8.53125 18.8049L9.07506 19.2635Z" fill="white"/>
<path d="M9.00255 18.5579V18.2756L8.53125 18.8049L9.00255 18.5579Z" fill="#E3D6C0"/>
<g style="mix-blend-mode:lighten">
<path d="M23.1434 15.9823L22.4183 26.5667L16.0014 27.2723L9.58445 26.5667L8.85938 15.9823L9.58445 5.43328L16.0014 4.72766L22.4183 5.43328L23.1434 15.9823Z" fill="url(#paint0_linear_111_3248)"/>
</g>
</g>
<defs>
<linearGradient id="paint0_linear_111_3248" x1="21.2988" y1="5.05221" x2="11.0159" y2="27.4362" gradientUnits="userSpaceOnUse">
<stop stop-color="white"/>
<stop offset="1"/>
</linearGradient>
</defs>
</svg>
