<svg width="32" height="32" viewBox="0 0 32 32" fill="none" xmlns="http://www.w3.org/2000/svg">
<mask id="mask0_111_3790" style="mask-type:alpha" maskUnits="userSpaceOnUse" x="0" y="0" width="32" height="32">
<rect width="32" height="32" fill="#D9D9D9"/>
</mask>
<g mask="url(#mask0_111_3790)">
<path d="M25.5759 19.9643L25.0422 19.75L24.1881 20.6071L23.9746 20.8214L25.8962 21.3571L25.5759 19.9643Z" fill="#444950"/>
<path d="M26.5745 20.3927L25.5781 19.9642L25.8984 21.357L27.4997 20.7856L27.3218 20.7142L26.5745 20.3927Z" fill="#EFF7F9"/>
<path d="M28.5654 21.2144L27.4978 20.7858L25.8965 21.3573L29.5618 23.4644L29.0636 21.4287L28.9212 21.3573L28.5654 21.2144Z" fill="#808890"/>
<path d="M29.5626 23.4642L30.3811 21.9642L29.0645 21.4285L29.5626 23.4642Z" fill="#475875"/>
<path d="M30.381 21.9643L29.5625 23.4643L30.8792 23.0714C31.0571 22.8214 31.235 22.6072 31.3773 22.3572L30.381 21.9643Z" fill="white"/>
<path d="M20.4164 24.4285L19.7402 25.1071L20.0961 25.9642L22.5159 26.6428L20.4164 24.4285Z" fill="#E1EBF0"/>
<path d="M21.5903 23.25L20.416 24.4286L22.5155 26.6429L22.3376 22.5L21.5903 23.25Z" fill="#7A8694"/>
<path d="M20.0957 25.9642L20.4871 26.8927L20.6295 27.2142L20.9142 27.9285L22.5155 26.6427L20.0957 25.9642Z" fill="#C2CBD4"/>
<path d="M23.2986 21.5L23.9747 20.8214L24.1882 20.6071L21.377 19.3571L22.4445 22.3928L22.3378 22.5L22.5157 26.6428L25.1134 23.5L23.2986 21.5Z" fill="#EFF7F9"/>
<path d="M25.8965 21.3572L23.9749 20.8215L23.2988 21.5L25.1137 23.5L25.8965 21.3572Z" fill="white"/>
<path d="M22.5174 26.6429L20.916 27.9286L21.3075 28.8572L24.3322 27.75L22.5174 26.6429Z" fill="#EFF7F9"/>
<path d="M22.5156 26.6429L24.3305 27.75L25.1133 23.5L22.5156 26.6429Z" fill="white"/>
<path d="M25.8981 21.3571L25.1152 23.5L27.7485 25.6071L25.8981 21.3571Z" fill="#98A4B1"/>
<path d="M25.8965 21.3571L27.7469 25.6071L29.5618 23.4643L25.8965 21.3571Z" fill="#E1EBF0"/>
<path d="M25.1169 23.5L24.334 27.75L25.366 29.1429C25.5083 29.0357 25.6506 28.8929 25.7574 28.7857L25.1169 23.5Z" fill="#75746B"/>
<path d="M27.7485 25.6071L25.1152 23.5L25.7558 28.75C26.076 28.4643 26.4319 28.1429 26.7522 27.8214L27.7485 25.6071Z" fill="#B6C1CE"/>
<path d="M29.5629 23.4642L27.748 25.607L29.3138 25.1785C29.6696 24.7499 29.9899 24.357 30.3102 23.9285L29.5629 23.4642Z" fill="#E5EDF0"/>
<path d="M29.5625 23.4643L30.2742 23.8929C30.4877 23.6429 30.6656 23.3572 30.8792 23.0715L29.5625 23.4643Z" fill="#EFF7F9"/>
<path d="M27.7464 25.6071L26.75 27.8571C27.2838 27.3214 27.8176 26.8214 28.3157 26.25L27.7464 25.6071Z" fill="#75746B"/>
<path d="M27.748 25.6072L28.353 26.25C28.6733 25.8929 28.9935 25.5357 29.3138 25.1429L27.748 25.6072Z" fill="#F0F7FB"/>
<path d="M22.0879 30.8215L22.2302 31.0706L22.5149 30.9282L22.0879 30.8215Z" fill="#EFF7F9"/>
<path d="M21.3066 28.8571L21.3778 29.0714L21.449 29.25L21.5913 29.5714L21.9472 30.4643L22.0895 30.8214L22.5165 30.9286L24.3314 27.75L21.3066 28.8571Z" fill="#7A8694"/>
<path d="M22.2324 31.0714L22.268 31.25L22.5171 30.9285L22.2324 31.0714Z" fill="#DEE6E8"/>
<path d="M22.5162 30.9286L22.3027 31.25L22.3739 31.4643C23.2635 30.8571 24.1176 30.1786 24.936 29.5L24.3311 27.75L22.5162 30.9286Z" fill="white"/>
<path d="M24.9389 29.5C25.0813 29.3929 25.2236 29.25 25.366 29.1429L24.334 27.75L24.9389 29.5Z" fill="#E3D6C0"/>
<path d="M10.2749 29.8215L8.53125 28.8215L8.92269 30.9643C9.1362 31.1072 9.34971 31.2858 9.56322 31.4286L10.2749 29.8215Z" fill="#F3F6F1"/>
<path d="M8.56831 28.8215L8.24805 30.4643C8.46156 30.6429 8.71065 30.8215 8.95975 30.9643L8.56831 28.8215Z" fill="#E7F0F4"/>
<path d="M8.56751 28.8215L7.17969 29.6072C7.53554 29.8929 7.89139 30.1786 8.24724 30.4643L8.56751 28.8215Z" fill="#A3B1BC"/>
<path d="M11.0926 27.8928L11.1994 27.6071L7.7832 25.6428L8.56608 28.8214L11.0926 27.8928Z" fill="#808890"/>
<path d="M8.56671 28.8214L7.78383 25.6428L6.11133 28.6785C6.46718 29 6.82303 29.2857 7.17888 29.6071L8.56671 28.8214Z" fill="#475875"/>
<path d="M7.78442 25.6428L4.11914 26.6785V26.75C4.75967 27.4285 5.43579 28.0714 6.11191 28.6785L7.78442 25.6428Z" fill="white"/>
<path d="M4.08398 26.7143C4.08398 26.75 4.11974 26.75 4.08398 26.7143V26.7143Z" fill="#A3B1BC"/>
<path d="M4.04688 26.6785L4.08263 26.7143V26.6785H4.04688Z" fill="white"/>
<path d="M11.8771 25.9286L12.055 25.5L9.59961 23.5L11.2721 27.3929L11.3077 27.3571L11.8771 25.9286Z" fill="#98A4B1"/>
<path d="M11.1994 27.6071L11.2706 27.3929L9.59805 23.5L7.7832 25.6429L11.1994 27.6071Z" fill="#E1EBF0"/>
<path d="M12.055 25.5L12.1617 25.25L12.1262 25L10.7028 23.5714L9.91988 22.7857L9.59961 23.5L12.055 25.5Z" fill="#B6C1CE"/>
<path d="M9.59692 23.5L5.93164 24.5714L7.78207 25.6429L9.59692 23.5Z" fill="#E5EDF0"/>
<path d="M5.93399 24.5715L4.11914 26.7143L7.78442 25.6429L5.93399 24.5715Z" fill="#EFF7F9"/>
<path d="M9.92028 22.7857L8.6748 21.5L7.714 20.5357L6.93112 19.75L6.32617 20L9.60001 23.5L9.92028 22.7857Z" fill="#75746B"/>
<path d="M6.3237 20L5.71875 20.25L5.93226 24.5714L9.59754 23.5L6.3237 20Z" fill="#F0F7FB"/>
<path d="M5.93358 24.5714L1.23633 22.4643L4.11873 26.7143L5.93358 24.5714Z" fill="white"/>
<path d="M1.23542 22.4643L0.986328 22.9286C1.94713 24.25 2.9791 25.5 4.08224 26.6786H4.15341L1.23542 22.4643Z" fill="#B6C1CE"/>
<path d="M5.72033 20.25L4.79511 20.6429L4.61719 20.7143L5.93384 24.5714L5.72033 20.25Z" fill="#304350"/>
<path d="M5.93358 24.5714L4.61692 20.7143L3.62054 21.1429L1.69894 21.9286L1.23633 22.4643L5.93358 24.5714Z" fill="#EFF7F9"/>
<path d="M0.740234 22.6072C0.811405 22.7143 0.882575 22.8214 0.953746 22.9286L1.20284 22.4643L0.740234 22.6072Z" fill="#E1EBF0"/>
<path d="M0.880859 22.25L1.23671 22.4642L1.69932 21.9285L0.880859 22.25Z" fill="#C6CED0"/>
<path d="M0.880814 22.25L0.809643 22.2857L0.560547 22.3929C0.596132 22.4643 0.667302 22.5357 0.702888 22.6071L1.20108 22.4643L0.880814 22.25Z" fill="#D1DADF"/>
<path d="M21.3418 29.6429L21.9467 30.4643L21.5909 29.5715L21.3418 29.6429Z" fill="#CBD5DC"/>
<path d="M22.2331 31.0714L22.1263 30.7857L21.984 30.4285L21.3434 29.6428L20.5605 31.75C21.1655 31.6785 21.7704 31.5714 22.3754 31.4643L22.3042 31.25L22.2331 31.0714Z" fill="#C6CED0"/>
<path d="M21.5909 29.5714L21.4486 29.25L21.3418 29.6429L21.5909 29.5714Z" fill="#DEE6E8"/>
<path d="M21.3405 29.6427L18.209 28.7142L20.3085 31.7856C20.3797 31.7856 20.4509 31.7856 20.5576 31.7499L21.3405 29.6427Z" fill="#7A8694"/>
<path d="M18.2104 28.6785L14.6875 31.9642H17.9969C18.7798 31.9285 19.5271 31.8571 20.31 31.75L18.2104 28.6785Z" fill="#EFF7F9"/>
<path d="M21.4486 29.2499L21.3774 29.0714L21.3418 29.6428L21.4486 29.2499Z" fill="#EFF7F9"/>
<path d="M21.3761 29.0713L21.3049 28.857L20.9135 27.9285L20.6288 27.2142L18.209 28.6785L21.3405 29.6427L21.3761 29.0713Z" fill="#98A4B1"/>
<path d="M18.2101 28.6785L13.9043 29.8571L14.6872 31.9642L18.2101 28.6785Z" fill="#CBD5DC"/>
<path d="M13.9074 29.8572L11.3809 31.75C12.2349 31.8572 13.1245 31.9643 13.9786 32H14.6903L13.9074 29.8572Z" fill="#E5EDF0"/>
<path d="M20.6303 27.2142L20.488 26.8928L16.7871 27.7142L18.2105 28.6785L20.6303 27.2142Z" fill="#474A52"/>
<path d="M16.7867 27.7143L13.9043 29.8572L18.2101 28.6786L16.7867 27.7143Z" fill="#E1E6E5"/>
<path d="M13.906 29.8572L10.9524 28.1786L10.5254 29.2501L10.988 31.7144C11.1303 31.7501 11.2371 31.7501 11.3794 31.7858L13.906 29.8572Z" fill="#F3F6F1"/>
<path d="M10.5248 29.2143L10.2757 29.8214L9.59961 31.4643C10.0622 31.5357 10.5248 31.6071 10.9874 31.6786L10.5248 29.2143Z" fill="#E7F0F4"/>
<path d="M16.7883 27.7142L13.123 26.6785L13.9059 29.8571L16.7883 27.7142Z" fill="#444950"/>
<path d="M13.1233 26.6785L11.3084 27.3571L11.2728 27.3928L11.2017 27.6071L11.0949 27.8928L8.56836 28.8214L10.2764 29.8214L10.5255 29.2142L10.9526 28.1428L13.9061 29.8571L13.1233 26.6785Z" fill="#EFF7F9"/>
<path d="M11.876 25.9285L11.3066 27.3571L13.1215 26.6785L11.876 25.9285Z" fill="#808890"/>
<path d="M20.0978 25.9643L19.742 25.1072H16.6816L16.7884 27.7143L20.4893 26.8929L20.0978 25.9643Z" fill="#7A8694"/>
<path d="M16.6794 25.1072H14.4375L16.7861 27.7143L16.6794 25.1072Z" fill="#EFF7F9"/>
<path d="M14.4397 25.1072H13.728L13.123 26.6786L16.7883 27.7143L14.4397 25.1072Z" fill="white"/>
<path d="M13.7264 25.1072H12.4453L13.1214 26.6786L13.7264 25.1072Z" fill="#98A4B1"/>
<path d="M12.4444 25.1072H12.2309L12.1597 25.25L12.0529 25.5L11.875 25.9286L13.1205 26.6786L12.4444 25.1072Z" fill="#E1EBF0"/>
<path d="M25.041 14.0357V14.5V14.75L25.2545 14.8571L25.041 14.0357Z" fill="#808890"/>
<path d="M26.2509 11.7143L25.646 11.9643L25.041 12.2143V14.0357L25.2545 14.8571L27.1761 11.3571L26.2509 11.7143Z" fill="#475875"/>
<path d="M28.3518 10.8571L27.3554 11.25L27.1775 11.3571L25.2559 14.8571L28.9211 13.8214L28.3518 10.8571Z" fill="white"/>
<path d="M30.2751 10.0714L28.3535 10.8571L28.9229 13.8214L31.1647 9.67853L31.0936 9.71424L30.2751 10.0714Z" fill="#A3B1BC"/>
<path d="M28.9219 13.8214L31.9466 14.5C31.8754 12.8571 31.6975 11.25 31.3773 9.60712L31.1282 9.71426L28.9219 13.8214Z" fill="#182631"/>
<path d="M25.041 14.75V15.0714L25.2545 14.8571L25.041 14.75Z" fill="#E1EBF0"/>
<path d="M25.041 15.0714V16.2857V16.5357L27.0694 15.9285L25.2545 14.8571L25.041 15.0714Z" fill="#E5EDF0"/>
<path d="M25.2559 14.8572L27.0707 15.9286L28.9211 13.8215L25.2559 14.8572Z" fill="#EFF7F9"/>
<path d="M25.041 19.75L25.5748 19.9643L26.5712 20.3929L25.041 18.75V19.75Z" fill="#75746B"/>
<path d="M25.041 16.5357V17.3928V18.75L26.5712 20.3928L27.3185 20.7142L27.0694 15.9285L25.041 16.5357Z" fill="#F0F7FB"/>
<path d="M27.0723 15.9286L31.8051 18.0358L28.9227 13.8215L27.0723 15.9286Z" fill="white"/>
<path d="M28.9219 13.8215L31.8043 18.0715L31.9466 17.8215C32.0178 16.7143 32.0178 15.6072 31.9466 14.5L28.9219 13.8215Z" fill="#B6C1CE"/>
<path d="M27.0723 15.9285L27.3214 20.7142L27.4993 20.7857L28.5668 21.2142H28.9227L27.0723 15.9285Z" fill="#304350"/>
<path d="M27.0723 15.9285L28.9227 21.2142L31.8051 18.0357L27.0723 15.9285Z" fill="#EFF7F9"/>
<path d="M31.8027 18.0348L31.9451 17.9992C31.9451 17.928 31.9451 17.8569 31.9451 17.7857L31.8027 18.0348Z" fill="#E1EBF0"/>
<path d="M28.9219 21.2143L31.7687 19.9643C31.8399 19.3571 31.911 18.7143 31.9466 18.1071L31.8399 18.0357L28.9219 21.2143Z" fill="#C6CED0"/>
<path d="M31.8027 18.0358L31.91 18.1073C31.91 18.0716 31.91 18.0358 31.91 18.0001L31.8027 18.0358Z" fill="#D1DADF"/>
<path d="M28.5684 21.2142L28.9242 21.3565V21.2142H28.5684Z" fill="#D1DADF"/>
<path d="M28.9219 21.2142V21.357L29.0642 21.4285L30.3809 21.9642L31.3773 22.3927C31.4128 22.2499 31.4128 22.0713 31.4484 21.9285L28.9219 21.2142Z" fill="#F0F7FB"/>
<path d="M28.9219 21.2142L31.484 21.9285C31.5908 21.2856 31.6975 20.607 31.7687 19.9642L28.9219 21.2142Z" fill="#9DABB9"/>
<path d="M23.4054 3.14285L23.0139 0.999991C22.8004 0.857134 22.5869 0.678563 22.3734 0.535706L21.6973 2.14285L23.4054 3.14285Z" fill="#F3F6F1"/>
<path d="M23.7273 1.49994C23.5138 1.32137 23.2647 1.1428 23.0156 0.999939L23.4071 3.1428L23.7273 1.49994Z" fill="#E7F0F4"/>
<path d="M24.7941 2.35714C24.4382 2.07143 24.0824 1.78571 23.7265 1.5L23.4062 3.14286L24.7941 2.35714Z" fill="#A3B1BC"/>
<path d="M20.8782 4.10711L20.7715 4.35711L24.1877 6.32139L23.4048 3.14282L20.8782 4.10711Z" fill="#808890"/>
<path d="M24.1891 6.32146L25.8616 3.28575C25.5058 2.96432 25.1499 2.67861 24.7941 2.35718L23.4062 3.14289L24.1891 6.32146Z" fill="#475875"/>
<path d="M24.1875 6.32142L27.8528 5.28571V5.21428C27.2122 4.53571 26.5361 3.89285 25.86 3.28571L24.1875 6.32142Z" fill="white"/>
<path d="M27.9264 5.28575L27.8906 5.25V5.28575H27.9264Z" fill="white"/>
<path d="M20.0978 6.03576L19.9199 6.50004L22.3753 8.46433L20.7028 4.57147L20.6672 4.6429L20.0978 6.03576Z" fill="#98A4B1"/>
<path d="M20.7723 4.35712L20.7012 4.5714L22.3737 8.46426L24.1885 6.3214L20.7723 4.35712Z" fill="#E1EBF0"/>
<path d="M19.8114 6.75006L19.7402 6.8924L19.847 6.99916L19.8114 6.75006Z" fill="#75746B"/>
<path d="M19.9193 6.5L19.8125 6.75L19.8481 7L21.058 8.21429L22.0544 9.21429L22.3746 8.46429L19.9193 6.5Z" fill="#B6C1CE"/>
<path d="M22.375 8.46433L26.0403 7.42861L24.1898 6.32147L22.375 8.46433Z" fill="#E5EDF0"/>
<path d="M26.0379 7.42856L27.8528 5.28571L24.1875 6.32142L26.0379 7.42856Z" fill="#EFF7F9"/>
<path d="M22.0527 9.21429L22.6577 9.82144L22.8 9.96429L23.0847 10.25L25.0419 12.2143L25.6468 11.9643L22.373 8.46429L22.0527 9.21429Z" fill="#75746B"/>
<path d="M25.6488 11.9642L26.2538 11.7142L26.0403 7.42853L22.375 8.46424L25.6488 11.9642Z" fill="#F0F7FB"/>
<path d="M26.0391 7.42856L30.7363 9.49999L27.8539 5.28571L26.0391 7.42856Z" fill="white"/>
<path d="M30.7363 9.49999L30.9854 9.03571C30.0246 7.71428 28.9927 6.46428 27.8895 5.28571H27.8184L30.7363 9.49999Z" fill="#B6C1CE"/>
<path d="M26.2526 11.7142L27.1778 11.3571L27.3557 11.25L26.0391 7.42853L26.2526 11.7142Z" fill="#304350"/>
<path d="M26.0391 7.42853L27.3557 11.25L28.3521 10.8571L30.2737 10.0714L30.7363 9.49996L26.0391 7.42853Z" fill="#EFF7F9"/>
<path d="M31.2341 9.3929C31.1629 9.28576 31.0918 9.17862 31.0206 9.07147L30.7715 9.53576L31.2341 9.3929Z" fill="#E1EBF0"/>
<path d="M30.2754 10.0715L31.0939 9.71435L30.738 9.50006L30.2754 10.0715Z" fill="#C6CED0"/>
<path d="M31.0918 9.71432L31.1629 9.67861L31.412 9.57146C31.3764 9.50003 31.3053 9.42861 31.2697 9.35718L30.7715 9.50003L31.0918 9.71432Z" fill="#D1DADF"/>
<path d="M10.6303 2.35714L10.0254 1.5L10.3812 2.39286L10.6303 2.35714Z" fill="#CBD5DC"/>
<path d="M9.74043 0.892918L9.84718 1.17863L9.98952 1.53578L10.5945 2.3572L11.3773 0.250061C10.7724 0.32149 10.1674 0.428632 9.5625 0.535775L9.63367 0.750061L9.74043 0.892918Z" fill="#C6CED0"/>
<path d="M10.3828 2.39289L10.5252 2.71432L10.6319 2.35718L10.3828 2.39289Z" fill="#DEE6E8"/>
<path d="M10.6309 2.35715L13.7624 3.28572L11.6628 0.214294C11.5917 0.214294 11.5205 0.214294 11.4137 0.250009L10.6309 2.35715Z" fill="#7A8694"/>
<path d="M13.7616 3.28571L17.2846 0H13.9751C13.1923 0.0357143 12.445 0.107143 11.6621 0.214286L13.7616 3.28571Z" fill="#EFF7F9"/>
<path d="M10.5254 2.71432L10.5966 2.92861L10.6321 2.35718L10.5254 2.71432Z" fill="#EFF7F9"/>
<path d="M10.5938 2.92861L10.6649 3.14289L11.0564 4.03575L11.341 4.78575L13.7608 3.28575L10.6293 2.35718L10.5938 2.92861Z" fill="#98A4B1"/>
<path d="M13.7637 3.28571L18.0695 2.14286L17.2866 0L13.7637 3.28571Z" fill="#CBD5DC"/>
<path d="M17.2871 0L18.07 2.14286L20.5965 0.25C19.7425 0.142857 18.8529 0.0357143 17.9988 0H17.2871Z" fill="#E5EDF0"/>
<path d="M11.3438 4.78571L11.4861 5.10713L15.187 4.28571L13.7635 3.28571L11.3438 4.78571Z" fill="#474A52"/>
<path d="M13.7637 3.28574L15.1871 4.28574L18.0695 2.14288L13.7637 3.28574Z" fill="#E1E6E5"/>
<path d="M18.0684 2.14292L21.0219 3.82149L21.449 2.75006L20.9863 0.32149C20.844 0.285775 20.7373 0.285775 20.5949 0.250061L18.0684 2.14292Z" fill="#F3F6F1"/>
<path d="M21.4489 2.75004L21.698 2.1429L22.3742 0.500044C21.9115 0.428615 21.4489 0.357186 20.9863 0.321472L21.4489 2.75004Z" fill="#E7F0F4"/>
<path d="M15.1855 4.28574L18.8508 5.32145L18.0679 2.14288L15.1855 4.28574Z" fill="#444950"/>
<path d="M18.8512 5.32145L20.6661 4.64288L20.7017 4.57145L20.7728 4.35717L20.8796 4.10717L23.4061 3.14288L21.6981 2.14288L21.449 2.75003L21.0219 3.82145L18.0684 2.14288L18.8512 5.32145Z" fill="#EFF7F9"/>
<path d="M20.0951 6.03574L20.6645 4.64288L18.8496 5.32145L20.0951 6.03574Z" fill="#808890"/>
<path d="M11.4844 5.10726L11.8758 6.00011L12.2317 6.89297H15.292L15.1852 4.28583L11.4844 5.10726Z" fill="#7A8694"/>
<path d="M15.2923 6.89297H15.5058H16.2887H17.5342L15.1855 4.28583L15.2923 6.89297Z" fill="#EFF7F9"/>
<path d="M17.5342 6.89297H18.2459L18.8508 5.32154L15.1855 4.28583L17.5342 6.89297Z" fill="white"/>
<path d="M18.2441 6.8929H18.4932H19.2761H19.5252L18.8491 5.32147L18.2441 6.8929Z" fill="#98A4B1"/>
<path d="M19.5257 6.8929H19.7392L19.8104 6.75004L19.9172 6.50004L20.0951 6.03576L18.8496 5.32147L19.5257 6.8929Z" fill="#E1EBF0"/>
<path d="M6.39644 12L6.93022 12.2143L7.96219 11.1429L6.07617 10.6072L6.39644 12Z" fill="#444950"/>
<path d="M5.39982 11.5715L6.39621 12L6.07594 10.6072L4.47461 11.2143L4.65254 11.2857L5.39982 11.5715Z" fill="#EFF7F9"/>
<path d="M4.47605 11.2143L6.07739 10.6071L2.41211 8.5L2.9103 10.5357L3.05264 10.6071L3.4085 10.75L4.47605 11.2143Z" fill="#808890"/>
<path d="M1.5918 10L2.90845 10.5357L2.41026 8.5L1.5918 10Z" fill="#475875"/>
<path d="M2.41055 8.5L1.0939 8.89286C0.91597 9.14286 0.738044 9.35714 0.595703 9.60714L1.59209 10L2.41055 8.5Z" fill="white"/>
<path d="M11.5585 7.57147L12.2346 6.8929L11.8788 6.00004L9.45898 5.32147L11.5585 7.57147Z" fill="#E1EBF0"/>
<path d="M11.1671 7.96433L11.5585 7.57147L9.45898 5.32147L9.63691 9.50004L11.1671 7.96433Z" fill="#7A8694"/>
<path d="M11.8788 5.99999L11.4873 5.10713L11.345 4.78571L11.0603 4.03571L9.45898 5.32142L11.8788 5.99999Z" fill="#C2CBD4"/>
<path d="M8.67422 10.4643L9.63502 9.50004L9.4571 5.32147L6.85938 8.46433L8.67422 10.4643Z" fill="#EFF7F9"/>
<path d="M6.07617 10.6072L7.96219 11.1429L8.63831 10.4643H8.67389L6.85905 8.46429L6.07617 10.6072Z" fill="white"/>
<path d="M9.45547 5.32139L11.0568 4.03568L10.6654 3.14282L7.64062 4.24996L9.45547 5.32139Z" fill="#EFF7F9"/>
<path d="M9.4571 5.32149L7.64225 4.25006L6.85938 8.46435L9.4571 5.32149Z" fill="white"/>
<path d="M6.07504 10.6072L6.85791 8.46431L4.22461 6.39288L6.07504 10.6072Z" fill="#98A4B1"/>
<path d="M6.07739 10.6072L4.22695 6.39288L2.41211 8.50003L6.07739 10.6072Z" fill="#E1EBF0"/>
<path d="M6.85928 8.46432L7.64216 4.21432L6.61019 2.85718C6.46785 2.96432 6.32551 3.10718 6.21875 3.21432L6.85928 8.46432Z" fill="#75746B"/>
<path d="M4.22461 6.39287L6.85791 8.50001L6.1818 3.21429C5.86153 3.50001 5.50568 3.82144 5.18541 4.14287L4.22461 6.39287Z" fill="#B6C1CE"/>
<path d="M2.41135 8.49997L4.2262 6.35712L2.66045 6.78569C2.3046 7.21426 1.98433 7.60712 1.66406 8.03569L2.41135 8.49997Z" fill="#E5EDF0"/>
<path d="M1.66159 8.07147C1.44808 8.32147 1.27015 8.60719 1.05664 8.8929L2.37329 8.50004L1.66159 8.07147Z" fill="#EFF7F9"/>
<path d="M4.22409 6.39282L5.18489 4.14282C4.65111 4.67854 4.11733 5.17854 3.61914 5.74997L4.22409 6.39282Z" fill="#75746B"/>
<path d="M4.22786 6.39274L3.62291 5.71417C3.30264 6.07132 2.98238 6.42846 2.66211 6.82132L4.22786 6.39274Z" fill="#F0F7FB"/>
<path d="M9.88601 1.1786L9.74367 0.892883L9.45898 1.07145L9.88601 1.1786Z" fill="#EFF7F9"/>
<path d="M10.6654 3.1429L10.5942 2.92861L10.523 2.71433L10.3807 2.3929L10.0248 1.50004L9.88249 1.17862L9.45547 1.07147L7.64062 4.25004L10.6654 3.1429Z" fill="#7A8694"/>
<path d="M9.74367 0.892857L9.70808 0.75L9.45898 1.07143L9.74367 0.892857Z" fill="#DEE6E8"/>
<path d="M9.4569 1.07142L9.67042 0.749991L9.59924 0.535706C8.70961 1.14285 7.85557 1.78571 7.03711 2.49999L7.64206 4.24999L9.4569 1.07142Z" fill="white"/>
<path d="M7.0364 2.5C6.89406 2.60714 6.75172 2.75 6.60938 2.85714L7.64135 4.25L7.0364 2.5Z" fill="#E3D6C0"/>
<path d="M6.93031 17.9285V17.25L6.7168 17.1428L6.93031 17.9285Z" fill="#808890"/>
<path d="M5.72209 20.25L6.32704 20L6.93199 19.75V17.9285L6.71848 17.1428L4.79688 20.6428L5.72209 20.25Z" fill="#475875"/>
<path d="M3.6221 21.1428L4.61848 20.7143L4.79641 20.6428L6.71801 17.1428L3.05273 18.1785L3.6221 21.1428Z" fill="white"/>
<path d="M3.62178 21.1428L3.05242 18.1785L0.810547 22.2857L0.881717 22.25L1.70018 21.9285L3.62178 21.1428Z" fill="#A3B1BC"/>
<path d="M3.05013 18.1785L0.0253906 17.4999C0.096561 19.1428 0.274487 20.7499 0.594754 22.3928L0.843851 22.2857L3.05013 18.1785Z" fill="white"/>
<path d="M6.93031 17.25V16.8928L6.7168 17.1428L6.93031 17.25Z" fill="#E1EBF0"/>
<path d="M6.92875 16.8929V15.4643L4.90039 16.0357L6.71524 17.1429L6.92875 16.8929Z" fill="#E5EDF0"/>
<path d="M6.71801 17.143L4.90317 16.0358L3.05273 18.1787L6.71801 17.143Z" fill="#182631"/>
<path d="M6.93055 12.5715V12.2143L6.39678 12L5.40039 11.5715L6.93055 13.2143V13V12.5715Z" fill="#75746B"/>
<path d="M6.92784 15.4643V13.2143L5.39768 11.5714L4.65039 11.2857L4.89949 16.0357L6.92784 15.4643Z" fill="#F0F7FB"/>
<path d="M4.90275 16.0357L0.169922 13.9285L3.05232 18.1785L4.90275 16.0357Z" fill="white"/>
<path d="M3.05143 18.1785L0.16903 13.9285L0.0266889 14.1785C-0.0088963 15.2857 -0.0088963 16.3928 0.0266889 17.5L3.05143 18.1785Z" fill="#B6C1CE"/>
<path d="M4.90317 16.0358L4.65407 11.2858L4.47614 11.2143L3.40859 10.7501H3.05273L4.90317 16.0358Z" fill="#304350"/>
<path d="M4.90275 16.0358L3.05232 10.7501L0.169922 13.9286L4.90275 16.0358Z" fill="#EFF7F9"/>
<path d="M0.167731 13.9285L0.0253906 13.9641C0.0253906 14.0353 0.0253906 14.1065 0.0253906 14.1776L0.167731 13.9285Z" fill="#E1EBF0"/>
<path d="M3.05013 10.7501L0.203317 12.0001C0.132146 12.6072 0.0609758 13.2501 0.0253906 13.8572L0.167731 13.9286L3.05013 10.7501Z" fill="#C6CED0"/>
<path d="M0.169763 13.9287L0.0625 13.8572C0.0625 13.8929 0.0625 13.9287 0.0625 13.9644L0.169763 13.9287Z" fill="#D1DADF"/>
<path d="M3.40859 10.7495L3.05273 10.6072V10.7495H3.40859Z" fill="#D1DADF"/>
<path d="M3.05194 10.75V10.6072L2.9096 10.5358L1.59295 10L0.596561 9.57147C0.560976 9.71433 0.560976 9.8929 0.525391 10.0358L3.05194 10.75Z" fill="#F0F7FB"/>
<path d="M3.05189 10.75L0.48976 10.0357C0.383004 10.6786 0.276249 11.3571 0.205078 12L3.05189 10.75Z" fill="#9DABB9"/>
<path d="M11.8058 9.64293L11.1652 7.96436L9.63506 9.50007L8.67426 10.4644H8.63867L11.8058 9.64293Z" fill="#CBD5DC"/>
<path d="M11.5575 7.57146L11.166 7.96431L11.8065 9.64288L15.5074 6.89288H15.2939H12.2336L11.5575 7.57146Z" fill="#E5EDF0"/>
<path d="M6.92969 12.9999L7.39229 12.8928L6.92969 12.5714V12.9999Z" fill="#474A52"/>
<path d="M6.92969 12.2143V12.5714L7.39229 12.8928L11.8049 9.64282L8.63778 10.4643L7.96166 11.1428L6.92969 12.2143Z" fill="#E1E6E5"/>
<path d="M11.8066 9.64288L17.3935 12.8572L16.2904 6.89288H15.5075L11.8066 9.64288Z" fill="#F3F6F1"/>
<path d="M17.3922 12.8572L18.4953 6.89288H18.2462H17.5345H16.2891L17.3922 12.8572Z" fill="#E7F0F4"/>
<path d="M12.9795 14.5L11.8051 9.64282L7.39258 12.8928L12.9795 14.5Z" fill="#444950"/>
<path d="M12.981 14.5L13.3012 14.3928C13.835 13.5 14.7958 12.8928 15.8989 12.8928L16.148 18.9285L18.7813 15.7857L16.148 12.8571C16.4327 12.8571 16.6818 12.9285 16.9309 13L17.3935 12.8214L11.8066 9.60712L12.981 14.5Z" fill="#EFF7F9"/>
<path d="M17.3906 12.8572L22.6572 9.82145L22.0523 9.21431L21.0559 8.21431L19.2766 6.89288H18.4938L17.3906 12.8572Z" fill="#A3B1BC"/>
<path d="M21.0586 8.21431L19.8487 7.00003L19.7419 6.89288H19.5284H19.2793L21.0586 8.21431Z" fill="#4A4D53"/>
<path d="M13.1936 14.6062C13.2291 14.535 13.2647 14.4639 13.3359 14.3571L13.0156 14.4639L13.1936 14.6062Z" fill="#808890"/>
<path d="M16.9297 13C17.1076 13.0714 17.2855 13.1428 17.4635 13.25L17.3923 12.8571L16.9297 13Z" fill="#808890"/>
<path d="M17.3906 12.8572L17.4974 13.25C18.2091 13.6429 18.7784 14.3215 18.992 15.1429C19.0631 15.4286 19.0987 15.6786 19.0987 16V16.0358C19.0987 16.3929 19.0275 16.7143 18.9208 17.0358C18.9208 17.0715 18.8852 17.1429 18.8852 17.1786L22.7996 9.96433L22.6572 9.82147L17.3906 12.8572Z" fill="#475875"/>
<path d="M18.8882 17.1786C18.817 17.3572 18.7103 17.5357 18.6035 17.7143L24.1904 16.1072L23.1228 10.25L22.8382 9.96429L18.8882 17.1786Z" fill="white"/>
<path d="M24.1891 16.1071L25.0431 14.5V14.0357V12.2143L23.0859 10.25L24.1891 16.1071Z" fill="#A3B1BC"/>
<path d="M24.1875 16.1071L25.0415 16.2857V15.0714V14.75V14.5L24.1875 16.1071Z" fill="white"/>
<path d="M7.39229 12.8929L6.92969 13V13.2143V15.4643V16.8929V17.25V17.9286V19.75L7.71256 20.5357L7.39229 12.8929Z" fill="#7A8694"/>
<path d="M11.8051 17.75L7.39258 12.8929L7.71285 20.5357L8.67365 21.5L11.8051 17.75Z" fill="#EFF7F9"/>
<path d="M11.8051 17.75L12.9795 14.5L7.39258 12.8929L11.8051 17.75Z" fill="white"/>
<path d="M11.8053 17.75L8.67383 21.5L9.91931 22.7857L10.7022 23.5714L11.8053 17.75Z" fill="white"/>
<path d="M14.9026 18.9286C14.4755 18.7857 14.1197 18.5357 13.7994 18.2143C13.23 17.6429 12.8742 16.8572 12.8742 15.9643C12.8742 15.7857 12.9098 15.6072 12.9098 15.4286C12.9454 15.1786 13.0165 14.9643 13.1233 14.75L13.0165 14.4643L11.8066 17.7143L15.7922 20.9286L14.9026 18.9286Z" fill="#98A4B1"/>
<path d="M16.4677 19.0715C16.3253 19.1072 16.1474 19.1072 16.0051 19.1072C15.9695 19.1072 15.9339 19.1072 15.8983 19.1072C15.5424 19.1072 15.2222 19.0357 14.9375 18.9286L15.8271 20.9643L18.069 18.3572C17.6064 18.75 17.037 19 16.4677 19.0715Z" fill="#E1EBF0"/>
<path d="M13.192 14.6071L12.9785 14.5L13.0853 14.7857C13.1209 14.7143 13.1564 14.6786 13.192 14.6071Z" fill="#E1EBF0"/>
<path d="M12.6959 25.1071L11.8063 17.75L10.7031 23.5714L12.1265 25L12.1621 25.25L12.2333 25.1071H12.6959Z" fill="#75746B"/>
<path d="M11.8066 17.75L12.6963 25.1071H14.0129L15.7922 20.9643L11.8066 17.75Z" fill="#B6C1CE"/>
<path d="M18.6022 17.7143C18.5311 17.8214 18.4243 17.9286 18.3531 18.0357C18.2464 18.1429 18.1396 18.25 18.0329 18.3572L15.791 20.9643L21.3779 19.3572L18.6022 17.7143Z" fill="#E5EDF0"/>
<path d="M24.1904 16.1071L18.6035 17.7143L21.3792 19.3571L24.1904 16.1071Z" fill="#EFF7F9"/>
<path d="M14.0098 25.1072H19.5966L15.789 20.9643L14.0098 25.1072Z" fill="#75746B"/>
<path d="M15.791 20.9643L19.5986 25.1071H19.741L20.4171 24.4285L21.5914 23.25L21.3779 19.3571L15.791 20.9643Z" fill="#F0F7FB"/>
<path d="M25.0422 18.75V17.3928L24.1882 16.1071L21.377 19.3571L24.1882 20.6071L25.0422 19.75V18.75Z" fill="white"/>
<path d="M24.1875 16.1071L25.0415 17.3928V16.5357V16.2857L24.1875 16.1071Z" fill="#B6C1CE"/>
<path d="M21.5905 23.25L22.3378 22.5L22.4445 22.3928L21.377 19.3571L21.5905 23.25Z" fill="#304350"/>
<path d="M12.9086 15.4643C12.873 15.6429 12.873 15.8214 12.873 16C12.873 16.8929 13.2289 17.6786 13.7983 18.25L16.1469 18.9286L12.9086 15.4643Z" fill="#E1EBF0"/>
<path d="M15.8978 12.8571C14.7946 12.8928 13.8338 13.5 13.3001 14.3571C13.2645 14.4285 13.2289 14.5 13.1577 14.6071C13.1221 14.6785 13.0866 14.7143 13.0866 14.7857C12.9798 15 12.9442 15.25 12.873 15.4643L16.1113 18.8928L15.8978 12.8571Z" fill="#7A8694"/>
<path d="M13.7969 18.2143C14.1171 18.5357 14.473 18.75 14.9 18.9286C15.2203 19.0357 15.5405 19.1072 15.8608 19.1072L16.1455 18.8929L13.7969 18.2143Z" fill="#C2CBD4"/>
<path d="M16.9294 13C16.6803 12.9285 16.4312 12.8571 16.1465 12.8571L18.7442 15.75L18.9577 15.1428C18.7442 14.3214 18.1748 13.6428 17.4631 13.25C17.3208 13.1428 17.1429 13.0714 16.9294 13Z" fill="white"/>
<path d="M15.8613 19.1063C15.8969 19.1063 15.9325 19.1063 15.9681 19.1063C16.146 19.1063 16.2884 19.1063 16.4307 19.0707L16.1104 18.8928L15.8613 19.1063Z" fill="#EFF7F9"/>
<path d="M18.7798 15.75L16.1465 18.8929L16.4668 19.0714C17.0717 18.9643 17.6055 18.7143 18.0325 18.3571C18.1393 18.25 18.246 18.1429 18.3528 18.0357L18.7798 15.75Z" fill="white"/>
<path d="M18.7812 15.75L19.1371 16.0357V16C19.1371 15.7143 19.1015 15.4286 19.0303 15.1429L18.7812 15.75Z" fill="#98A4B1"/>
<path d="M18.8873 17.1786C18.9229 17.1429 18.9229 17.0714 18.9229 17.0357L18.7805 15.75L18.3535 18.0357C18.4603 17.9286 18.5314 17.8214 18.6026 17.7143C18.7094 17.5357 18.7805 17.3571 18.8873 17.1786Z" fill="#75746B"/>
<path d="M18.7812 15.75L18.9236 17.0357C19.0303 16.7143 19.1015 16.3929 19.1015 16.0357L18.7812 15.75Z" fill="#B6C1CE"/>
<g style="mix-blend-mode:lighten">
<path d="M19.7404 6.89288H12.2319L6.92969 12.2143V19.75L12.2319 25.0715H19.7404L25.0426 19.75V12.2143L19.7404 6.89288ZM15.9683 19.1072C14.2602 19.1072 12.8368 17.7143 12.8368 15.9643C12.8368 14.25 14.2247 12.8215 15.9683 12.8215C17.6764 12.8215 19.0998 14.2143 19.0998 15.9643C19.0998 17.7143 17.712 19.1072 15.9683 19.1072Z" fill="url(#paint0_linear_111_3790)"/>
</g>
</g>
<defs>
<linearGradient id="paint0_linear_111_3790" x1="19.8893" y1="7.95017" x2="11.7872" y2="24.5133" gradientUnits="userSpaceOnUse">
<stop stop-color="white"/>
<stop offset="1"/>
</linearGradient>
</defs>
</svg>
