<svg width="32" height="32" viewBox="0 0 32 32" fill="none" xmlns="http://www.w3.org/2000/svg">
<mask id="mask0_111_2986" style="mask-type:alpha" maskUnits="userSpaceOnUse" x="0" y="0" width="32" height="32">
<rect width="32" height="32" fill="#D9D9D9"/>
</mask>
<g mask="url(#mask0_111_2986)">
<path d="M30.9141 3.00453L31.5656 3.54752V1.23077L30.9865 2.85973L30.9141 3.00453Z" fill="#F0F7FB"/>
<path d="M30.9143 3.00452L30.7695 3.43891L31.5659 3.5475L30.9143 3.00452Z" fill="#304350"/>
<path d="M31.5664 1.23077V3.54751L32.0008 2.60633V0L31.5664 1.23077Z" fill="#383E47"/>
<path d="M30.7684 3.4389L30.2616 4.88687L29.9358 5.71945L24.9766 4.30768L27.3295 8.68777L27.2933 8.65157L28.1259 10.7873L28.3069 10.3167L28.6689 11.3665L28.7413 11.0407V9.55655V9.01356L28.4155 9.95474L28.6327 8.97736L28.3793 8.94117L28.0173 8.83257L29.1033 8.07239L29.3929 7.27601L29.6462 8.76017L31.5648 3.5475L30.7684 3.4389Z" fill="#EFF7F9"/>
<path d="M29.3938 7.276L29.1042 8.07238L28.8508 8.79636L28.7422 9.01356V9.55654L29.6472 8.76016L29.3938 7.276Z" fill="#7A8694"/>
<path d="M31.5664 3.5475L32.0008 3.76469V2.60632L31.5664 3.5475Z" fill="#808890"/>
<path d="M29.6484 8.76016L32.0014 6.15382V3.76468L31.567 3.54749L29.6484 8.76016Z" fill="#DEE6E8"/>
<path d="M28.7422 13.2489V13.6109L31.5657 13.9729L28.7422 12.4525V13.2489Z" fill="#E3D6C0"/>
<path d="M29.6473 8.7602L28.7423 9.55658V11.0407V11.2941L28.6699 11.3665L28.7423 11.4027V11.4389V12.4525L31.5658 13.9729L32.0002 13.7195V6.15387L29.6473 8.7602Z" fill="white"/>
<path d="M28.7422 13.6108V14.2262L29.6472 19.1855L31.5657 13.9728L28.7422 13.6108Z" fill="#444950"/>
<path d="M28.7422 14.2263V14.8416V19.1493V21.5023L29.6472 19.1855L28.7422 14.2263Z" fill="white"/>
<path d="M31.5664 13.9729L32.0008 14.2263V13.7195L31.5664 13.9729Z" fill="#F6FBFB"/>
<path d="M31.567 13.9728L29.6484 19.1855L32.0014 16.6878V14.2262L31.567 13.9728Z" fill="#C6CED0"/>
<path d="M28.7422 21.5023V21.6471V21.9005L31.5657 24.3982L29.6472 19.1855L28.7422 21.5023Z" fill="#E7F0F4"/>
<path d="M28.7422 21.9005V22.9864L29.1404 24.0362L29.1766 24.1086L31.5657 24.3982L28.7422 21.9005Z" fill="#D1DADF"/>
<path d="M29.6484 19.1855L32.0014 20.7783V16.6878L29.6484 19.1855Z" fill="#EFF7F9"/>
<path d="M29.6484 19.1855L31.567 24.3982L32.0014 23.819V20.7783L29.6484 19.1855Z" fill="#525A66"/>
<path d="M29.1758 24.1086L30.1894 26.9321L30.4066 27.5475L31.5649 24.3982L29.1758 24.1086Z" fill="#F0F7FB"/>
<path d="M31.5666 24.3982L30.4082 27.5475L30.5892 28.0181L30.734 28.4525L32.001 27.1131V23.819L31.5666 24.3982Z" fill="#444950"/>
<path d="M30.7344 28.4525L31.0964 29.466L32.0013 29.3936V27.1131L30.7344 28.4525Z" fill="#475875"/>
<path d="M31.0954 29.4661L30.7334 28.4525L30.5886 28.0181L29.6836 31.1674L30.5886 31.4932L31.6745 31.0951L32.0003 32V29.3937L31.0954 29.4661Z" fill="#9DABB9"/>
<path d="M7.89089 7.89143L7.74609 8.39822L11.004 9.52039L9.73704 7.38464L9.70084 7.42084L7.89089 7.89143Z" fill="#7A8694"/>
<path d="M11.0052 9.52036L13.9374 6.29865L12.3808 6.73303L11.5482 6.91403L9.73828 7.38462L11.0052 9.52036Z" fill="#EFF7F9"/>
<path d="M11.0051 9.52036L7.74717 8.39819L7.24038 10.3891L6.7698 12.1267L6.625 12.6697L11.0051 9.52036Z" fill="#98A4B1"/>
<path d="M11.0039 9.52038L17.8455 7.38464L17.4473 6.15387L15.9994 5.75568L14.7686 6.08147L13.936 6.29866L11.0039 9.52038Z" fill="#CBD5DC"/>
<path d="M18.8248 6.51586L17.4492 6.15387L17.8474 7.38464L18.8248 6.51586Z" fill="#E5EDF0"/>
<path d="M13.2487 11.3303L11.0043 9.52039L6.62422 12.6697L6.51562 13.1041L13.2487 11.3303Z" fill="#474A52"/>
<path d="M13.2482 11.3303L17.8455 7.38464L11.0039 9.52039L13.2482 11.3303Z" fill="#E1E6E5"/>
<path d="M23.6738 11.2941L23.0946 7.60178L21.3932 7.16739L20.271 6.8778L18.8231 6.51581L17.8457 7.38459L23.6738 11.2941Z" fill="#F3F6F1"/>
<path d="M23.6729 11.2941L24.1797 8.07239L24.1073 7.8914L23.6729 7.7828L23.3471 7.67421L23.0938 7.60181L23.6729 11.2941Z" fill="#E7F0F4"/>
<path d="M13.248 11.3303L19.0761 13.2851L17.8453 7.38464L13.248 11.3303Z" fill="#444950"/>
<path d="M19.0765 13.2851L23.6738 11.2941L17.8457 7.38464L19.0765 13.2851Z" fill="#EFF7F9"/>
<path d="M23.6738 11.2941L24.796 10.4977L24.1806 8.18099V8.07239L23.6738 11.2941Z" fill="#A3B1BC"/>
<path d="M19.0762 13.2851L24.9042 17.1946L23.6735 11.2941L19.0762 13.2851Z" fill="#808890"/>
<path d="M24.796 10.4977L23.6738 11.2941L24.9046 17.1946L25.9544 14.9502L25.2666 12.2715L25.158 11.8371L24.977 11.2217L24.796 10.4977Z" fill="#475875"/>
<path d="M26.0284 16.8325L26.2456 16L26.2094 15.8914V15.8552L26.1732 15.7828L26.137 15.6742L25.956 14.9502L24.9062 17.1945L26.0284 16.8325Z" fill="white"/>
<path d="M7.20443 21.466L7.81982 21.1764L7.02344 20.8145L7.20443 21.466Z" fill="#474A52"/>
<path d="M7.20312 21.466L7.23932 21.6832L7.81851 21.1765L7.20312 21.466Z" fill="#DEE6E8"/>
<path d="M13.6466 23.1312L6.2982 13.9729L6.5154 13.1041L6.62399 12.6697L6.76879 12.1267L5.57422 13.7557L6.2258 14.1901L6.11721 14.6606L7.81856 21.1765L13.6466 23.1312Z" fill="#E1EBF0"/>
<path d="M13.2491 11.3303L6.51602 13.1041L6.29883 13.9729L13.6472 23.1312L13.2491 11.3303Z" fill="#7A8694"/>
<path d="M7.24023 21.6832L7.71082 23.457L7.81942 21.1765L7.24023 21.6832Z" fill="#C6CED0"/>
<path d="M7.71094 23.457L7.81954 23.819L7.89193 24.1086L8.32632 24.2172L8.65211 24.3258L10.6069 24.8326L11.5842 25.086L13.6476 23.1312L7.81954 21.1765L7.71094 23.457Z" fill="#C2CBD4"/>
<path d="M13.248 11.3303L13.6462 23.1312L17.8453 17.267L13.248 11.3303Z" fill="#EFF7F9"/>
<path d="M19.0761 13.2851L13.248 11.3303L17.8453 17.267L19.0761 13.2851Z" fill="white"/>
<path d="M14.7695 25.9186L16.5795 25.1584L13.6473 23.1312L11.584 25.086L11.7288 25.1222L14.7695 25.9186Z" fill="#EFF7F9"/>
<path d="M13.6484 23.1312L16.5806 25.1584L17.8475 17.267L13.6484 23.1312Z" fill="white"/>
<path d="M19.0765 13.2851L17.8457 17.267L22.0086 21.1765L19.0765 13.2851Z" fill="#98A4B1"/>
<path d="M24.9042 17.1946L19.0762 13.2851L22.0083 21.1765L24.9042 17.1946Z" fill="#E1EBF0"/>
<path d="M16.5801 25.1584L17.0869 25.9547L17.2317 25.9186L18.7158 25.5204L17.847 17.267L16.5801 25.1584Z" fill="#75746B"/>
<path d="M25.1571 20.1267L24.7589 21.6109L25.4829 23.457L26.4241 18.2444L25.2295 19.8733L25.7725 17.81L24.9037 17.1946L22.0078 21.1765L25.1571 20.1267Z" fill="#E5EDF0"/>
<path d="M25.775 17.81L25.9198 17.2308L26.0284 16.8326L24.9062 17.1946L25.775 17.81Z" fill="#EFF7F9"/>
<path d="M24.11 24.1086L24.1824 23.9276L22.0105 21.1765L20.5625 25.0498L22.3363 24.5792L24.11 24.1086Z" fill="#75746B"/>
<path d="M24.1798 23.9276L24.7589 21.6109L25.1571 20.1267L22.0078 21.1765L24.1798 23.9276Z" fill="#F0F7FB"/>
<path d="M16.5795 25.1584L14.7695 25.9186L16.0003 26.2444H16.0365L16.5795 25.1584Z" fill="#7A8694"/>
<path d="M16.5801 25.1584L16.0371 26.2444L16.8335 26.0272L16.5801 25.1584Z" fill="white"/>
<path d="M16.5801 25.1584L16.8335 26.0272L17.0869 25.9548L16.5801 25.1584Z" fill="#E3D6C0"/>
<path d="M1.01357 0.361991L1.15837 0H0L1.01357 0.361991Z" fill="#DEE6E8"/>
<path d="M5.97292 0H5.82812L6.00912 0.0361991L5.97292 0Z" fill="#7A8694"/>
<path d="M6.08125 0H5.97266L6.00886 0.0361991L6.08125 0Z" fill="#EFF7F9"/>
<path d="M1.01367 0.361991L1.41186 0.506787L1.48426 0H1.15847L1.01367 0.361991Z" fill="#EFF7F9"/>
<path d="M1.41211 0.506787L3.18587 1.15837L6.00939 0.0361991L5.8284 0H1.48451L1.41211 0.506787Z" fill="#98A4B1"/>
<path d="M6.22501 0H6.08021L6.00781 0.0361991L6.22501 0Z" fill="#CBD5DC"/>
<path d="M8.03623 0.941171L6.00908 0.0361938L3.18555 1.15837L4.12672 1.48416L8.03623 0.941171Z" fill="#474A52"/>
<path d="M6.00781 0.0361991L8.03496 0.941176L9.98971 0H6.22501L6.00781 0.0361991Z" fill="#E1E6E5"/>
<path d="M17.3385 0.904977L17.0851 0H14.877L17.3385 0.904977Z" fill="#F3F6F1"/>
<path d="M17.5927 0H17.0859L17.3393 0.904977L17.5927 0Z" fill="#E7F0F4"/>
<path d="M8.03711 0.941176L13.2498 1.88235L12.5258 0H9.99186L8.03711 0.941176Z" fill="#444950"/>
<path d="M13.2474 1.88235L17.3379 0.904977L14.8764 0H12.5234L13.2474 1.88235Z" fill="#EFF7F9"/>
<path d="M17.3398 0.904977L19.8014 0H17.5932L17.3398 0.904977Z" fill="#A3B1BC"/>
<path d="M16.9042 3.25791H18.2435L17.3385 0.904968L13.248 1.88234L16.9042 3.25791Z" fill="#808890"/>
<path d="M17.3398 0.904977L18.2448 3.25792H18.5706H18.9326L21.6837 0H19.8014L17.3398 0.904977Z" fill="#475875"/>
<path d="M18.9316 3.25792H21.5742L23.6737 2.85973L22.8411 0H21.6828L18.9316 3.25792Z" fill="white"/>
<path d="M23.6744 2.85973L26.0997 0H22.8418L23.6744 2.85973Z" fill="#A3B1BC"/>
<path d="M23.6737 2.85973L23.9633 2.89593L23.7823 2.96833L23.6737 2.85973L23.3117 3.11312L23.2031 3.14932L27.5832 2.35294L27.4022 1.66516L28.5244 1.26697L27.5832 2.35294L30.9859 2.85973L31.5651 1.23077L31.9995 0L29.1398 1.04977L28.6692 0H26.0991L23.6737 2.85973Z" fill="white"/>
<path d="M29.1405 1.04977L32.0002 0H28.6699L29.1405 1.04977Z" fill="#EFF7F9"/>
<path d="M8.03646 0.941162L4.12695 1.48415L8.14505 2.93211L8.03646 0.941162Z" fill="#7A8694"/>
<path d="M12.4531 3.25789H13.1771H13.6115H14.1545L13.2495 1.88232L12.4531 3.25789Z" fill="#98A4B1"/>
<path d="M14.153 3.25789H15.0942H16.4336L17.1576 4.30766L18.5693 3.25789H18.2435H16.9042L13.248 1.88232L14.153 3.25789Z" fill="#E1EBF0"/>
<path d="M22.081 3.25794L22.3706 3.36654L22.5154 3.25794H22.986L23.0222 3.40274L22.7326 3.33034L22.5516 3.40274L22.3706 3.36654L22.443 3.43894L22.3706 3.47514L21.5742 3.76473L23.6738 7.67423L23.9996 7.45704L23.3118 4.63351L23.0584 3.58374L24.9769 4.30772L27.5833 2.35297L23.2032 3.14935L23.3118 3.11315L23.6738 2.85975L21.5742 3.25794H22.081Z" fill="#EFF7F9"/>
<path d="M23.7824 2.96834L23.9634 2.89594L23.6738 2.85974L23.7824 2.96834Z" fill="#B6C1CE"/>
<path d="M9.55666 3.25793H9.01367L9.59286 3.43893L9.55666 3.25793Z" fill="#7A8694"/>
<path d="M12.3086 3.2579H11.295L8.03711 0.941162L8.14571 2.93211L9.01448 3.2579H9.55747L9.59367 3.4389L11.2588 4.05428L12.3086 3.2579Z" fill="#EFF7F9"/>
<path d="M13.1774 3.2579H12.4534L13.2498 1.88234L8.03711 0.941162L11.295 3.2579H12.3086L11.2588 4.05428L12.7792 4.59727L13.1774 3.2579Z" fill="white"/>
<path d="M16.4331 3.25793H15.0938L17.1571 4.30771L16.4331 3.25793Z" fill="#98A4B1"/>
<path d="M13.6099 3.25793H13.1755L12.7773 4.5973L13.9357 5.03169L13.6099 3.25793Z" fill="#75746B"/>
<path d="M16.0005 5.75567L16.2539 5.68327L17.1588 4.30771L15.0955 3.25793H14.1543H13.6113L13.9371 5.03169L15.6385 5.61088L16.0005 5.75567Z" fill="#B6C1CE"/>
<path d="M17.1582 4.30771L22.3709 3.36653L22.0813 3.25793H21.5745H18.932H18.57L17.1582 4.30771Z" fill="#E5EDF0"/>
<path d="M18.1356 4.99548L17.7374 5.14027L20.2713 6.87783L21.3935 7.16742L21.1401 3.9095L21.5745 3.76471L22.3709 3.47511V3.36652L17.1582 4.30769L18.1356 4.99548Z" fill="#F0F7FB"/>
<path d="M22.5521 3.40273L22.7331 3.33033L23.0227 3.40273L22.9865 3.25793H22.5159L22.3711 3.36653L22.5521 3.40273Z" fill="white"/>
<path d="M22.3711 3.47511L22.4435 3.43891L22.3711 3.36652V3.47511Z" fill="#304350"/>
<path d="M17.448 6.15383L18.8235 6.51582L20.2715 6.87781L17.7376 5.14026L18.1357 4.99546L17.1584 4.30768L16.2534 5.68324L16 5.75564L17.448 6.15383Z" fill="#75746B"/>
<path d="M21.1406 3.90951L21.394 7.16742L23.0954 7.60181L23.3488 7.67421H23.6746L21.575 3.76471L21.1406 3.90951Z" fill="#304350"/>
<path d="M24.0358 7.60183L23.9996 7.45703L23.6738 7.67423L24.0358 7.60183Z" fill="#C6CED0"/>
<path d="M23.6734 7.78279V7.67419H23.3477L23.6734 7.78279Z" fill="#D1DADF"/>
<path d="M24.1089 7.89139L25.2673 8.18098L24.9777 4.30768L23.3125 4.63347L24.0003 7.457L24.0365 7.6018L24.0727 7.74659L23.6745 7.67419V7.78279L24.1089 7.89139Z" fill="#F0F7FB"/>
<path d="M24.072 7.7466L24.0358 7.60181L23.6738 7.67421L24.072 7.7466Z" fill="#9DABB9"/>
<path d="M24.8318 23.9638L24.1078 24.1086L23.8906 25.0498L24.5784 25.2308L24.8318 23.9638Z" fill="white"/>
<path d="M23.8901 25.0497L23.6367 26.0271L24.5779 25.2307L23.8901 25.0497Z" fill="#A3B1BC"/>
<path d="M24.5798 25.2307L23.6386 26.0271L23.2405 27.7647L22.3355 24.5792L20.5617 25.0497L20.4531 25.086L23.1681 27.9819L23.0957 28.3439L22.9871 28.7421L25.1952 29.5384L24.5798 25.2307Z" fill="white"/>
<path d="M25.7021 23.7466L25.8831 23.6742L25.4849 23.457L25.5573 23.7828L25.1953 23.8552L25.4849 23.457L24.761 21.6108L24.1818 23.9276L24.1094 24.1086L24.8334 23.9638L24.58 25.2307L25.7021 23.7466Z" fill="#EFF7F9"/>
<path d="M26.7882 23.457L26.4624 23.5656L25.8832 23.6742L25.7022 23.7466L24.5801 25.2308L28.4534 29.3213L26.7882 23.457Z" fill="white"/>
<path d="M28.4534 29.3213L24.5801 25.2308L25.1955 29.5385L27.3674 30.3348L28.4534 29.3213Z" fill="#B6C1CE"/>
<path d="M27.6914 23.2398L29.1394 24.0362L28.7412 22.9865L27.6914 23.2398Z" fill="#304350"/>
<path d="M27.6921 23.2398L26.7871 23.457L28.4523 29.3213L30.1898 26.9321L29.1762 24.1086L29.1401 24.0362L27.6921 23.2398Z" fill="#EFF7F9"/>
<path d="M28.4532 29.3213L27.3672 30.3349L28.236 30.6245L28.4532 29.3213Z" fill="#E1EBF0"/>
<path d="M30.1907 26.9321L28.4531 29.3213L29.0685 30.9502L29.6839 31.1674L30.5889 28.0181L30.4079 27.5475L30.1907 26.9321Z" fill="#C6CED0"/>
<path d="M28.4516 29.3213L28.2344 30.6245L29.067 30.9502L28.4516 29.3213Z" fill="#D1DADF"/>
<path d="M31.6739 31.095L30.5879 31.4932L31.9997 32L31.6739 31.095Z" fill="#525A66"/>
<path d="M17.2308 25.9186L17.086 25.9548L16.8326 26.0272L16.0362 26.2444H16L16.362 26.3892L16.6154 26.4616L17.2308 25.9186Z" fill="#A3B1BC"/>
<path d="M19.656 25.3032L18.7148 25.5204L17.2306 25.9185L16.6152 26.4615L19.9817 27.6923L19.656 25.3032Z" fill="white"/>
<path d="M23.167 27.9819L20.452 25.086L20.5606 25.0498L22.0086 21.1765L17.8457 17.267L18.7145 25.5204L19.6557 25.3032L19.9815 27.6923L22.7326 28.6697L23.0946 28.3439L23.167 27.9819Z" fill="#B6C1CE"/>
<path d="M23.8905 25.0498L24.1077 24.1086L22.334 24.5792L23.239 27.7647L23.6372 26.0271L23.8905 25.0498Z" fill="#EFF7F9"/>
<path d="M22.7344 28.6697L22.9878 28.7421L23.0964 28.3439L22.7344 28.6697Z" fill="#E1EBF0"/>
<path d="M28.5245 1.26697L27.4023 1.66516L27.5833 2.35294L28.5245 1.26697Z" fill="#A3B1BC"/>
<path d="M24.9771 4.30772L23.0586 3.58374L23.312 4.63351L24.9771 4.30772Z" fill="#E5EDF0"/>
<path d="M24.9766 4.30772L29.9358 5.71948L30.2616 4.8869L27.5829 2.35297L24.9766 4.30772Z" fill="white"/>
<path d="M30.2627 4.8869L30.7695 3.43894L30.9143 3.00455L30.9867 2.85975L27.584 2.35297L30.2627 4.8869Z" fill="#B6C1CE"/>
<path d="M25.2662 8.18098L25.6643 8.25338L27.0037 8.57917L27.2933 8.65157L27.3295 8.68777L24.9766 4.30768L25.2662 8.18098Z" fill="#304350"/>
<path d="M28.8521 8.79637L29.1055 8.07239L28.0195 8.83257L28.3815 8.94117L28.8521 8.79637Z" fill="#C6CED0"/>
<path d="M28.8514 8.79639L28.3809 8.94118L28.6343 8.97738L28.7429 9.01358L28.8514 8.79639Z" fill="#9DABB9"/>
<path d="M24.1818 8.18101L25.6659 8.25341L25.2677 8.18101L24.1094 7.89142L24.1818 8.07241V8.18101Z" fill="#7A8694"/>
<path d="M25.6638 8.25337L24.1797 8.18097L24.7951 10.4977L24.9761 11.2217L27.0032 8.57916L25.6638 8.25337Z" fill="#EFF7F9"/>
<path d="M26.2453 15.819L26.1367 15.6742L26.1729 15.7828L26.2453 15.819Z" fill="#98A4B1"/>
<path d="M26.2081 15.8552L26.2443 15.819L26.1719 15.7828L26.2081 15.8552Z" fill="#E1EBF0"/>
<path d="M25.9534 14.9502L26.1344 15.6742L26.243 15.819L26.3154 15.7466L26.3878 15.5656L26.7136 16.2172L28.7407 14.8416V14.2262V13.6108V13.2489L27.329 12.9593L27.4376 12.7059L25.2656 12.2715L25.9534 14.9502Z" fill="#B6C1CE"/>
<path d="M26.209 15.8552V15.8914L26.2452 15.819L26.209 15.8552Z" fill="#E5EDF0"/>
<path d="M26.2803 15.8914L26.3165 15.7466L26.2441 15.819L26.2803 15.8914Z" fill="#75746B"/>
<path d="M26.209 15.8914L26.2452 16L26.2814 15.8914L26.2452 15.819L26.209 15.8914Z" fill="#F0F7FB"/>
<path d="M28.6332 8.97736L28.416 9.95473L28.7418 9.01356L28.6332 8.97736Z" fill="#7A8694"/>
<path d="M28.3069 10.3167L28.1259 10.7873L27.2933 8.65156L27.0037 8.57916L24.9766 11.2217L25.1576 11.8371L28.0535 11.0045L27.8363 11.6199L28.6689 11.3665L28.3069 10.3167Z" fill="white"/>
<path d="M26.2812 15.8914L26.7156 16.2172L26.3898 15.5656L26.3174 15.7466L26.2812 15.8914Z" fill="#98A4B1"/>
<path d="M26.2803 15.8914L26.2441 16L26.4613 16.5792L26.7147 16.2172L26.2803 15.8914Z" fill="#E1EBF0"/>
<path d="M27.8369 11.6199L28.0541 11.0045L25.1582 11.8371L25.2668 12.2715L27.4387 12.7059L27.3301 12.9593L28.7419 13.2489V12.4525V11.4389L28.6695 11.3665L27.8369 11.6199Z" fill="#75746B"/>
<path d="M26.4609 16.5792L26.6057 16.9773L26.7143 16.2172L26.4609 16.5792Z" fill="#E5EDF0"/>
<path d="M26.7148 16.2172L28.742 19.1493V14.8416L26.7148 16.2172Z" fill="#75746B"/>
<path d="M26.7151 16.2172L26.6065 16.9773L26.9323 17.9185L27.7287 20.0905L26.4256 18.2443L25.4844 23.457L26.4617 23.5656L26.7875 23.457L27.6925 23.2398L28.7423 22.9864L28.2717 21.6108L28.7423 21.647V21.5022V19.1493L26.7151 16.2172Z" fill="#F0F7FB"/>
<path d="M28.2715 21.6108L28.7421 22.9864V21.9004V21.647L28.2715 21.6108Z" fill="#304350"/>
<path d="M28.6699 11.3665L28.7423 11.2941V11.0407L28.6699 11.3665Z" fill="#7A8694"/>
<path d="M28.7423 11.4027L28.6699 11.3665L28.7423 11.4389V11.4027Z" fill="#E3D6C0"/>
<path d="M25.9182 17.2308L25.7734 17.81L26.425 18.2443L25.9182 17.2308Z" fill="#98A4B1"/>
<path d="M25.7735 17.8099L25.2305 19.8733L26.425 18.2443L25.7735 17.8099Z" fill="#E1EBF0"/>
<path d="M26.461 16.5792L26.2438 16L26.0266 16.8326L25.918 17.2308L26.4248 18.2443L26.9315 17.9186L26.6058 16.9774L26.461 16.5792Z" fill="#B6C1CE"/>
<path d="M26.4258 18.2444L27.7289 20.0905L26.9326 17.9186L26.4258 18.2444Z" fill="#75746B"/>
<path d="M25.1953 23.8552L25.5573 23.7828L25.4849 23.457L25.1953 23.8552Z" fill="white"/>
<path d="M25.8826 23.6742L26.4617 23.5656L25.4844 23.457L25.8826 23.6742Z" fill="#304350"/>
<path d="M1.08518 29.0317L0.433594 28.4887V30.7693L1.01278 29.1765L1.08518 29.0317Z" fill="#F0F7FB"/>
<path d="M1.08518 29.0317L1.22997 28.5611L0.433594 28.4887L1.08518 29.0317Z" fill="#304350"/>
<path d="M0.434389 30.7693V28.4887L0 29.3937V32L0.434389 30.7693Z" fill="#383E47"/>
<path d="M1.22997 28.5611L1.73676 27.1493L2.06255 26.2805L7.02183 27.6923L4.66889 23.3484H4.70509L3.87251 21.2127L3.72771 21.6833L3.32952 20.6335L3.25712 20.9955V22.4796V22.9864L3.58292 22.0814L3.36572 23.0226L3.61911 23.095L3.98111 23.1674L2.89513 23.9276L2.60554 24.724L2.35215 23.2398L0.433594 28.4887L1.22997 28.5611Z" fill="#EFF7F9"/>
<path d="M2.60496 24.724L2.89455 23.9276L3.14794 23.2036L3.25654 22.9864V22.4796L2.35156 23.2398L2.60496 24.724Z" fill="#7A8694"/>
<path d="M0.434389 28.4887L0 28.2715V29.3937L0.434389 28.4887Z" fill="#808890"/>
<path d="M2.35294 23.2398L0 25.8461V28.2715L0.434389 28.4887L2.35294 23.2398Z" fill="#DEE6E8"/>
<path d="M3.25712 18.7511V18.3892L0.433594 18.0272L3.25712 19.5475V18.7511Z" fill="#E3D6C0"/>
<path d="M2.35294 23.2398L3.25792 22.4796V20.9955V20.7059L3.33032 20.6335L3.25792 20.5973V20.5611V19.5475L0.434389 18.0272L0 18.2806V25.8462L2.35294 23.2398Z" fill="white"/>
<path d="M3.25712 18.3891V17.8099L2.35215 12.8145L0.433594 18.0271L3.25712 18.3891Z" fill="#444950"/>
<path d="M3.25654 17.81V17.1584V12.8869V10.4977L2.35156 12.8145L3.25654 17.81Z" fill="white"/>
<path d="M0.434389 18.0271L0 17.7737V18.2805L0.434389 18.0271Z" fill="#F6FBFB"/>
<path d="M0.434389 18.0271L2.35294 12.8145L0 15.3122V17.7737L0.434389 18.0271Z" fill="#C6CED0"/>
<path d="M3.25712 10.4977V10.3529V10.0995L0.433594 7.60181L2.35215 12.8145L3.25712 10.4977Z" fill="#E7F0F4"/>
<path d="M3.25712 10.0995V9.01357L2.85893 7.9638V7.8914L0.433594 7.60181L3.25712 10.0995Z" fill="#D1DADF"/>
<path d="M2.35294 12.8145L0 11.2217V15.3122L2.35294 12.8145Z" fill="#EFF7F9"/>
<path d="M2.35294 12.8145L0.434389 7.60181L0 8.18099V11.2217L2.35294 12.8145Z" fill="#525A66"/>
<path d="M2.85893 7.89143L1.84536 5.0679L1.59196 4.45251L0.433594 7.60184L2.85893 7.89143Z" fill="#F0F7FB"/>
<path d="M0.434389 7.60178L1.59276 4.45246L1.44796 3.98187L1.26697 3.54749L0 4.88685V8.18097L0.434389 7.60178Z" fill="#444950"/>
<path d="M1.26697 3.54751L0.904977 2.53394L0 2.60633V4.88688L1.26697 3.54751Z" fill="#475875"/>
<path d="M0.904977 2.53394L1.26697 3.54751L1.44796 3.9819L2.31674 0.832579L1.41176 0.506787L0.325792 0.904977L0 0V2.60633L0.904977 2.53394Z" fill="#9DABB9"/>
<path d="M30.9866 31.638L30.8418 32H32.0002L30.9866 31.638Z" fill="#DEE6E8"/>
<path d="M26.0284 32H26.2094L25.9922 31.9638L26.0284 32Z" fill="#7A8694"/>
<path d="M25.918 32H26.0266L25.9904 31.9638L25.918 32Z" fill="#EFF7F9"/>
<path d="M30.9852 31.638L30.587 31.4932L30.5508 32H30.8404L30.9852 31.638Z" fill="#EFF7F9"/>
<path d="M30.5895 31.4932L28.8157 30.8416L25.9922 31.9638L26.2094 32H30.5533L30.5895 31.4932Z" fill="#98A4B1"/>
<path d="M25.7734 32H25.9182L25.9906 31.9638L25.7734 32Z" fill="#CBD5DC"/>
<path d="M23.9629 31.0589L25.99 31.9638L28.8136 30.8417L27.8724 30.5159L23.9629 31.0589Z" fill="#474A52"/>
<path d="M25.9897 31.9638L23.9626 31.0588L22.0078 32H25.7725L25.9897 31.9638Z" fill="#E1E6E5"/>
<path d="M14.6602 31.095L14.9136 32H17.1217L14.6602 31.095Z" fill="#F3F6F1"/>
<path d="M14.6616 31.095L14.4082 32H14.915L14.6616 31.095Z" fill="#E7F0F4"/>
<path d="M23.9646 31.0589L18.752 30.1177L19.4759 32H22.0099L23.9646 31.0589Z" fill="#444950"/>
<path d="M18.7507 30.1177L14.6602 31.0951L17.1217 32H19.4746L18.7507 30.1177Z" fill="#EFF7F9"/>
<path d="M14.6608 31.095L12.1992 32H14.4074L14.6608 31.095Z" fill="#A3B1BC"/>
<path d="M15.0952 28.7783H13.7559L14.6608 31.095L18.7513 30.1176L15.0952 28.7783Z" fill="#808890"/>
<path d="M14.6603 31.095L13.7553 28.7783H13.4295H13.0675L10.3164 32H12.1988L14.6603 31.095Z" fill="#475875"/>
<path d="M13.0683 28.7783H10.4619L8.32617 29.1403L9.15875 32H10.3171L13.0683 28.7783Z" fill="#182631"/>
<path d="M8.32573 29.1403L5.90039 32H9.15831L8.32573 29.1403Z" fill="#A3B1BC"/>
<path d="M3.33032 32L2.85973 30.9865L0 32H3.33032Z" fill="#EFF7F9"/>
<path d="M23.9641 31.0588L27.8736 30.5158L23.8555 29.0679L23.9641 31.0588Z" fill="#7A8694"/>
<path d="M19.5471 28.7783H18.8231H18.4249H17.8457L18.7507 30.1176L19.5471 28.7783Z" fill="#98A4B1"/>
<path d="M17.846 28.7783H16.9048H15.5654L14.8415 27.6923L13.4297 28.7783H13.7555H15.0948L18.751 30.1177L17.846 28.7783Z" fill="#E1EBF0"/>
<path d="M10.4613 28.7783H9.91828L9.62869 28.6697L9.48389 28.7783H9.0133L8.9771 28.5973L9.26669 28.6697L9.44769 28.5973L9.62869 28.6697L9.59249 28.5611L9.62869 28.5249L10.4613 28.2353L8.32552 24.3258L7.99973 24.543L8.68751 27.4027L8.9409 28.4163L7.02235 27.6923L4.41602 29.6471L8.79611 28.8507L8.68751 28.8869L8.32552 29.1403L10.4613 28.7783Z" fill="#EFF7F9"/>
<path d="M8.2181 29.0317L8.03711 29.1041L8.3267 29.1403L8.2181 29.0317Z" fill="#B6C1CE"/>
<path d="M22.9874 28.7783L22.4082 28.5611L22.4444 28.7783H22.9874Z" fill="#7A8694"/>
<path d="M19.6914 28.7783H20.7412L23.9629 31.0588L23.8543 29.0679L22.9855 28.7783H22.4425L22.4063 28.5611L20.7412 27.9457L19.6914 28.7783Z" fill="#EFF7F9"/>
<path d="M18.8244 28.7783H19.5483L18.752 30.1176L23.9646 31.0588L20.7429 28.7783H19.6931L20.7429 27.9457L19.2225 27.4027L18.8244 28.7783Z" fill="white"/>
<path d="M15.5658 28.7783H16.9051L14.8418 27.6923L15.5658 28.7783Z" fill="#98A4B1"/>
<path d="M18.4245 28.7783H18.8227L19.2209 27.4027L18.0625 27.0045L18.4245 28.7783Z" fill="#75746B"/>
<path d="M16.0002 26.2443L15.783 26.3167L14.8418 27.6923L16.9051 28.7783H17.8463H18.4255L18.0635 27.0045L16.3622 26.3891L16.0002 26.2443Z" fill="#B6C1CE"/>
<path d="M14.8416 27.6923L9.62891 28.6697L9.9185 28.7783H10.4615H13.0678H13.4298L14.8416 27.6923Z" fill="#E5EDF0"/>
<path d="M14.8416 27.6923L13.8642 27.0045L14.2624 26.8597L11.7285 25.1222L11.5837 25.086L10.6063 24.8326L10.8597 28.0905L10.4615 28.2353L9.62891 28.5249V28.6697L14.8416 27.6923Z" fill="#F0F7FB"/>
<path d="M9.44715 28.5973L9.26616 28.6697L8.97656 28.5973L9.01276 28.7783H9.48335L9.62815 28.6697L9.44715 28.5973Z" fill="white"/>
<path d="M9.5918 28.5611L9.628 28.6697V28.5249L9.5918 28.5611Z" fill="#304350"/>
<path d="M14.7692 25.9186L11.7285 25.1222L14.2625 26.8597L13.8643 27.0045L14.8416 27.6923L15.7828 26.3168L16 26.2444L14.7692 25.9186Z" fill="#75746B"/>
<path d="M10.8601 28.0905L10.6067 24.8326L8.65196 24.3258H8.32617L10.4619 28.2353L10.8601 28.0905Z" fill="#304350"/>
<path d="M7.96289 24.4344L7.99909 24.543L8.32488 24.3258L7.96289 24.4344Z" fill="#C6CED0"/>
<path d="M8.65196 24.3258L8.32617 24.2172V24.3258H8.65196Z" fill="#D1DADF"/>
<path d="M8.32714 24.2172L7.89275 24.1086L6.73438 23.819L7.02397 27.6923L8.68913 27.4027L8.00134 24.543L7.96514 24.4344L7.92894 24.2534L8.32714 24.3258V24.2172Z" fill="#F0F7FB"/>
<path d="M7.92773 24.2534L7.96393 24.4344L8.32592 24.3258L7.92773 24.2534Z" fill="#9DABB9"/>
<path d="M7.16797 8.07239L7.89195 7.8914L8.10915 6.98642L7.42136 6.76923L7.16797 8.07239Z" fill="white"/>
<path d="M8.1077 6.98641L8.3611 5.97284L7.41992 6.76922L8.1077 6.98641Z" fill="#A3B1BC"/>
<path d="M7.42007 6.76924L8.36125 5.97286L8.75944 4.2353L9.70062 7.42082L9.73681 7.38462L11.5468 6.91404L8.83184 4.05431L8.90424 3.65612L9.01283 3.25793L6.80469 2.46155L7.42007 6.76924Z" fill="white"/>
<path d="M6.29818 8.28959L6.11719 8.32579L6.51538 8.54298L6.44298 8.25339L6.80497 8.14479L6.51538 8.54298L7.23936 10.3891L7.74615 8.39819L7.89094 7.8914L7.16696 8.07239L7.42035 6.76923L6.29818 8.28959Z" fill="#EFF7F9"/>
<path d="M5.21203 8.54296L5.53783 8.47057L6.11701 8.32577L6.29801 8.28957L7.42018 6.76921L3.54688 2.67871L5.21203 8.54296Z" fill="white"/>
<path d="M3.54688 2.67874L7.42018 6.76923L6.80479 2.46154L4.66905 1.66516L3.54688 2.67874Z" fill="#B6C1CE"/>
<path d="M4.30734 8.76019L2.85938 7.96381L3.25756 9.01358L4.30734 8.76019Z" fill="#304350"/>
<path d="M4.30724 8.76016L5.21222 8.54296L3.54706 2.67871L1.8457 5.06785L2.85928 7.89138V7.96378L4.30724 8.76016Z" fill="#EFF7F9"/>
<path d="M3.54688 2.67872L4.66905 1.66514L3.80027 1.37555L3.54688 2.67872Z" fill="#E1EBF0"/>
<path d="M1.84741 5.06787L3.54877 2.67873L2.93338 1.04978L2.318 0.832581L1.44922 3.9819L1.59402 4.45249L1.84741 5.06787Z" fill="#C6CED0"/>
<path d="M3.54703 2.6787L3.80042 1.37554L2.93164 1.04974L3.54703 2.6787Z" fill="#D1DADF"/>
<path d="M0.325792 0.904977L1.41176 0.506787L0 0L0.325792 0.904977Z" fill="#525A66"/>
<path d="M14.7695 6.08144L16.0003 5.75565L15.6383 5.61085L15.4211 5.53845L14.7695 6.08144Z" fill="#A3B1BC"/>
<path d="M12.3815 6.73301L13.9381 6.29862L14.7707 6.08143L15.4222 5.53844L12.0195 4.34387L12.3815 6.73301Z" fill="white"/>
<path d="M8.90443 3.65611L8.83203 4.0543L11.547 6.91403L12.3795 6.73304L12.0176 4.3439L9.26642 3.33032L8.90443 3.65611Z" fill="#B6C1CE"/>
<path d="M8.10782 6.98642L7.89062 7.8914L9.70058 7.42081L8.7594 4.23529L8.36121 5.97285L8.10782 6.98642Z" fill="#EFF7F9"/>
<path d="M8.90625 3.65612L9.26824 3.33033L9.01485 3.25793L8.90625 3.65612Z" fill="#E1EBF0"/>
<path d="M3.47656 30.7692L4.63493 30.3348L4.41774 29.647L3.47656 30.7692Z" fill="#A3B1BC"/>
<path d="M2.85973 30.9865L3.33032 32H5.90045L8.32579 29.1403L8.0362 29.1041L8.2172 29.0317L8.32579 29.1403L8.68778 28.8869L8.79638 28.8507L4.41629 29.6471L4.63348 30.3349L3.47511 30.7693L4.41629 29.6471L1.01357 29.1765L0.434389 30.7693L0 32L2.85973 30.9865Z" fill="white"/>
<path d="M7.02344 27.6923L8.94199 28.4163L8.6886 27.4027L7.02344 27.6923Z" fill="#E5EDF0"/>
<path d="M7.02335 27.6923L2.06407 26.2805L1.73828 27.1493L4.41701 29.647L7.02335 27.6923Z" fill="white"/>
<path d="M1.73765 27.1493L1.23087 28.5611L1.08607 29.0316L1.01367 29.1764L4.41639 29.647L1.73765 27.1493Z" fill="#B6C1CE"/>
<path d="M6.73327 23.819L6.33508 23.7466L4.99571 23.4208L4.70612 23.3484H4.66992L7.02286 27.6923L6.73327 23.819Z" fill="#304350"/>
<path d="M3.14792 23.2036L2.89453 23.9276L3.9805 23.1674L3.61851 23.095L3.14792 23.2036Z" fill="#C6CED0"/>
<path d="M3.14844 23.2036L3.61903 23.095L3.36563 23.0226L3.25703 22.9865L3.14844 23.2036Z" fill="#9DABB9"/>
<path d="M6.33398 23.7466L6.73217 23.819L7.89055 24.1086L7.81815 23.819L6.33398 23.7466Z" fill="#7A8694"/>
<path d="M6.33546 23.7466L7.81962 23.819L7.71103 23.457L7.24044 21.6832L7.20424 21.466L7.02324 20.8145V20.7783L4.99609 23.4208L6.33546 23.7466Z" fill="#EFF7F9"/>
<path d="M5.75586 16.181L5.86446 16.362L5.82826 16.2172L5.75586 16.181Z" fill="#98A4B1"/>
<path d="M5.75586 16.181L5.82826 16.2172L5.79206 16.1448L5.75586 16.181Z" fill="#E1EBF0"/>
<path d="M5.75555 16.181L5.68315 16.2534L5.61075 16.4344L5.28496 15.819L3.25781 17.1584V17.81V18.3892V18.7512L4.66958 19.0407L4.56098 19.3303L6.73293 19.7285L5.86415 16.362L5.75555 16.181Z" fill="#B6C1CE"/>
<path d="M5.75586 16.181L5.79206 16.1448V16.1086L5.75586 16.181Z" fill="#E5EDF0"/>
<path d="M5.75599 16.181L5.71979 16.1086L5.68359 16.2534L5.75599 16.181Z" fill="#75746B"/>
<path d="M5.71875 16.1086L5.75495 16.181L5.79115 16.1086L5.75495 16L5.71875 16.1086Z" fill="#F0F7FB"/>
<path d="M3.36641 23.0226L3.5836 22.0814L3.25781 22.9864L3.36641 23.0226Z" fill="#7A8694"/>
<path d="M3.72827 21.6833L3.87306 21.2127L4.70564 23.3484L4.99524 23.4208L7.02239 20.7783V20.8145L7.81877 21.1765L6.11741 14.6606L6.08121 14.7692L5.75542 16L5.79162 16.1086V16.1448L5.82782 16.2172L5.86402 16.362L6.73279 19.7285L6.84139 20.1629L3.98166 20.9955L4.16266 20.4163L3.33008 20.6335L3.72827 21.6833Z" fill="white"/>
<path d="M5.61095 16.4344L5.68335 16.2534L5.71955 16.1086L5.28516 15.819L5.61095 16.4344Z" fill="#98A4B1"/>
<path d="M5.53855 15.4208L5.28516 15.819L5.71955 16.1086L5.75574 16L5.53855 15.4208Z" fill="#E1EBF0"/>
<path d="M4.16279 20.4163L3.98179 20.9955L6.84152 20.1629L6.73293 19.7285L4.56098 19.3303L4.66958 19.0408L3.25781 18.7512V19.5475V20.5611L3.33021 20.6335L4.16279 20.4163Z" fill="#75746B"/>
<path d="M5.28516 15.819L5.53855 15.4208L5.42995 15.0226L5.28516 15.819Z" fill="#E5EDF0"/>
<path d="M5.28496 15.819L3.25781 12.8869V17.1584L5.28496 15.819Z" fill="#75746B"/>
<path d="M5.28496 15.819L5.42976 15.0226L5.06777 14.0814L4.27139 11.9095L5.57455 13.7556L6.51573 8.54298L5.53836 8.47058L5.21256 8.54298L4.30759 8.76017L3.25781 9.01357L3.7284 10.3891L3.25781 10.3529V10.4977V12.8869L5.28496 15.819Z" fill="#F0F7FB"/>
<path d="M3.7284 10.3891L3.25781 9.01355V10.0995V10.3529L3.7284 10.3891Z" fill="#304350"/>
<path d="M3.33021 20.6335L3.25781 20.7059V20.9955L3.33021 20.6335Z" fill="#7A8694"/>
<path d="M3.25781 20.5611V20.5973L3.33021 20.6335L3.25781 20.5611Z" fill="#E3D6C0"/>
<path d="M6.2258 14.1901L5.57422 13.7557L6.08101 14.7693L6.11721 14.6607L6.2258 14.1901Z" fill="#98A4B1"/>
<path d="M5.57515 13.7557L5.06836 14.0815L5.43035 15.0226L5.53895 15.4208L5.75614 16L6.08193 14.7693L5.57515 13.7557Z" fill="#B6C1CE"/>
<path d="M7.23938 10.3891L6.5154 8.54297L5.57422 13.7556L6.76879 12.1267L7.23938 10.3891Z" fill="#E5EDF0"/>
<path d="M4.27148 11.9095L5.06786 14.0814L5.57465 13.7556L4.27148 11.9095Z" fill="#75746B"/>
<path d="M6.80535 8.14478L6.44336 8.25337L6.51576 8.54297L6.80535 8.14478Z" fill="white"/>
<path d="M6.11825 8.32581L5.53906 8.4706L6.51644 8.543L6.11825 8.32581Z" fill="#304350"/>
<g style="mix-blend-mode:lighten">
<path d="M26.2445 16L24.1088 24.1086L16.0002 26.2444L7.89161 24.1086L5.75586 16L7.89161 7.89142L16.0002 5.75568L24.1088 7.89142L26.2445 16Z" fill="url(#paint0_linear_111_2986)"/>
</g>
</g>
<defs>
<linearGradient id="paint0_linear_111_2986" x1="21.0779" y1="7.83365" x2="10.4824" y2="24.8923" gradientUnits="userSpaceOnUse">
<stop stop-color="white"/>
<stop offset="1"/>
</linearGradient>
</defs>
</svg>
